G04 #@! TF.GenerationSoftware,KiCad,Pcbnew,5.1.5-52549c5~84~ubuntu18.04.1*
G04 #@! TF.CreationDate,2020-01-11T02:19:33-08:00*
G04 #@! TF.ProjectId,Programmer,50726f67-7261-46d6-9d65-722e6b696361,rev?*
G04 #@! TF.SameCoordinates,Original*
G04 #@! TF.FileFunction,Soldermask,Bot*
G04 #@! TF.FilePolarity,Negative*
%FSLAX46Y46*%
G04 Gerber Fmt 4.6, Leading zero omitted, Abs format (unit mm)*
G04 Created by KiCad (PCBNEW 5.1.5-52549c5~84~ubuntu18.04.1) date 2020-01-11 02:19:33*
%MOMM*%
%LPD*%
G04 APERTURE LIST*
%ADD10C,0.050000*%
%ADD11C,0.100000*%
G04 APERTURE END LIST*
D10*
X115062000Y-75692000D02*
X81280000Y-75692000D01*
X115062000Y-44958000D02*
X115062000Y-75692000D01*
X81280000Y-44958000D02*
X115062000Y-44958000D01*
X81280000Y-75692000D02*
X81280000Y-44958000D01*
D11*
G36*
X106031512Y-72001927D02*
G01*
X106180812Y-72031624D01*
X106344784Y-72099544D01*
X106492354Y-72198147D01*
X106617853Y-72323646D01*
X106716456Y-72471216D01*
X106784376Y-72635188D01*
X106819000Y-72809259D01*
X106819000Y-72986741D01*
X106784376Y-73160812D01*
X106716456Y-73324784D01*
X106617853Y-73472354D01*
X106492354Y-73597853D01*
X106344784Y-73696456D01*
X106180812Y-73764376D01*
X106031512Y-73794073D01*
X106006742Y-73799000D01*
X105829258Y-73799000D01*
X105804488Y-73794073D01*
X105655188Y-73764376D01*
X105491216Y-73696456D01*
X105343646Y-73597853D01*
X105218147Y-73472354D01*
X105119544Y-73324784D01*
X105051624Y-73160812D01*
X105017000Y-72986741D01*
X105017000Y-72809259D01*
X105051624Y-72635188D01*
X105119544Y-72471216D01*
X105218147Y-72323646D01*
X105343646Y-72198147D01*
X105491216Y-72099544D01*
X105655188Y-72031624D01*
X105804488Y-72001927D01*
X105829258Y-71997000D01*
X106006742Y-71997000D01*
X106031512Y-72001927D01*
G37*
G36*
X103491512Y-72001927D02*
G01*
X103640812Y-72031624D01*
X103804784Y-72099544D01*
X103952354Y-72198147D01*
X104077853Y-72323646D01*
X104176456Y-72471216D01*
X104244376Y-72635188D01*
X104279000Y-72809259D01*
X104279000Y-72986741D01*
X104244376Y-73160812D01*
X104176456Y-73324784D01*
X104077853Y-73472354D01*
X103952354Y-73597853D01*
X103804784Y-73696456D01*
X103640812Y-73764376D01*
X103491512Y-73794073D01*
X103466742Y-73799000D01*
X103289258Y-73799000D01*
X103264488Y-73794073D01*
X103115188Y-73764376D01*
X102951216Y-73696456D01*
X102803646Y-73597853D01*
X102678147Y-73472354D01*
X102579544Y-73324784D01*
X102511624Y-73160812D01*
X102477000Y-72986741D01*
X102477000Y-72809259D01*
X102511624Y-72635188D01*
X102579544Y-72471216D01*
X102678147Y-72323646D01*
X102803646Y-72198147D01*
X102951216Y-72099544D01*
X103115188Y-72031624D01*
X103264488Y-72001927D01*
X103289258Y-71997000D01*
X103466742Y-71997000D01*
X103491512Y-72001927D01*
G37*
G36*
X99199000Y-73799000D02*
G01*
X97397000Y-73799000D01*
X97397000Y-71997000D01*
X99199000Y-71997000D01*
X99199000Y-73799000D01*
G37*
G36*
X100951512Y-72001927D02*
G01*
X101100812Y-72031624D01*
X101264784Y-72099544D01*
X101412354Y-72198147D01*
X101537853Y-72323646D01*
X101636456Y-72471216D01*
X101704376Y-72635188D01*
X101739000Y-72809259D01*
X101739000Y-72986741D01*
X101704376Y-73160812D01*
X101636456Y-73324784D01*
X101537853Y-73472354D01*
X101412354Y-73597853D01*
X101264784Y-73696456D01*
X101100812Y-73764376D01*
X100951512Y-73794073D01*
X100926742Y-73799000D01*
X100749258Y-73799000D01*
X100724488Y-73794073D01*
X100575188Y-73764376D01*
X100411216Y-73696456D01*
X100263646Y-73597853D01*
X100138147Y-73472354D01*
X100039544Y-73324784D01*
X99971624Y-73160812D01*
X99937000Y-72986741D01*
X99937000Y-72809259D01*
X99971624Y-72635188D01*
X100039544Y-72471216D01*
X100138147Y-72323646D01*
X100263646Y-72198147D01*
X100411216Y-72099544D01*
X100575188Y-72031624D01*
X100724488Y-72001927D01*
X100749258Y-71997000D01*
X100926742Y-71997000D01*
X100951512Y-72001927D01*
G37*
G36*
X84975000Y-72529000D02*
G01*
X83173000Y-72529000D01*
X83173000Y-70727000D01*
X84975000Y-70727000D01*
X84975000Y-72529000D01*
G37*
G36*
X90959938Y-71030716D02*
G01*
X90980557Y-71036971D01*
X90999553Y-71047124D01*
X91016208Y-71060792D01*
X91029876Y-71077447D01*
X91040029Y-71096443D01*
X91046284Y-71117062D01*
X91049000Y-71144640D01*
X91049000Y-71603360D01*
X91046284Y-71630938D01*
X91040029Y-71651557D01*
X91029876Y-71670553D01*
X91016208Y-71687208D01*
X90999553Y-71700876D01*
X90980557Y-71711029D01*
X90959938Y-71717284D01*
X90932360Y-71720000D01*
X90423640Y-71720000D01*
X90396062Y-71717284D01*
X90375443Y-71711029D01*
X90356447Y-71700876D01*
X90339792Y-71687208D01*
X90326124Y-71670553D01*
X90315971Y-71651557D01*
X90309716Y-71630938D01*
X90307000Y-71603360D01*
X90307000Y-71144640D01*
X90309716Y-71117062D01*
X90315971Y-71096443D01*
X90326124Y-71077447D01*
X90339792Y-71060792D01*
X90356447Y-71047124D01*
X90375443Y-71036971D01*
X90396062Y-71030716D01*
X90423640Y-71028000D01*
X90932360Y-71028000D01*
X90959938Y-71030716D01*
G37*
G36*
X92483938Y-70984716D02*
G01*
X92504557Y-70990971D01*
X92523553Y-71001124D01*
X92540208Y-71014792D01*
X92553876Y-71031447D01*
X92564029Y-71050443D01*
X92570284Y-71071062D01*
X92573000Y-71098640D01*
X92573000Y-71557360D01*
X92570284Y-71584938D01*
X92564029Y-71605557D01*
X92553876Y-71624553D01*
X92540208Y-71641208D01*
X92523553Y-71654876D01*
X92504557Y-71665029D01*
X92483938Y-71671284D01*
X92456360Y-71674000D01*
X91947640Y-71674000D01*
X91920062Y-71671284D01*
X91899443Y-71665029D01*
X91880447Y-71654876D01*
X91863792Y-71641208D01*
X91850124Y-71624553D01*
X91839971Y-71605557D01*
X91833716Y-71584938D01*
X91831000Y-71557360D01*
X91831000Y-71098640D01*
X91833716Y-71071062D01*
X91839971Y-71050443D01*
X91850124Y-71031447D01*
X91863792Y-71014792D01*
X91880447Y-71001124D01*
X91899443Y-70990971D01*
X91920062Y-70984716D01*
X91947640Y-70982000D01*
X92456360Y-70982000D01*
X92483938Y-70984716D01*
G37*
G36*
X89435938Y-70984716D02*
G01*
X89456557Y-70990971D01*
X89475553Y-71001124D01*
X89492208Y-71014792D01*
X89505876Y-71031447D01*
X89516029Y-71050443D01*
X89522284Y-71071062D01*
X89525000Y-71098640D01*
X89525000Y-71557360D01*
X89522284Y-71584938D01*
X89516029Y-71605557D01*
X89505876Y-71624553D01*
X89492208Y-71641208D01*
X89475553Y-71654876D01*
X89456557Y-71665029D01*
X89435938Y-71671284D01*
X89408360Y-71674000D01*
X88899640Y-71674000D01*
X88872062Y-71671284D01*
X88851443Y-71665029D01*
X88832447Y-71654876D01*
X88815792Y-71641208D01*
X88802124Y-71624553D01*
X88791971Y-71605557D01*
X88785716Y-71584938D01*
X88783000Y-71557360D01*
X88783000Y-71098640D01*
X88785716Y-71071062D01*
X88791971Y-71050443D01*
X88802124Y-71031447D01*
X88815792Y-71014792D01*
X88832447Y-71001124D01*
X88851443Y-70990971D01*
X88872062Y-70984716D01*
X88899640Y-70982000D01*
X89408360Y-70982000D01*
X89435938Y-70984716D01*
G37*
G36*
X94007938Y-70984716D02*
G01*
X94028557Y-70990971D01*
X94047553Y-71001124D01*
X94064208Y-71014792D01*
X94077876Y-71031447D01*
X94088029Y-71050443D01*
X94094284Y-71071062D01*
X94097000Y-71098640D01*
X94097000Y-71557360D01*
X94094284Y-71584938D01*
X94088029Y-71605557D01*
X94077876Y-71624553D01*
X94064208Y-71641208D01*
X94047553Y-71654876D01*
X94028557Y-71665029D01*
X94007938Y-71671284D01*
X93980360Y-71674000D01*
X93471640Y-71674000D01*
X93444062Y-71671284D01*
X93423443Y-71665029D01*
X93404447Y-71654876D01*
X93387792Y-71641208D01*
X93374124Y-71624553D01*
X93363971Y-71605557D01*
X93357716Y-71584938D01*
X93355000Y-71557360D01*
X93355000Y-71098640D01*
X93357716Y-71071062D01*
X93363971Y-71050443D01*
X93374124Y-71031447D01*
X93387792Y-71014792D01*
X93404447Y-71001124D01*
X93423443Y-70990971D01*
X93444062Y-70984716D01*
X93471640Y-70982000D01*
X93980360Y-70982000D01*
X94007938Y-70984716D01*
G37*
G36*
X90959938Y-70060716D02*
G01*
X90980557Y-70066971D01*
X90999553Y-70077124D01*
X91016208Y-70090792D01*
X91029876Y-70107447D01*
X91040029Y-70126443D01*
X91046284Y-70147062D01*
X91049000Y-70174640D01*
X91049000Y-70633360D01*
X91046284Y-70660938D01*
X91040029Y-70681557D01*
X91029876Y-70700553D01*
X91016208Y-70717208D01*
X90999553Y-70730876D01*
X90980557Y-70741029D01*
X90959938Y-70747284D01*
X90932360Y-70750000D01*
X90423640Y-70750000D01*
X90396062Y-70747284D01*
X90375443Y-70741029D01*
X90356447Y-70730876D01*
X90339792Y-70717208D01*
X90326124Y-70700553D01*
X90315971Y-70681557D01*
X90309716Y-70660938D01*
X90307000Y-70633360D01*
X90307000Y-70174640D01*
X90309716Y-70147062D01*
X90315971Y-70126443D01*
X90326124Y-70107447D01*
X90339792Y-70090792D01*
X90356447Y-70077124D01*
X90375443Y-70066971D01*
X90396062Y-70060716D01*
X90423640Y-70058000D01*
X90932360Y-70058000D01*
X90959938Y-70060716D01*
G37*
G36*
X94007938Y-70014716D02*
G01*
X94028557Y-70020971D01*
X94047553Y-70031124D01*
X94064208Y-70044792D01*
X94077876Y-70061447D01*
X94088029Y-70080443D01*
X94094284Y-70101062D01*
X94097000Y-70128640D01*
X94097000Y-70587360D01*
X94094284Y-70614938D01*
X94088029Y-70635557D01*
X94077876Y-70654553D01*
X94064208Y-70671208D01*
X94047553Y-70684876D01*
X94028557Y-70695029D01*
X94007938Y-70701284D01*
X93980360Y-70704000D01*
X93471640Y-70704000D01*
X93444062Y-70701284D01*
X93423443Y-70695029D01*
X93404447Y-70684876D01*
X93387792Y-70671208D01*
X93374124Y-70654553D01*
X93363971Y-70635557D01*
X93357716Y-70614938D01*
X93355000Y-70587360D01*
X93355000Y-70128640D01*
X93357716Y-70101062D01*
X93363971Y-70080443D01*
X93374124Y-70061447D01*
X93387792Y-70044792D01*
X93404447Y-70031124D01*
X93423443Y-70020971D01*
X93444062Y-70014716D01*
X93471640Y-70012000D01*
X93980360Y-70012000D01*
X94007938Y-70014716D01*
G37*
G36*
X89435938Y-70014716D02*
G01*
X89456557Y-70020971D01*
X89475553Y-70031124D01*
X89492208Y-70044792D01*
X89505876Y-70061447D01*
X89516029Y-70080443D01*
X89522284Y-70101062D01*
X89525000Y-70128640D01*
X89525000Y-70587360D01*
X89522284Y-70614938D01*
X89516029Y-70635557D01*
X89505876Y-70654553D01*
X89492208Y-70671208D01*
X89475553Y-70684876D01*
X89456557Y-70695029D01*
X89435938Y-70701284D01*
X89408360Y-70704000D01*
X88899640Y-70704000D01*
X88872062Y-70701284D01*
X88851443Y-70695029D01*
X88832447Y-70684876D01*
X88815792Y-70671208D01*
X88802124Y-70654553D01*
X88791971Y-70635557D01*
X88785716Y-70614938D01*
X88783000Y-70587360D01*
X88783000Y-70128640D01*
X88785716Y-70101062D01*
X88791971Y-70080443D01*
X88802124Y-70061447D01*
X88815792Y-70044792D01*
X88832447Y-70031124D01*
X88851443Y-70020971D01*
X88872062Y-70014716D01*
X88899640Y-70012000D01*
X89408360Y-70012000D01*
X89435938Y-70014716D01*
G37*
G36*
X92483938Y-70014716D02*
G01*
X92504557Y-70020971D01*
X92523553Y-70031124D01*
X92540208Y-70044792D01*
X92553876Y-70061447D01*
X92564029Y-70080443D01*
X92570284Y-70101062D01*
X92573000Y-70128640D01*
X92573000Y-70587360D01*
X92570284Y-70614938D01*
X92564029Y-70635557D01*
X92553876Y-70654553D01*
X92540208Y-70671208D01*
X92523553Y-70684876D01*
X92504557Y-70695029D01*
X92483938Y-70701284D01*
X92456360Y-70704000D01*
X91947640Y-70704000D01*
X91920062Y-70701284D01*
X91899443Y-70695029D01*
X91880447Y-70684876D01*
X91863792Y-70671208D01*
X91850124Y-70654553D01*
X91839971Y-70635557D01*
X91833716Y-70614938D01*
X91831000Y-70587360D01*
X91831000Y-70128640D01*
X91833716Y-70101062D01*
X91839971Y-70080443D01*
X91850124Y-70061447D01*
X91863792Y-70044792D01*
X91880447Y-70031124D01*
X91899443Y-70020971D01*
X91920062Y-70014716D01*
X91947640Y-70012000D01*
X92456360Y-70012000D01*
X92483938Y-70014716D01*
G37*
G36*
X84187512Y-68191927D02*
G01*
X84336812Y-68221624D01*
X84500784Y-68289544D01*
X84648354Y-68388147D01*
X84773853Y-68513646D01*
X84872456Y-68661216D01*
X84940376Y-68825188D01*
X84975000Y-68999259D01*
X84975000Y-69176741D01*
X84940376Y-69350812D01*
X84872456Y-69514784D01*
X84773853Y-69662354D01*
X84648354Y-69787853D01*
X84500784Y-69886456D01*
X84336812Y-69954376D01*
X84187512Y-69984073D01*
X84162742Y-69989000D01*
X83985258Y-69989000D01*
X83960488Y-69984073D01*
X83811188Y-69954376D01*
X83647216Y-69886456D01*
X83499646Y-69787853D01*
X83374147Y-69662354D01*
X83275544Y-69514784D01*
X83207624Y-69350812D01*
X83173000Y-69176741D01*
X83173000Y-68999259D01*
X83207624Y-68825188D01*
X83275544Y-68661216D01*
X83374147Y-68513646D01*
X83499646Y-68388147D01*
X83647216Y-68289544D01*
X83811188Y-68221624D01*
X83960488Y-68191927D01*
X83985258Y-68187000D01*
X84162742Y-68187000D01*
X84187512Y-68191927D01*
G37*
G36*
X84416410Y-65005525D02*
G01*
X84501426Y-65031314D01*
X84579775Y-65073193D01*
X84648449Y-65129551D01*
X84704807Y-65198225D01*
X84746686Y-65276574D01*
X84772475Y-65361590D01*
X84781182Y-65450000D01*
X84772475Y-65538410D01*
X84746686Y-65623426D01*
X84704807Y-65701775D01*
X84648449Y-65770449D01*
X84579775Y-65826807D01*
X84501426Y-65868686D01*
X84416410Y-65894475D01*
X84350158Y-65901000D01*
X83705842Y-65901000D01*
X83639590Y-65894475D01*
X83554574Y-65868686D01*
X83476225Y-65826807D01*
X83407551Y-65770449D01*
X83351193Y-65701775D01*
X83309314Y-65623426D01*
X83283525Y-65538410D01*
X83274818Y-65450000D01*
X83283525Y-65361590D01*
X83309314Y-65276574D01*
X83351193Y-65198225D01*
X83407551Y-65129551D01*
X83476225Y-65073193D01*
X83554574Y-65031314D01*
X83639590Y-65005525D01*
X83705842Y-64999000D01*
X84350158Y-64999000D01*
X84416410Y-65005525D01*
G37*
G36*
X91301710Y-64039440D02*
G01*
X91372585Y-64060940D01*
X91437904Y-64095854D01*
X91495159Y-64142841D01*
X91542146Y-64200096D01*
X91577058Y-64265411D01*
X91598560Y-64336294D01*
X91604000Y-64391529D01*
X91604000Y-64728472D01*
X91598560Y-64783710D01*
X91577060Y-64854585D01*
X91542146Y-64919904D01*
X91495159Y-64977159D01*
X91437906Y-65024145D01*
X91372583Y-65059060D01*
X91301709Y-65080560D01*
X91228000Y-65087819D01*
X91154290Y-65080560D01*
X91083415Y-65059060D01*
X91018096Y-65024146D01*
X90960842Y-64977159D01*
X90948645Y-64962297D01*
X90931318Y-64944970D01*
X90910944Y-64931356D01*
X90888305Y-64921979D01*
X90864272Y-64917198D01*
X90839768Y-64917198D01*
X90815735Y-64921978D01*
X90793096Y-64931355D01*
X90772721Y-64944969D01*
X90755394Y-64962296D01*
X90741780Y-64982670D01*
X90732403Y-65005309D01*
X90727622Y-65029342D01*
X90727622Y-65053846D01*
X90731182Y-65089999D01*
X90722475Y-65178410D01*
X90696686Y-65263426D01*
X90654807Y-65341775D01*
X90598449Y-65410449D01*
X90529775Y-65466807D01*
X90451426Y-65508686D01*
X90366410Y-65534475D01*
X90300158Y-65541000D01*
X89655842Y-65541000D01*
X89589590Y-65534475D01*
X89504574Y-65508686D01*
X89426225Y-65466807D01*
X89357551Y-65410449D01*
X89301193Y-65341775D01*
X89259314Y-65263426D01*
X89233525Y-65178410D01*
X89224818Y-65090000D01*
X89233525Y-65001590D01*
X89259314Y-64916574D01*
X89301193Y-64838225D01*
X89357551Y-64769551D01*
X89426225Y-64713193D01*
X89504574Y-64671314D01*
X89589590Y-64645525D01*
X89655842Y-64639000D01*
X90300158Y-64639000D01*
X90366410Y-64645525D01*
X90451426Y-64671314D01*
X90529775Y-64713193D01*
X90598449Y-64769552D01*
X90630375Y-64808454D01*
X90647702Y-64825781D01*
X90668077Y-64839395D01*
X90690715Y-64848772D01*
X90714749Y-64853553D01*
X90739253Y-64853553D01*
X90763286Y-64848773D01*
X90785925Y-64839395D01*
X90806299Y-64825782D01*
X90823626Y-64808455D01*
X90837240Y-64788080D01*
X90846617Y-64765442D01*
X90851398Y-64741408D01*
X90852000Y-64729156D01*
X90852000Y-64391528D01*
X90857440Y-64336292D01*
X90872276Y-64287388D01*
X90878941Y-64265415D01*
X90913856Y-64200095D01*
X90921822Y-64190388D01*
X90960842Y-64142841D01*
X91018097Y-64095854D01*
X91083416Y-64060940D01*
X91154291Y-64039440D01*
X91228000Y-64032181D01*
X91301710Y-64039440D01*
G37*
G36*
X101930468Y-64079065D02*
G01*
X101969138Y-64090796D01*
X102004777Y-64109846D01*
X102036017Y-64135483D01*
X102061654Y-64166723D01*
X102080704Y-64202362D01*
X102092435Y-64241032D01*
X102097000Y-64287388D01*
X102097000Y-64938612D01*
X102092435Y-64984968D01*
X102080704Y-65023638D01*
X102061654Y-65059277D01*
X102036017Y-65090517D01*
X102004777Y-65116154D01*
X101969138Y-65135204D01*
X101930468Y-65146935D01*
X101884112Y-65151500D01*
X100807888Y-65151500D01*
X100761532Y-65146935D01*
X100722862Y-65135204D01*
X100687223Y-65116154D01*
X100655983Y-65090517D01*
X100630346Y-65059277D01*
X100611296Y-65023638D01*
X100599565Y-64984968D01*
X100595000Y-64938612D01*
X100595000Y-64287388D01*
X100599565Y-64241032D01*
X100611296Y-64202362D01*
X100630346Y-64166723D01*
X100655983Y-64135483D01*
X100687223Y-64109846D01*
X100722862Y-64090796D01*
X100761532Y-64079065D01*
X100807888Y-64074500D01*
X101884112Y-64074500D01*
X101930468Y-64079065D01*
G37*
G36*
X99898468Y-63982065D02*
G01*
X99937138Y-63993796D01*
X99972777Y-64012846D01*
X100004017Y-64038483D01*
X100029654Y-64069723D01*
X100048704Y-64105362D01*
X100060435Y-64144032D01*
X100065000Y-64190388D01*
X100065000Y-64841612D01*
X100060435Y-64887968D01*
X100048704Y-64926638D01*
X100029654Y-64962277D01*
X100004017Y-64993517D01*
X99972777Y-65019154D01*
X99937138Y-65038204D01*
X99898468Y-65049935D01*
X99852112Y-65054500D01*
X98775888Y-65054500D01*
X98729532Y-65049935D01*
X98690862Y-65038204D01*
X98655223Y-65019154D01*
X98623983Y-64993517D01*
X98598346Y-64962277D01*
X98579296Y-64926638D01*
X98567565Y-64887968D01*
X98563000Y-64841612D01*
X98563000Y-64190388D01*
X98567565Y-64144032D01*
X98579296Y-64105362D01*
X98598346Y-64069723D01*
X98623983Y-64038483D01*
X98655223Y-64012846D01*
X98690862Y-63993796D01*
X98729532Y-63982065D01*
X98775888Y-63977500D01*
X99852112Y-63977500D01*
X99898468Y-63982065D01*
G37*
G36*
X113677000Y-64147000D02*
G01*
X111875000Y-64147000D01*
X111875000Y-62345000D01*
X113677000Y-62345000D01*
X113677000Y-64147000D01*
G37*
G36*
X97817938Y-63364716D02*
G01*
X97838557Y-63370971D01*
X97857553Y-63381124D01*
X97874208Y-63394792D01*
X97887876Y-63411447D01*
X97898029Y-63430443D01*
X97904284Y-63451062D01*
X97907000Y-63478640D01*
X97907000Y-63937360D01*
X97904284Y-63964938D01*
X97898029Y-63985557D01*
X97887876Y-64004553D01*
X97874208Y-64021208D01*
X97857553Y-64034876D01*
X97838557Y-64045029D01*
X97817938Y-64051284D01*
X97790360Y-64054000D01*
X97281640Y-64054000D01*
X97254062Y-64051284D01*
X97233443Y-64045029D01*
X97214447Y-64034876D01*
X97197792Y-64021208D01*
X97184124Y-64004553D01*
X97173971Y-63985557D01*
X97167716Y-63964938D01*
X97165000Y-63937360D01*
X97165000Y-63478640D01*
X97167716Y-63451062D01*
X97173971Y-63430443D01*
X97184124Y-63411447D01*
X97197792Y-63394792D01*
X97214447Y-63381124D01*
X97233443Y-63370971D01*
X97254062Y-63364716D01*
X97281640Y-63362000D01*
X97790360Y-63362000D01*
X97817938Y-63364716D01*
G37*
G36*
X101930468Y-62204065D02*
G01*
X101969138Y-62215796D01*
X102004777Y-62234846D01*
X102036017Y-62260483D01*
X102061654Y-62291723D01*
X102080704Y-62327362D01*
X102092435Y-62366032D01*
X102097000Y-62412388D01*
X102097000Y-63063612D01*
X102092435Y-63109968D01*
X102080704Y-63148638D01*
X102061654Y-63184277D01*
X102036017Y-63215517D01*
X102004777Y-63241154D01*
X101969138Y-63260204D01*
X101930468Y-63271935D01*
X101884112Y-63276500D01*
X100807888Y-63276500D01*
X100761532Y-63271935D01*
X100722862Y-63260204D01*
X100687223Y-63241154D01*
X100655983Y-63215517D01*
X100630346Y-63184277D01*
X100611296Y-63148638D01*
X100599565Y-63109968D01*
X100595000Y-63063612D01*
X100595000Y-62412388D01*
X100599565Y-62366032D01*
X100611296Y-62327362D01*
X100630346Y-62291723D01*
X100655983Y-62260483D01*
X100687223Y-62234846D01*
X100722862Y-62215796D01*
X100761532Y-62204065D01*
X100807888Y-62199500D01*
X101884112Y-62199500D01*
X101930468Y-62204065D01*
G37*
G36*
X105498091Y-62216085D02*
G01*
X105532069Y-62226393D01*
X105563390Y-62243134D01*
X105590839Y-62265661D01*
X105613366Y-62293110D01*
X105630107Y-62324431D01*
X105640415Y-62358409D01*
X105644500Y-62399890D01*
X105644500Y-63076110D01*
X105640415Y-63117591D01*
X105630107Y-63151569D01*
X105613366Y-63182890D01*
X105590839Y-63210339D01*
X105563390Y-63232866D01*
X105532069Y-63249607D01*
X105498091Y-63259915D01*
X105456610Y-63264000D01*
X104855390Y-63264000D01*
X104813909Y-63259915D01*
X104779931Y-63249607D01*
X104748610Y-63232866D01*
X104721161Y-63210339D01*
X104698634Y-63182890D01*
X104681893Y-63151569D01*
X104671585Y-63117591D01*
X104667500Y-63076110D01*
X104667500Y-62399890D01*
X104671585Y-62358409D01*
X104681893Y-62324431D01*
X104698634Y-62293110D01*
X104721161Y-62265661D01*
X104748610Y-62243134D01*
X104779931Y-62226393D01*
X104813909Y-62216085D01*
X104855390Y-62212000D01*
X105456610Y-62212000D01*
X105498091Y-62216085D01*
G37*
G36*
X103923091Y-62216085D02*
G01*
X103957069Y-62226393D01*
X103988390Y-62243134D01*
X104015839Y-62265661D01*
X104038366Y-62293110D01*
X104055107Y-62324431D01*
X104065415Y-62358409D01*
X104069500Y-62399890D01*
X104069500Y-63076110D01*
X104065415Y-63117591D01*
X104055107Y-63151569D01*
X104038366Y-63182890D01*
X104015839Y-63210339D01*
X103988390Y-63232866D01*
X103957069Y-63249607D01*
X103923091Y-63259915D01*
X103881610Y-63264000D01*
X103280390Y-63264000D01*
X103238909Y-63259915D01*
X103204931Y-63249607D01*
X103173610Y-63232866D01*
X103146161Y-63210339D01*
X103123634Y-63182890D01*
X103106893Y-63151569D01*
X103096585Y-63117591D01*
X103092500Y-63076110D01*
X103092500Y-62399890D01*
X103096585Y-62358409D01*
X103106893Y-62324431D01*
X103123634Y-62293110D01*
X103146161Y-62265661D01*
X103173610Y-62243134D01*
X103204931Y-62226393D01*
X103238909Y-62216085D01*
X103280390Y-62212000D01*
X103881610Y-62212000D01*
X103923091Y-62216085D01*
G37*
G36*
X99898468Y-62107065D02*
G01*
X99937138Y-62118796D01*
X99972777Y-62137846D01*
X100004017Y-62163483D01*
X100029654Y-62194723D01*
X100048704Y-62230362D01*
X100060435Y-62269032D01*
X100065000Y-62315388D01*
X100065000Y-62966612D01*
X100060435Y-63012968D01*
X100048704Y-63051638D01*
X100029654Y-63087277D01*
X100004017Y-63118517D01*
X99972777Y-63144154D01*
X99937138Y-63163204D01*
X99898468Y-63174935D01*
X99852112Y-63179500D01*
X98775888Y-63179500D01*
X98729532Y-63174935D01*
X98690862Y-63163204D01*
X98655223Y-63144154D01*
X98623983Y-63118517D01*
X98598346Y-63087277D01*
X98579296Y-63051638D01*
X98567565Y-63012968D01*
X98563000Y-62966612D01*
X98563000Y-62315388D01*
X98567565Y-62269032D01*
X98579296Y-62230362D01*
X98598346Y-62194723D01*
X98623983Y-62163483D01*
X98655223Y-62137846D01*
X98690862Y-62118796D01*
X98729532Y-62107065D01*
X98775888Y-62102500D01*
X99852112Y-62102500D01*
X99898468Y-62107065D01*
G37*
G36*
X97817938Y-62394716D02*
G01*
X97838557Y-62400971D01*
X97857553Y-62411124D01*
X97874208Y-62424792D01*
X97887876Y-62441447D01*
X97898029Y-62460443D01*
X97904284Y-62481062D01*
X97907000Y-62508640D01*
X97907000Y-62967360D01*
X97904284Y-62994938D01*
X97898029Y-63015557D01*
X97887876Y-63034553D01*
X97874208Y-63051208D01*
X97857553Y-63064876D01*
X97838557Y-63075029D01*
X97817938Y-63081284D01*
X97790360Y-63084000D01*
X97281640Y-63084000D01*
X97254062Y-63081284D01*
X97233443Y-63075029D01*
X97214447Y-63064876D01*
X97197792Y-63051208D01*
X97184124Y-63034553D01*
X97173971Y-63015557D01*
X97167716Y-62994938D01*
X97165000Y-62967360D01*
X97165000Y-62508640D01*
X97167716Y-62481062D01*
X97173971Y-62460443D01*
X97184124Y-62441447D01*
X97197792Y-62424792D01*
X97214447Y-62411124D01*
X97233443Y-62400971D01*
X97254062Y-62394716D01*
X97281640Y-62392000D01*
X97790360Y-62392000D01*
X97817938Y-62394716D01*
G37*
G36*
X87590968Y-61483565D02*
G01*
X87629638Y-61495296D01*
X87665277Y-61514346D01*
X87696517Y-61539983D01*
X87722154Y-61571223D01*
X87741204Y-61606862D01*
X87752935Y-61645532D01*
X87757500Y-61691888D01*
X87757500Y-62768112D01*
X87752935Y-62814468D01*
X87741204Y-62853138D01*
X87722154Y-62888777D01*
X87696517Y-62920017D01*
X87665277Y-62945654D01*
X87629638Y-62964704D01*
X87590968Y-62976435D01*
X87544612Y-62981000D01*
X86893388Y-62981000D01*
X86847032Y-62976435D01*
X86808362Y-62964704D01*
X86772723Y-62945654D01*
X86741483Y-62920017D01*
X86715846Y-62888777D01*
X86696796Y-62853138D01*
X86685065Y-62814468D01*
X86680500Y-62768112D01*
X86680500Y-61691888D01*
X86685065Y-61645532D01*
X86696796Y-61606862D01*
X86715846Y-61571223D01*
X86741483Y-61539983D01*
X86772723Y-61514346D01*
X86808362Y-61495296D01*
X86847032Y-61483565D01*
X86893388Y-61479000D01*
X87544612Y-61479000D01*
X87590968Y-61483565D01*
G37*
G36*
X85715968Y-61483565D02*
G01*
X85754638Y-61495296D01*
X85790277Y-61514346D01*
X85821517Y-61539983D01*
X85847154Y-61571223D01*
X85866204Y-61606862D01*
X85877935Y-61645532D01*
X85882500Y-61691888D01*
X85882500Y-62768112D01*
X85877935Y-62814468D01*
X85866204Y-62853138D01*
X85847154Y-62888777D01*
X85821517Y-62920017D01*
X85790277Y-62945654D01*
X85754638Y-62964704D01*
X85715968Y-62976435D01*
X85669612Y-62981000D01*
X85018388Y-62981000D01*
X84972032Y-62976435D01*
X84933362Y-62964704D01*
X84897723Y-62945654D01*
X84866483Y-62920017D01*
X84840846Y-62888777D01*
X84821796Y-62853138D01*
X84810065Y-62814468D01*
X84805500Y-62768112D01*
X84805500Y-61691888D01*
X84810065Y-61645532D01*
X84821796Y-61606862D01*
X84840846Y-61571223D01*
X84866483Y-61539983D01*
X84897723Y-61514346D01*
X84933362Y-61495296D01*
X84972032Y-61483565D01*
X85018388Y-61479000D01*
X85669612Y-61479000D01*
X85715968Y-61483565D01*
G37*
G36*
X112889512Y-59809927D02*
G01*
X113038812Y-59839624D01*
X113202784Y-59907544D01*
X113350354Y-60006147D01*
X113475853Y-60131646D01*
X113574456Y-60279216D01*
X113642376Y-60443188D01*
X113677000Y-60617259D01*
X113677000Y-60794741D01*
X113642376Y-60968812D01*
X113574456Y-61132784D01*
X113475853Y-61280354D01*
X113350354Y-61405853D01*
X113202784Y-61504456D01*
X113038812Y-61572376D01*
X112889512Y-61602073D01*
X112864742Y-61607000D01*
X112687258Y-61607000D01*
X112662488Y-61602073D01*
X112513188Y-61572376D01*
X112349216Y-61504456D01*
X112201646Y-61405853D01*
X112076147Y-61280354D01*
X111977544Y-61132784D01*
X111909624Y-60968812D01*
X111875000Y-60794741D01*
X111875000Y-60617259D01*
X111909624Y-60443188D01*
X111977544Y-60279216D01*
X112076147Y-60131646D01*
X112201646Y-60006147D01*
X112349216Y-59907544D01*
X112513188Y-59839624D01*
X112662488Y-59809927D01*
X112687258Y-59805000D01*
X112864742Y-59805000D01*
X112889512Y-59809927D01*
G37*
G36*
X98092938Y-60845716D02*
G01*
X98113557Y-60851971D01*
X98132553Y-60862124D01*
X98149208Y-60875792D01*
X98162876Y-60892447D01*
X98173029Y-60911443D01*
X98179284Y-60932062D01*
X98182000Y-60959640D01*
X98182000Y-61468360D01*
X98179284Y-61495938D01*
X98173029Y-61516557D01*
X98162876Y-61535553D01*
X98149208Y-61552208D01*
X98132553Y-61565876D01*
X98113557Y-61576029D01*
X98092938Y-61582284D01*
X98065360Y-61585000D01*
X97606640Y-61585000D01*
X97579062Y-61582284D01*
X97558443Y-61576029D01*
X97539447Y-61565876D01*
X97522792Y-61552208D01*
X97509124Y-61535553D01*
X97498971Y-61516557D01*
X97492716Y-61495938D01*
X97490000Y-61468360D01*
X97490000Y-60959640D01*
X97492716Y-60932062D01*
X97498971Y-60911443D01*
X97509124Y-60892447D01*
X97522792Y-60875792D01*
X97539447Y-60862124D01*
X97558443Y-60851971D01*
X97579062Y-60845716D01*
X97606640Y-60843000D01*
X98065360Y-60843000D01*
X98092938Y-60845716D01*
G37*
G36*
X99062938Y-60845716D02*
G01*
X99083557Y-60851971D01*
X99102553Y-60862124D01*
X99119208Y-60875792D01*
X99132876Y-60892447D01*
X99143029Y-60911443D01*
X99149284Y-60932062D01*
X99152000Y-60959640D01*
X99152000Y-61468360D01*
X99149284Y-61495938D01*
X99143029Y-61516557D01*
X99132876Y-61535553D01*
X99119208Y-61552208D01*
X99102553Y-61565876D01*
X99083557Y-61576029D01*
X99062938Y-61582284D01*
X99035360Y-61585000D01*
X98576640Y-61585000D01*
X98549062Y-61582284D01*
X98528443Y-61576029D01*
X98509447Y-61565876D01*
X98492792Y-61552208D01*
X98479124Y-61535553D01*
X98468971Y-61516557D01*
X98462716Y-61495938D01*
X98460000Y-61468360D01*
X98460000Y-60959640D01*
X98462716Y-60932062D01*
X98468971Y-60911443D01*
X98479124Y-60892447D01*
X98492792Y-60875792D01*
X98509447Y-60862124D01*
X98528443Y-60851971D01*
X98549062Y-60845716D01*
X98576640Y-60843000D01*
X99035360Y-60843000D01*
X99062938Y-60845716D01*
G37*
G36*
X104696938Y-59829716D02*
G01*
X104717557Y-59835971D01*
X104736553Y-59846124D01*
X104753208Y-59859792D01*
X104766876Y-59876447D01*
X104777029Y-59895443D01*
X104783284Y-59916062D01*
X104786000Y-59943640D01*
X104786000Y-60452360D01*
X104783284Y-60479938D01*
X104777029Y-60500557D01*
X104766876Y-60519553D01*
X104753208Y-60536208D01*
X104736553Y-60549876D01*
X104717557Y-60560029D01*
X104696938Y-60566284D01*
X104669360Y-60569000D01*
X104210640Y-60569000D01*
X104183062Y-60566284D01*
X104162443Y-60560029D01*
X104143447Y-60549876D01*
X104126792Y-60536208D01*
X104113124Y-60519553D01*
X104102971Y-60500557D01*
X104096716Y-60479938D01*
X104094000Y-60452360D01*
X104094000Y-59943640D01*
X104096716Y-59916062D01*
X104102971Y-59895443D01*
X104113124Y-59876447D01*
X104126792Y-59859792D01*
X104143447Y-59846124D01*
X104162443Y-59835971D01*
X104183062Y-59829716D01*
X104210640Y-59827000D01*
X104669360Y-59827000D01*
X104696938Y-59829716D01*
G37*
G36*
X105666938Y-59829716D02*
G01*
X105687557Y-59835971D01*
X105706553Y-59846124D01*
X105723208Y-59859792D01*
X105736876Y-59876447D01*
X105747029Y-59895443D01*
X105753284Y-59916062D01*
X105756000Y-59943640D01*
X105756000Y-60452360D01*
X105753284Y-60479938D01*
X105747029Y-60500557D01*
X105736876Y-60519553D01*
X105723208Y-60536208D01*
X105706553Y-60549876D01*
X105687557Y-60560029D01*
X105666938Y-60566284D01*
X105639360Y-60569000D01*
X105180640Y-60569000D01*
X105153062Y-60566284D01*
X105132443Y-60560029D01*
X105113447Y-60549876D01*
X105096792Y-60536208D01*
X105083124Y-60519553D01*
X105072971Y-60500557D01*
X105066716Y-60479938D01*
X105064000Y-60452360D01*
X105064000Y-59943640D01*
X105066716Y-59916062D01*
X105072971Y-59895443D01*
X105083124Y-59876447D01*
X105096792Y-59859792D01*
X105113447Y-59846124D01*
X105132443Y-59835971D01*
X105153062Y-59829716D01*
X105180640Y-59827000D01*
X105639360Y-59827000D01*
X105666938Y-59829716D01*
G37*
G36*
X101094938Y-59575716D02*
G01*
X101115557Y-59581971D01*
X101134553Y-59592124D01*
X101151208Y-59605792D01*
X101164876Y-59622447D01*
X101175029Y-59641443D01*
X101181284Y-59662062D01*
X101184000Y-59689640D01*
X101184000Y-60198360D01*
X101181284Y-60225938D01*
X101175029Y-60246557D01*
X101164876Y-60265553D01*
X101151208Y-60282208D01*
X101134553Y-60295876D01*
X101115557Y-60306029D01*
X101094938Y-60312284D01*
X101067360Y-60315000D01*
X100608640Y-60315000D01*
X100581062Y-60312284D01*
X100560443Y-60306029D01*
X100541447Y-60295876D01*
X100524792Y-60282208D01*
X100511124Y-60265553D01*
X100500971Y-60246557D01*
X100494716Y-60225938D01*
X100492000Y-60198360D01*
X100492000Y-59689640D01*
X100494716Y-59662062D01*
X100500971Y-59641443D01*
X100511124Y-59622447D01*
X100524792Y-59605792D01*
X100541447Y-59592124D01*
X100560443Y-59581971D01*
X100581062Y-59575716D01*
X100608640Y-59573000D01*
X101067360Y-59573000D01*
X101094938Y-59575716D01*
G37*
G36*
X100124938Y-59575716D02*
G01*
X100145557Y-59581971D01*
X100164553Y-59592124D01*
X100181208Y-59605792D01*
X100194876Y-59622447D01*
X100205029Y-59641443D01*
X100211284Y-59662062D01*
X100214000Y-59689640D01*
X100214000Y-60198360D01*
X100211284Y-60225938D01*
X100205029Y-60246557D01*
X100194876Y-60265553D01*
X100181208Y-60282208D01*
X100164553Y-60295876D01*
X100145557Y-60306029D01*
X100124938Y-60312284D01*
X100097360Y-60315000D01*
X99638640Y-60315000D01*
X99611062Y-60312284D01*
X99590443Y-60306029D01*
X99571447Y-60295876D01*
X99554792Y-60282208D01*
X99541124Y-60265553D01*
X99530971Y-60246557D01*
X99524716Y-60225938D01*
X99522000Y-60198360D01*
X99522000Y-59689640D01*
X99524716Y-59662062D01*
X99530971Y-59641443D01*
X99541124Y-59622447D01*
X99554792Y-59605792D01*
X99571447Y-59592124D01*
X99590443Y-59581971D01*
X99611062Y-59575716D01*
X99638640Y-59573000D01*
X100097360Y-59573000D01*
X100124938Y-59575716D01*
G37*
G36*
X85715968Y-58689565D02*
G01*
X85754638Y-58701296D01*
X85790277Y-58720346D01*
X85821517Y-58745983D01*
X85847154Y-58777223D01*
X85866204Y-58812862D01*
X85877935Y-58851532D01*
X85882500Y-58897888D01*
X85882500Y-59974112D01*
X85877935Y-60020468D01*
X85866204Y-60059138D01*
X85847154Y-60094777D01*
X85821517Y-60126017D01*
X85790277Y-60151654D01*
X85754638Y-60170704D01*
X85715968Y-60182435D01*
X85669612Y-60187000D01*
X85018388Y-60187000D01*
X84972032Y-60182435D01*
X84933362Y-60170704D01*
X84897723Y-60151654D01*
X84866483Y-60126017D01*
X84840846Y-60094777D01*
X84821796Y-60059138D01*
X84810065Y-60020468D01*
X84805500Y-59974112D01*
X84805500Y-58897888D01*
X84810065Y-58851532D01*
X84821796Y-58812862D01*
X84840846Y-58777223D01*
X84866483Y-58745983D01*
X84897723Y-58720346D01*
X84933362Y-58701296D01*
X84972032Y-58689565D01*
X85018388Y-58685000D01*
X85669612Y-58685000D01*
X85715968Y-58689565D01*
G37*
G36*
X87590968Y-58689565D02*
G01*
X87629638Y-58701296D01*
X87665277Y-58720346D01*
X87696517Y-58745983D01*
X87722154Y-58777223D01*
X87741204Y-58812862D01*
X87752935Y-58851532D01*
X87757500Y-58897888D01*
X87757500Y-59974112D01*
X87752935Y-60020468D01*
X87741204Y-60059138D01*
X87722154Y-60094777D01*
X87696517Y-60126017D01*
X87665277Y-60151654D01*
X87629638Y-60170704D01*
X87590968Y-60182435D01*
X87544612Y-60187000D01*
X86893388Y-60187000D01*
X86847032Y-60182435D01*
X86808362Y-60170704D01*
X86772723Y-60151654D01*
X86741483Y-60126017D01*
X86715846Y-60094777D01*
X86696796Y-60059138D01*
X86685065Y-60020468D01*
X86680500Y-59974112D01*
X86680500Y-58897888D01*
X86685065Y-58851532D01*
X86696796Y-58812862D01*
X86715846Y-58777223D01*
X86741483Y-58745983D01*
X86772723Y-58720346D01*
X86808362Y-58701296D01*
X86847032Y-58689565D01*
X86893388Y-58685000D01*
X87544612Y-58685000D01*
X87590968Y-58689565D01*
G37*
G36*
X98046938Y-58305716D02*
G01*
X98067557Y-58311971D01*
X98086553Y-58322124D01*
X98103208Y-58335792D01*
X98116876Y-58352447D01*
X98127029Y-58371443D01*
X98133284Y-58392062D01*
X98136000Y-58419640D01*
X98136000Y-58928360D01*
X98133284Y-58955938D01*
X98127029Y-58976557D01*
X98116876Y-58995553D01*
X98103208Y-59012208D01*
X98086553Y-59025876D01*
X98067557Y-59036029D01*
X98046938Y-59042284D01*
X98019360Y-59045000D01*
X97560640Y-59045000D01*
X97533062Y-59042284D01*
X97512443Y-59036029D01*
X97493447Y-59025876D01*
X97476792Y-59012208D01*
X97463124Y-58995553D01*
X97452971Y-58976557D01*
X97446716Y-58955938D01*
X97444000Y-58928360D01*
X97444000Y-58419640D01*
X97446716Y-58392062D01*
X97452971Y-58371443D01*
X97463124Y-58352447D01*
X97476792Y-58335792D01*
X97493447Y-58322124D01*
X97512443Y-58311971D01*
X97533062Y-58305716D01*
X97560640Y-58303000D01*
X98019360Y-58303000D01*
X98046938Y-58305716D01*
G37*
G36*
X99016938Y-58305716D02*
G01*
X99037557Y-58311971D01*
X99056553Y-58322124D01*
X99073208Y-58335792D01*
X99086876Y-58352447D01*
X99097029Y-58371443D01*
X99103284Y-58392062D01*
X99106000Y-58419640D01*
X99106000Y-58928360D01*
X99103284Y-58955938D01*
X99097029Y-58976557D01*
X99086876Y-58995553D01*
X99073208Y-59012208D01*
X99056553Y-59025876D01*
X99037557Y-59036029D01*
X99016938Y-59042284D01*
X98989360Y-59045000D01*
X98530640Y-59045000D01*
X98503062Y-59042284D01*
X98482443Y-59036029D01*
X98463447Y-59025876D01*
X98446792Y-59012208D01*
X98433124Y-58995553D01*
X98422971Y-58976557D01*
X98416716Y-58955938D01*
X98414000Y-58928360D01*
X98414000Y-58419640D01*
X98416716Y-58392062D01*
X98422971Y-58371443D01*
X98433124Y-58352447D01*
X98446792Y-58335792D01*
X98463447Y-58322124D01*
X98482443Y-58311971D01*
X98503062Y-58305716D01*
X98530640Y-58303000D01*
X98989360Y-58303000D01*
X99016938Y-58305716D01*
G37*
G36*
X102135938Y-57776716D02*
G01*
X102156557Y-57782971D01*
X102175553Y-57793124D01*
X102192208Y-57806792D01*
X102205876Y-57823447D01*
X102216029Y-57842443D01*
X102222284Y-57863062D01*
X102225000Y-57890640D01*
X102225000Y-58349360D01*
X102222284Y-58376938D01*
X102216029Y-58397557D01*
X102205876Y-58416553D01*
X102192208Y-58433208D01*
X102175553Y-58446876D01*
X102156557Y-58457029D01*
X102135938Y-58463284D01*
X102108360Y-58466000D01*
X101599640Y-58466000D01*
X101572062Y-58463284D01*
X101551443Y-58457029D01*
X101532447Y-58446876D01*
X101515792Y-58433208D01*
X101502124Y-58416553D01*
X101491971Y-58397557D01*
X101485716Y-58376938D01*
X101483000Y-58349360D01*
X101483000Y-57890640D01*
X101485716Y-57863062D01*
X101491971Y-57842443D01*
X101502124Y-57823447D01*
X101515792Y-57806792D01*
X101532447Y-57793124D01*
X101551443Y-57782971D01*
X101572062Y-57776716D01*
X101599640Y-57774000D01*
X102108360Y-57774000D01*
X102135938Y-57776716D01*
G37*
G36*
X91337672Y-56998449D02*
G01*
X91337674Y-56998450D01*
X91337675Y-56998450D01*
X91406103Y-57026793D01*
X91467686Y-57067942D01*
X91520058Y-57120314D01*
X91561207Y-57181897D01*
X91588871Y-57248686D01*
X91589551Y-57250328D01*
X91604000Y-57322966D01*
X91604000Y-57397034D01*
X91590114Y-57466844D01*
X91589550Y-57469675D01*
X91561207Y-57538103D01*
X91520058Y-57599686D01*
X91467686Y-57652058D01*
X91406103Y-57693207D01*
X91337675Y-57721550D01*
X91337674Y-57721550D01*
X91337672Y-57721551D01*
X91265034Y-57736000D01*
X91190966Y-57736000D01*
X91118328Y-57721551D01*
X91118326Y-57721550D01*
X91118325Y-57721550D01*
X91049897Y-57693207D01*
X90988314Y-57652058D01*
X90935942Y-57599686D01*
X90894793Y-57538103D01*
X90866450Y-57469675D01*
X90865887Y-57466844D01*
X90852000Y-57397034D01*
X90852000Y-57322966D01*
X90866449Y-57250328D01*
X90867129Y-57248686D01*
X90894793Y-57181897D01*
X90935942Y-57120314D01*
X90988314Y-57067942D01*
X91049897Y-57026793D01*
X91118325Y-56998450D01*
X91118326Y-56998450D01*
X91118328Y-56998449D01*
X91190966Y-56984000D01*
X91265034Y-56984000D01*
X91337672Y-56998449D01*
G37*
G36*
X102135938Y-56806716D02*
G01*
X102156557Y-56812971D01*
X102175553Y-56823124D01*
X102192208Y-56836792D01*
X102205876Y-56853447D01*
X102216029Y-56872443D01*
X102222284Y-56893062D01*
X102225000Y-56920640D01*
X102225000Y-57379360D01*
X102222284Y-57406938D01*
X102216029Y-57427557D01*
X102205876Y-57446553D01*
X102192208Y-57463208D01*
X102175553Y-57476876D01*
X102156557Y-57487029D01*
X102135938Y-57493284D01*
X102108360Y-57496000D01*
X101599640Y-57496000D01*
X101572062Y-57493284D01*
X101551443Y-57487029D01*
X101532447Y-57476876D01*
X101515792Y-57463208D01*
X101502124Y-57446553D01*
X101491971Y-57427557D01*
X101485716Y-57406938D01*
X101483000Y-57379360D01*
X101483000Y-56920640D01*
X101485716Y-56893062D01*
X101491971Y-56872443D01*
X101502124Y-56853447D01*
X101515792Y-56836792D01*
X101532447Y-56823124D01*
X101551443Y-56812971D01*
X101572062Y-56806716D01*
X101599640Y-56804000D01*
X102108360Y-56804000D01*
X102135938Y-56806716D01*
G37*
G36*
X90366410Y-56385525D02*
G01*
X90451426Y-56411314D01*
X90529775Y-56453193D01*
X90598449Y-56509551D01*
X90654807Y-56578225D01*
X90696686Y-56656574D01*
X90722475Y-56741590D01*
X90731182Y-56830000D01*
X90722475Y-56918410D01*
X90696686Y-57003426D01*
X90654807Y-57081775D01*
X90598449Y-57150449D01*
X90529775Y-57206807D01*
X90451426Y-57248686D01*
X90366410Y-57274475D01*
X90300158Y-57281000D01*
X89655842Y-57281000D01*
X89589590Y-57274475D01*
X89504574Y-57248686D01*
X89426225Y-57206807D01*
X89357551Y-57150449D01*
X89301193Y-57081775D01*
X89259314Y-57003426D01*
X89233525Y-56918410D01*
X89224818Y-56830000D01*
X89233525Y-56741590D01*
X89259314Y-56656574D01*
X89301193Y-56578225D01*
X89357551Y-56509551D01*
X89426225Y-56453193D01*
X89504574Y-56411314D01*
X89589590Y-56385525D01*
X89655842Y-56379000D01*
X90300158Y-56379000D01*
X90366410Y-56385525D01*
G37*
G36*
X84416410Y-56025525D02*
G01*
X84501426Y-56051314D01*
X84579775Y-56093193D01*
X84648449Y-56149551D01*
X84704807Y-56218225D01*
X84746686Y-56296574D01*
X84772475Y-56381590D01*
X84781182Y-56470000D01*
X84772475Y-56558410D01*
X84746686Y-56643426D01*
X84704807Y-56721775D01*
X84648449Y-56790449D01*
X84579775Y-56846807D01*
X84501426Y-56888686D01*
X84416410Y-56914475D01*
X84350158Y-56921000D01*
X83705842Y-56921000D01*
X83639590Y-56914475D01*
X83554574Y-56888686D01*
X83476225Y-56846807D01*
X83407551Y-56790449D01*
X83351193Y-56721775D01*
X83309314Y-56643426D01*
X83283525Y-56558410D01*
X83274818Y-56470000D01*
X83283525Y-56381590D01*
X83309314Y-56296574D01*
X83351193Y-56218225D01*
X83407551Y-56149551D01*
X83476225Y-56093193D01*
X83554574Y-56051314D01*
X83639590Y-56025525D01*
X83705842Y-56019000D01*
X84350158Y-56019000D01*
X84416410Y-56025525D01*
G37*
G36*
X107469938Y-55282716D02*
G01*
X107490557Y-55288971D01*
X107509553Y-55299124D01*
X107526208Y-55312792D01*
X107539876Y-55329447D01*
X107550029Y-55348443D01*
X107556284Y-55369062D01*
X107559000Y-55396640D01*
X107559000Y-55855360D01*
X107556284Y-55882938D01*
X107550029Y-55903557D01*
X107539876Y-55922553D01*
X107526208Y-55939208D01*
X107509553Y-55952876D01*
X107490557Y-55963029D01*
X107469938Y-55969284D01*
X107442360Y-55972000D01*
X106933640Y-55972000D01*
X106906062Y-55969284D01*
X106885443Y-55963029D01*
X106866447Y-55952876D01*
X106849792Y-55939208D01*
X106836124Y-55922553D01*
X106825971Y-55903557D01*
X106819716Y-55882938D01*
X106817000Y-55855360D01*
X106817000Y-55396640D01*
X106819716Y-55369062D01*
X106825971Y-55348443D01*
X106836124Y-55329447D01*
X106849792Y-55312792D01*
X106866447Y-55299124D01*
X106885443Y-55288971D01*
X106906062Y-55282716D01*
X106933640Y-55280000D01*
X107442360Y-55280000D01*
X107469938Y-55282716D01*
G37*
G36*
X112041938Y-55282716D02*
G01*
X112062557Y-55288971D01*
X112081553Y-55299124D01*
X112098208Y-55312792D01*
X112111876Y-55329447D01*
X112122029Y-55348443D01*
X112128284Y-55369062D01*
X112131000Y-55396640D01*
X112131000Y-55855360D01*
X112128284Y-55882938D01*
X112122029Y-55903557D01*
X112111876Y-55922553D01*
X112098208Y-55939208D01*
X112081553Y-55952876D01*
X112062557Y-55963029D01*
X112041938Y-55969284D01*
X112014360Y-55972000D01*
X111505640Y-55972000D01*
X111478062Y-55969284D01*
X111457443Y-55963029D01*
X111438447Y-55952876D01*
X111421792Y-55939208D01*
X111408124Y-55922553D01*
X111397971Y-55903557D01*
X111391716Y-55882938D01*
X111389000Y-55855360D01*
X111389000Y-55396640D01*
X111391716Y-55369062D01*
X111397971Y-55348443D01*
X111408124Y-55329447D01*
X111421792Y-55312792D01*
X111438447Y-55299124D01*
X111457443Y-55288971D01*
X111478062Y-55282716D01*
X111505640Y-55280000D01*
X112014360Y-55280000D01*
X112041938Y-55282716D01*
G37*
G36*
X110517938Y-55282716D02*
G01*
X110538557Y-55288971D01*
X110557553Y-55299124D01*
X110574208Y-55312792D01*
X110587876Y-55329447D01*
X110598029Y-55348443D01*
X110604284Y-55369062D01*
X110607000Y-55396640D01*
X110607000Y-55855360D01*
X110604284Y-55882938D01*
X110598029Y-55903557D01*
X110587876Y-55922553D01*
X110574208Y-55939208D01*
X110557553Y-55952876D01*
X110538557Y-55963029D01*
X110517938Y-55969284D01*
X110490360Y-55972000D01*
X109981640Y-55972000D01*
X109954062Y-55969284D01*
X109933443Y-55963029D01*
X109914447Y-55952876D01*
X109897792Y-55939208D01*
X109884124Y-55922553D01*
X109873971Y-55903557D01*
X109867716Y-55882938D01*
X109865000Y-55855360D01*
X109865000Y-55396640D01*
X109867716Y-55369062D01*
X109873971Y-55348443D01*
X109884124Y-55329447D01*
X109897792Y-55312792D01*
X109914447Y-55299124D01*
X109933443Y-55288971D01*
X109954062Y-55282716D01*
X109981640Y-55280000D01*
X110490360Y-55280000D01*
X110517938Y-55282716D01*
G37*
G36*
X108993938Y-55236716D02*
G01*
X109014557Y-55242971D01*
X109033553Y-55253124D01*
X109050208Y-55266792D01*
X109063876Y-55283447D01*
X109074029Y-55302443D01*
X109080284Y-55323062D01*
X109083000Y-55350640D01*
X109083000Y-55809360D01*
X109080284Y-55836938D01*
X109074029Y-55857557D01*
X109063876Y-55876553D01*
X109050208Y-55893208D01*
X109033553Y-55906876D01*
X109014557Y-55917029D01*
X108993938Y-55923284D01*
X108966360Y-55926000D01*
X108457640Y-55926000D01*
X108430062Y-55923284D01*
X108409443Y-55917029D01*
X108390447Y-55906876D01*
X108373792Y-55893208D01*
X108360124Y-55876553D01*
X108349971Y-55857557D01*
X108343716Y-55836938D01*
X108341000Y-55809360D01*
X108341000Y-55350640D01*
X108343716Y-55323062D01*
X108349971Y-55302443D01*
X108360124Y-55283447D01*
X108373792Y-55266792D01*
X108390447Y-55253124D01*
X108409443Y-55242971D01*
X108430062Y-55236716D01*
X108457640Y-55234000D01*
X108966360Y-55234000D01*
X108993938Y-55236716D01*
G37*
G36*
X110517938Y-54312716D02*
G01*
X110538557Y-54318971D01*
X110557553Y-54329124D01*
X110574208Y-54342792D01*
X110587876Y-54359447D01*
X110598029Y-54378443D01*
X110604284Y-54399062D01*
X110607000Y-54426640D01*
X110607000Y-54885360D01*
X110604284Y-54912938D01*
X110598029Y-54933557D01*
X110587876Y-54952553D01*
X110574208Y-54969208D01*
X110557553Y-54982876D01*
X110538557Y-54993029D01*
X110517938Y-54999284D01*
X110490360Y-55002000D01*
X109981640Y-55002000D01*
X109954062Y-54999284D01*
X109933443Y-54993029D01*
X109914447Y-54982876D01*
X109897792Y-54969208D01*
X109884124Y-54952553D01*
X109873971Y-54933557D01*
X109867716Y-54912938D01*
X109865000Y-54885360D01*
X109865000Y-54426640D01*
X109867716Y-54399062D01*
X109873971Y-54378443D01*
X109884124Y-54359447D01*
X109897792Y-54342792D01*
X109914447Y-54329124D01*
X109933443Y-54318971D01*
X109954062Y-54312716D01*
X109981640Y-54310000D01*
X110490360Y-54310000D01*
X110517938Y-54312716D01*
G37*
G36*
X112041938Y-54312716D02*
G01*
X112062557Y-54318971D01*
X112081553Y-54329124D01*
X112098208Y-54342792D01*
X112111876Y-54359447D01*
X112122029Y-54378443D01*
X112128284Y-54399062D01*
X112131000Y-54426640D01*
X112131000Y-54885360D01*
X112128284Y-54912938D01*
X112122029Y-54933557D01*
X112111876Y-54952553D01*
X112098208Y-54969208D01*
X112081553Y-54982876D01*
X112062557Y-54993029D01*
X112041938Y-54999284D01*
X112014360Y-55002000D01*
X111505640Y-55002000D01*
X111478062Y-54999284D01*
X111457443Y-54993029D01*
X111438447Y-54982876D01*
X111421792Y-54969208D01*
X111408124Y-54952553D01*
X111397971Y-54933557D01*
X111391716Y-54912938D01*
X111389000Y-54885360D01*
X111389000Y-54426640D01*
X111391716Y-54399062D01*
X111397971Y-54378443D01*
X111408124Y-54359447D01*
X111421792Y-54342792D01*
X111438447Y-54329124D01*
X111457443Y-54318971D01*
X111478062Y-54312716D01*
X111505640Y-54310000D01*
X112014360Y-54310000D01*
X112041938Y-54312716D01*
G37*
G36*
X107469938Y-54312716D02*
G01*
X107490557Y-54318971D01*
X107509553Y-54329124D01*
X107526208Y-54342792D01*
X107539876Y-54359447D01*
X107550029Y-54378443D01*
X107556284Y-54399062D01*
X107559000Y-54426640D01*
X107559000Y-54885360D01*
X107556284Y-54912938D01*
X107550029Y-54933557D01*
X107539876Y-54952553D01*
X107526208Y-54969208D01*
X107509553Y-54982876D01*
X107490557Y-54993029D01*
X107469938Y-54999284D01*
X107442360Y-55002000D01*
X106933640Y-55002000D01*
X106906062Y-54999284D01*
X106885443Y-54993029D01*
X106866447Y-54982876D01*
X106849792Y-54969208D01*
X106836124Y-54952553D01*
X106825971Y-54933557D01*
X106819716Y-54912938D01*
X106817000Y-54885360D01*
X106817000Y-54426640D01*
X106819716Y-54399062D01*
X106825971Y-54378443D01*
X106836124Y-54359447D01*
X106849792Y-54342792D01*
X106866447Y-54329124D01*
X106885443Y-54318971D01*
X106906062Y-54312716D01*
X106933640Y-54310000D01*
X107442360Y-54310000D01*
X107469938Y-54312716D01*
G37*
G36*
X108993938Y-54266716D02*
G01*
X109014557Y-54272971D01*
X109033553Y-54283124D01*
X109050208Y-54296792D01*
X109063876Y-54313447D01*
X109074029Y-54332443D01*
X109080284Y-54353062D01*
X109083000Y-54380640D01*
X109083000Y-54839360D01*
X109080284Y-54866938D01*
X109074029Y-54887557D01*
X109063876Y-54906553D01*
X109050208Y-54923208D01*
X109033553Y-54936876D01*
X109014557Y-54947029D01*
X108993938Y-54953284D01*
X108966360Y-54956000D01*
X108457640Y-54956000D01*
X108430062Y-54953284D01*
X108409443Y-54947029D01*
X108390447Y-54936876D01*
X108373792Y-54923208D01*
X108360124Y-54906553D01*
X108349971Y-54887557D01*
X108343716Y-54866938D01*
X108341000Y-54839360D01*
X108341000Y-54380640D01*
X108343716Y-54353062D01*
X108349971Y-54332443D01*
X108360124Y-54313447D01*
X108373792Y-54296792D01*
X108390447Y-54283124D01*
X108409443Y-54272971D01*
X108430062Y-54266716D01*
X108457640Y-54264000D01*
X108966360Y-54264000D01*
X108993938Y-54266716D01*
G37*
G36*
X110324091Y-52310085D02*
G01*
X110358069Y-52320393D01*
X110389390Y-52337134D01*
X110416839Y-52359661D01*
X110439366Y-52387110D01*
X110456107Y-52418431D01*
X110466415Y-52452409D01*
X110470500Y-52493890D01*
X110470500Y-53170110D01*
X110466415Y-53211591D01*
X110456107Y-53245569D01*
X110439366Y-53276890D01*
X110416839Y-53304339D01*
X110389390Y-53326866D01*
X110358069Y-53343607D01*
X110324091Y-53353915D01*
X110282610Y-53358000D01*
X109681390Y-53358000D01*
X109639909Y-53353915D01*
X109605931Y-53343607D01*
X109574610Y-53326866D01*
X109547161Y-53304339D01*
X109524634Y-53276890D01*
X109507893Y-53245569D01*
X109497585Y-53211591D01*
X109493500Y-53170110D01*
X109493500Y-52493890D01*
X109497585Y-52452409D01*
X109507893Y-52418431D01*
X109524634Y-52387110D01*
X109547161Y-52359661D01*
X109574610Y-52337134D01*
X109605931Y-52320393D01*
X109639909Y-52310085D01*
X109681390Y-52306000D01*
X110282610Y-52306000D01*
X110324091Y-52310085D01*
G37*
G36*
X111899091Y-52310085D02*
G01*
X111933069Y-52320393D01*
X111964390Y-52337134D01*
X111991839Y-52359661D01*
X112014366Y-52387110D01*
X112031107Y-52418431D01*
X112041415Y-52452409D01*
X112045500Y-52493890D01*
X112045500Y-53170110D01*
X112041415Y-53211591D01*
X112031107Y-53245569D01*
X112014366Y-53276890D01*
X111991839Y-53304339D01*
X111964390Y-53326866D01*
X111933069Y-53343607D01*
X111899091Y-53353915D01*
X111857610Y-53358000D01*
X111256390Y-53358000D01*
X111214909Y-53353915D01*
X111180931Y-53343607D01*
X111149610Y-53326866D01*
X111122161Y-53304339D01*
X111099634Y-53276890D01*
X111082893Y-53245569D01*
X111072585Y-53211591D01*
X111068500Y-53170110D01*
X111068500Y-52493890D01*
X111072585Y-52452409D01*
X111082893Y-52418431D01*
X111099634Y-52387110D01*
X111122161Y-52359661D01*
X111149610Y-52337134D01*
X111180931Y-52320393D01*
X111214909Y-52310085D01*
X111256390Y-52306000D01*
X111857610Y-52306000D01*
X111899091Y-52310085D01*
G37*
G36*
X91973938Y-51955716D02*
G01*
X91994557Y-51961971D01*
X92013553Y-51972124D01*
X92030208Y-51985792D01*
X92043876Y-52002447D01*
X92054029Y-52021443D01*
X92060284Y-52042062D01*
X92063000Y-52069640D01*
X92063000Y-52578360D01*
X92060284Y-52605938D01*
X92054029Y-52626557D01*
X92043876Y-52645553D01*
X92030208Y-52662208D01*
X92013553Y-52675876D01*
X91994557Y-52686029D01*
X91973938Y-52692284D01*
X91946360Y-52695000D01*
X91487640Y-52695000D01*
X91460062Y-52692284D01*
X91439443Y-52686029D01*
X91420447Y-52675876D01*
X91403792Y-52662208D01*
X91390124Y-52645553D01*
X91379971Y-52626557D01*
X91373716Y-52605938D01*
X91371000Y-52578360D01*
X91371000Y-52069640D01*
X91373716Y-52042062D01*
X91379971Y-52021443D01*
X91390124Y-52002447D01*
X91403792Y-51985792D01*
X91420447Y-51972124D01*
X91439443Y-51961971D01*
X91460062Y-51955716D01*
X91487640Y-51953000D01*
X91946360Y-51953000D01*
X91973938Y-51955716D01*
G37*
G36*
X88394938Y-51955716D02*
G01*
X88415557Y-51961971D01*
X88434553Y-51972124D01*
X88451208Y-51985792D01*
X88464876Y-52002447D01*
X88475029Y-52021443D01*
X88481284Y-52042062D01*
X88484000Y-52069640D01*
X88484000Y-52578360D01*
X88481284Y-52605938D01*
X88475029Y-52626557D01*
X88464876Y-52645553D01*
X88451208Y-52662208D01*
X88434553Y-52675876D01*
X88415557Y-52686029D01*
X88394938Y-52692284D01*
X88367360Y-52695000D01*
X87908640Y-52695000D01*
X87881062Y-52692284D01*
X87860443Y-52686029D01*
X87841447Y-52675876D01*
X87824792Y-52662208D01*
X87811124Y-52645553D01*
X87800971Y-52626557D01*
X87794716Y-52605938D01*
X87792000Y-52578360D01*
X87792000Y-52069640D01*
X87794716Y-52042062D01*
X87800971Y-52021443D01*
X87811124Y-52002447D01*
X87824792Y-51985792D01*
X87841447Y-51972124D01*
X87860443Y-51961971D01*
X87881062Y-51955716D01*
X87908640Y-51953000D01*
X88367360Y-51953000D01*
X88394938Y-51955716D01*
G37*
G36*
X89364938Y-51955716D02*
G01*
X89385557Y-51961971D01*
X89404553Y-51972124D01*
X89421208Y-51985792D01*
X89434876Y-52002447D01*
X89445029Y-52021443D01*
X89451284Y-52042062D01*
X89454000Y-52069640D01*
X89454000Y-52578360D01*
X89451284Y-52605938D01*
X89445029Y-52626557D01*
X89434876Y-52645553D01*
X89421208Y-52662208D01*
X89404553Y-52675876D01*
X89385557Y-52686029D01*
X89364938Y-52692284D01*
X89337360Y-52695000D01*
X88878640Y-52695000D01*
X88851062Y-52692284D01*
X88830443Y-52686029D01*
X88811447Y-52675876D01*
X88794792Y-52662208D01*
X88781124Y-52645553D01*
X88770971Y-52626557D01*
X88764716Y-52605938D01*
X88762000Y-52578360D01*
X88762000Y-52069640D01*
X88764716Y-52042062D01*
X88770971Y-52021443D01*
X88781124Y-52002447D01*
X88794792Y-51985792D01*
X88811447Y-51972124D01*
X88830443Y-51961971D01*
X88851062Y-51955716D01*
X88878640Y-51953000D01*
X89337360Y-51953000D01*
X89364938Y-51955716D01*
G37*
G36*
X92943938Y-51955716D02*
G01*
X92964557Y-51961971D01*
X92983553Y-51972124D01*
X93000208Y-51985792D01*
X93013876Y-52002447D01*
X93024029Y-52021443D01*
X93030284Y-52042062D01*
X93033000Y-52069640D01*
X93033000Y-52578360D01*
X93030284Y-52605938D01*
X93024029Y-52626557D01*
X93013876Y-52645553D01*
X93000208Y-52662208D01*
X92983553Y-52675876D01*
X92964557Y-52686029D01*
X92943938Y-52692284D01*
X92916360Y-52695000D01*
X92457640Y-52695000D01*
X92430062Y-52692284D01*
X92409443Y-52686029D01*
X92390447Y-52675876D01*
X92373792Y-52662208D01*
X92360124Y-52645553D01*
X92349971Y-52626557D01*
X92343716Y-52605938D01*
X92341000Y-52578360D01*
X92341000Y-52069640D01*
X92343716Y-52042062D01*
X92349971Y-52021443D01*
X92360124Y-52002447D01*
X92373792Y-51985792D01*
X92390447Y-51972124D01*
X92409443Y-51961971D01*
X92430062Y-51955716D01*
X92457640Y-51953000D01*
X92916360Y-51953000D01*
X92943938Y-51955716D01*
G37*
G36*
X101119938Y-50710716D02*
G01*
X101140557Y-50716971D01*
X101159553Y-50727124D01*
X101176208Y-50740792D01*
X101189876Y-50757447D01*
X101200029Y-50776443D01*
X101206284Y-50797062D01*
X101209000Y-50824640D01*
X101209000Y-51283360D01*
X101206284Y-51310938D01*
X101200029Y-51331557D01*
X101189876Y-51350553D01*
X101176208Y-51367208D01*
X101159553Y-51380876D01*
X101140557Y-51391029D01*
X101119938Y-51397284D01*
X101092360Y-51400000D01*
X100583640Y-51400000D01*
X100556062Y-51397284D01*
X100535443Y-51391029D01*
X100516447Y-51380876D01*
X100499792Y-51367208D01*
X100486124Y-51350553D01*
X100475971Y-51331557D01*
X100469716Y-51310938D01*
X100467000Y-51283360D01*
X100467000Y-50824640D01*
X100469716Y-50797062D01*
X100475971Y-50776443D01*
X100486124Y-50757447D01*
X100499792Y-50740792D01*
X100516447Y-50727124D01*
X100535443Y-50716971D01*
X100556062Y-50710716D01*
X100583640Y-50708000D01*
X101092360Y-50708000D01*
X101119938Y-50710716D01*
G37*
G36*
X110324091Y-50278085D02*
G01*
X110358069Y-50288393D01*
X110389390Y-50305134D01*
X110416839Y-50327661D01*
X110439366Y-50355110D01*
X110456107Y-50386431D01*
X110466415Y-50420409D01*
X110470500Y-50461890D01*
X110470500Y-51138110D01*
X110466415Y-51179591D01*
X110456107Y-51213569D01*
X110439366Y-51244890D01*
X110416839Y-51272339D01*
X110389390Y-51294866D01*
X110358069Y-51311607D01*
X110324091Y-51321915D01*
X110282610Y-51326000D01*
X109681390Y-51326000D01*
X109639909Y-51321915D01*
X109605931Y-51311607D01*
X109574610Y-51294866D01*
X109547161Y-51272339D01*
X109524634Y-51244890D01*
X109507893Y-51213569D01*
X109497585Y-51179591D01*
X109493500Y-51138110D01*
X109493500Y-50461890D01*
X109497585Y-50420409D01*
X109507893Y-50386431D01*
X109524634Y-50355110D01*
X109547161Y-50327661D01*
X109574610Y-50305134D01*
X109605931Y-50288393D01*
X109639909Y-50278085D01*
X109681390Y-50274000D01*
X110282610Y-50274000D01*
X110324091Y-50278085D01*
G37*
G36*
X111899091Y-50278085D02*
G01*
X111933069Y-50288393D01*
X111964390Y-50305134D01*
X111991839Y-50327661D01*
X112014366Y-50355110D01*
X112031107Y-50386431D01*
X112041415Y-50420409D01*
X112045500Y-50461890D01*
X112045500Y-51138110D01*
X112041415Y-51179591D01*
X112031107Y-51213569D01*
X112014366Y-51244890D01*
X111991839Y-51272339D01*
X111964390Y-51294866D01*
X111933069Y-51311607D01*
X111899091Y-51321915D01*
X111857610Y-51326000D01*
X111256390Y-51326000D01*
X111214909Y-51321915D01*
X111180931Y-51311607D01*
X111149610Y-51294866D01*
X111122161Y-51272339D01*
X111099634Y-51244890D01*
X111082893Y-51213569D01*
X111072585Y-51179591D01*
X111068500Y-51138110D01*
X111068500Y-50461890D01*
X111072585Y-50420409D01*
X111082893Y-50386431D01*
X111099634Y-50355110D01*
X111122161Y-50327661D01*
X111149610Y-50305134D01*
X111180931Y-50288393D01*
X111214909Y-50278085D01*
X111256390Y-50274000D01*
X111857610Y-50274000D01*
X111899091Y-50278085D01*
G37*
G36*
X101119938Y-49740716D02*
G01*
X101140557Y-49746971D01*
X101159553Y-49757124D01*
X101176208Y-49770792D01*
X101189876Y-49787447D01*
X101200029Y-49806443D01*
X101206284Y-49827062D01*
X101209000Y-49854640D01*
X101209000Y-50313360D01*
X101206284Y-50340938D01*
X101200029Y-50361557D01*
X101189876Y-50380553D01*
X101176208Y-50397208D01*
X101159553Y-50410876D01*
X101140557Y-50421029D01*
X101119938Y-50427284D01*
X101092360Y-50430000D01*
X100583640Y-50430000D01*
X100556062Y-50427284D01*
X100535443Y-50421029D01*
X100516447Y-50410876D01*
X100499792Y-50397208D01*
X100486124Y-50380553D01*
X100475971Y-50361557D01*
X100469716Y-50340938D01*
X100467000Y-50313360D01*
X100467000Y-49854640D01*
X100469716Y-49827062D01*
X100475971Y-49806443D01*
X100486124Y-49787447D01*
X100499792Y-49770792D01*
X100516447Y-49757124D01*
X100535443Y-49746971D01*
X100556062Y-49740716D01*
X100583640Y-49738000D01*
X101092360Y-49738000D01*
X101119938Y-49740716D01*
G37*
G36*
X103080938Y-49415716D02*
G01*
X103101557Y-49421971D01*
X103120553Y-49432124D01*
X103137208Y-49445792D01*
X103150876Y-49462447D01*
X103161029Y-49481443D01*
X103167284Y-49502062D01*
X103170000Y-49529640D01*
X103170000Y-50038360D01*
X103167284Y-50065938D01*
X103161029Y-50086557D01*
X103150876Y-50105553D01*
X103137208Y-50122208D01*
X103120553Y-50135876D01*
X103101557Y-50146029D01*
X103080938Y-50152284D01*
X103053360Y-50155000D01*
X102594640Y-50155000D01*
X102567062Y-50152284D01*
X102546443Y-50146029D01*
X102527447Y-50135876D01*
X102510792Y-50122208D01*
X102497124Y-50105553D01*
X102486971Y-50086557D01*
X102480716Y-50065938D01*
X102478000Y-50038360D01*
X102478000Y-49529640D01*
X102480716Y-49502062D01*
X102486971Y-49481443D01*
X102497124Y-49462447D01*
X102510792Y-49445792D01*
X102527447Y-49432124D01*
X102546443Y-49421971D01*
X102567062Y-49415716D01*
X102594640Y-49413000D01*
X103053360Y-49413000D01*
X103080938Y-49415716D01*
G37*
G36*
X102110938Y-49415716D02*
G01*
X102131557Y-49421971D01*
X102150553Y-49432124D01*
X102167208Y-49445792D01*
X102180876Y-49462447D01*
X102191029Y-49481443D01*
X102197284Y-49502062D01*
X102200000Y-49529640D01*
X102200000Y-50038360D01*
X102197284Y-50065938D01*
X102191029Y-50086557D01*
X102180876Y-50105553D01*
X102167208Y-50122208D01*
X102150553Y-50135876D01*
X102131557Y-50146029D01*
X102110938Y-50152284D01*
X102083360Y-50155000D01*
X101624640Y-50155000D01*
X101597062Y-50152284D01*
X101576443Y-50146029D01*
X101557447Y-50135876D01*
X101540792Y-50122208D01*
X101527124Y-50105553D01*
X101516971Y-50086557D01*
X101510716Y-50065938D01*
X101508000Y-50038360D01*
X101508000Y-49529640D01*
X101510716Y-49502062D01*
X101516971Y-49481443D01*
X101527124Y-49462447D01*
X101540792Y-49445792D01*
X101557447Y-49432124D01*
X101576443Y-49421971D01*
X101597062Y-49415716D01*
X101624640Y-49413000D01*
X102083360Y-49413000D01*
X102110938Y-49415716D01*
G37*
G36*
X111899091Y-48246085D02*
G01*
X111933069Y-48256393D01*
X111964390Y-48273134D01*
X111991839Y-48295661D01*
X112014366Y-48323110D01*
X112031107Y-48354431D01*
X112041415Y-48388409D01*
X112045500Y-48429890D01*
X112045500Y-49106110D01*
X112041415Y-49147591D01*
X112031107Y-49181569D01*
X112014366Y-49212890D01*
X111991839Y-49240339D01*
X111964390Y-49262866D01*
X111933069Y-49279607D01*
X111899091Y-49289915D01*
X111857610Y-49294000D01*
X111256390Y-49294000D01*
X111214909Y-49289915D01*
X111180931Y-49279607D01*
X111149610Y-49262866D01*
X111122161Y-49240339D01*
X111099634Y-49212890D01*
X111082893Y-49181569D01*
X111072585Y-49147591D01*
X111068500Y-49106110D01*
X111068500Y-48429890D01*
X111072585Y-48388409D01*
X111082893Y-48354431D01*
X111099634Y-48323110D01*
X111122161Y-48295661D01*
X111149610Y-48273134D01*
X111180931Y-48256393D01*
X111214909Y-48246085D01*
X111256390Y-48242000D01*
X111857610Y-48242000D01*
X111899091Y-48246085D01*
G37*
G36*
X110324091Y-48246085D02*
G01*
X110358069Y-48256393D01*
X110389390Y-48273134D01*
X110416839Y-48295661D01*
X110439366Y-48323110D01*
X110456107Y-48354431D01*
X110466415Y-48388409D01*
X110470500Y-48429890D01*
X110470500Y-49106110D01*
X110466415Y-49147591D01*
X110456107Y-49181569D01*
X110439366Y-49212890D01*
X110416839Y-49240339D01*
X110389390Y-49262866D01*
X110358069Y-49279607D01*
X110324091Y-49289915D01*
X110282610Y-49294000D01*
X109681390Y-49294000D01*
X109639909Y-49289915D01*
X109605931Y-49279607D01*
X109574610Y-49262866D01*
X109547161Y-49240339D01*
X109524634Y-49212890D01*
X109507893Y-49181569D01*
X109497585Y-49147591D01*
X109493500Y-49106110D01*
X109493500Y-48429890D01*
X109497585Y-48388409D01*
X109507893Y-48354431D01*
X109524634Y-48323110D01*
X109547161Y-48295661D01*
X109574610Y-48273134D01*
X109605931Y-48256393D01*
X109639909Y-48246085D01*
X109681390Y-48242000D01*
X110282610Y-48242000D01*
X110324091Y-48246085D01*
G37*
G36*
X102156938Y-48145716D02*
G01*
X102177557Y-48151971D01*
X102196553Y-48162124D01*
X102213208Y-48175792D01*
X102226876Y-48192447D01*
X102237029Y-48211443D01*
X102243284Y-48232062D01*
X102246000Y-48259640D01*
X102246000Y-48768360D01*
X102243284Y-48795938D01*
X102237029Y-48816557D01*
X102226876Y-48835553D01*
X102213208Y-48852208D01*
X102196553Y-48865876D01*
X102177557Y-48876029D01*
X102156938Y-48882284D01*
X102129360Y-48885000D01*
X101670640Y-48885000D01*
X101643062Y-48882284D01*
X101622443Y-48876029D01*
X101603447Y-48865876D01*
X101586792Y-48852208D01*
X101573124Y-48835553D01*
X101562971Y-48816557D01*
X101556716Y-48795938D01*
X101554000Y-48768360D01*
X101554000Y-48259640D01*
X101556716Y-48232062D01*
X101562971Y-48211443D01*
X101573124Y-48192447D01*
X101586792Y-48175792D01*
X101603447Y-48162124D01*
X101622443Y-48151971D01*
X101643062Y-48145716D01*
X101670640Y-48143000D01*
X102129360Y-48143000D01*
X102156938Y-48145716D01*
G37*
G36*
X103126938Y-48145716D02*
G01*
X103147557Y-48151971D01*
X103166553Y-48162124D01*
X103183208Y-48175792D01*
X103196876Y-48192447D01*
X103207029Y-48211443D01*
X103213284Y-48232062D01*
X103216000Y-48259640D01*
X103216000Y-48768360D01*
X103213284Y-48795938D01*
X103207029Y-48816557D01*
X103196876Y-48835553D01*
X103183208Y-48852208D01*
X103166553Y-48865876D01*
X103147557Y-48876029D01*
X103126938Y-48882284D01*
X103099360Y-48885000D01*
X102640640Y-48885000D01*
X102613062Y-48882284D01*
X102592443Y-48876029D01*
X102573447Y-48865876D01*
X102556792Y-48852208D01*
X102543124Y-48835553D01*
X102532971Y-48816557D01*
X102526716Y-48795938D01*
X102524000Y-48768360D01*
X102524000Y-48259640D01*
X102526716Y-48232062D01*
X102532971Y-48211443D01*
X102543124Y-48192447D01*
X102556792Y-48175792D01*
X102573447Y-48162124D01*
X102592443Y-48151971D01*
X102613062Y-48145716D01*
X102640640Y-48143000D01*
X103099360Y-48143000D01*
X103126938Y-48145716D01*
G37*
G36*
X102156938Y-46875716D02*
G01*
X102177557Y-46881971D01*
X102196553Y-46892124D01*
X102213208Y-46905792D01*
X102226876Y-46922447D01*
X102237029Y-46941443D01*
X102243284Y-46962062D01*
X102246000Y-46989640D01*
X102246000Y-47498360D01*
X102243284Y-47525938D01*
X102237029Y-47546557D01*
X102226876Y-47565553D01*
X102213208Y-47582208D01*
X102196553Y-47595876D01*
X102177557Y-47606029D01*
X102156938Y-47612284D01*
X102129360Y-47615000D01*
X101670640Y-47615000D01*
X101643062Y-47612284D01*
X101622443Y-47606029D01*
X101603447Y-47595876D01*
X101586792Y-47582208D01*
X101573124Y-47565553D01*
X101562971Y-47546557D01*
X101556716Y-47525938D01*
X101554000Y-47498360D01*
X101554000Y-46989640D01*
X101556716Y-46962062D01*
X101562971Y-46941443D01*
X101573124Y-46922447D01*
X101586792Y-46905792D01*
X101603447Y-46892124D01*
X101622443Y-46881971D01*
X101643062Y-46875716D01*
X101670640Y-46873000D01*
X102129360Y-46873000D01*
X102156938Y-46875716D01*
G37*
G36*
X103126938Y-46875716D02*
G01*
X103147557Y-46881971D01*
X103166553Y-46892124D01*
X103183208Y-46905792D01*
X103196876Y-46922447D01*
X103207029Y-46941443D01*
X103213284Y-46962062D01*
X103216000Y-46989640D01*
X103216000Y-47498360D01*
X103213284Y-47525938D01*
X103207029Y-47546557D01*
X103196876Y-47565553D01*
X103183208Y-47582208D01*
X103166553Y-47595876D01*
X103147557Y-47606029D01*
X103126938Y-47612284D01*
X103099360Y-47615000D01*
X102640640Y-47615000D01*
X102613062Y-47612284D01*
X102592443Y-47606029D01*
X102573447Y-47595876D01*
X102556792Y-47582208D01*
X102543124Y-47565553D01*
X102532971Y-47546557D01*
X102526716Y-47525938D01*
X102524000Y-47498360D01*
X102524000Y-46989640D01*
X102526716Y-46962062D01*
X102532971Y-46941443D01*
X102543124Y-46922447D01*
X102556792Y-46905792D01*
X102573447Y-46892124D01*
X102592443Y-46881971D01*
X102613062Y-46875716D01*
X102640640Y-46873000D01*
X103099360Y-46873000D01*
X103126938Y-46875716D01*
G37*
M02*
