G04 #@! TF.GenerationSoftware,KiCad,Pcbnew,5.1.5-52549c5~84~ubuntu18.04.1*
G04 #@! TF.CreationDate,2020-01-11T02:19:33-08:00*
G04 #@! TF.ProjectId,Programmer,50726f67-7261-46d6-9d65-722e6b696361,rev?*
G04 #@! TF.SameCoordinates,Original*
G04 #@! TF.FileFunction,Legend,Top*
G04 #@! TF.FilePolarity,Positive*
%FSLAX46Y46*%
G04 Gerber Fmt 4.6, Leading zero omitted, Abs format (unit mm)*
G04 Created by KiCad (PCBNEW 5.1.5-52549c5~84~ubuntu18.04.1) date 2020-01-11 02:19:33*
%MOMM*%
%LPD*%
G04 APERTURE LIST*
%ADD10C,0.150000*%
%ADD11C,0.100000*%
%ADD12C,0.050000*%
%ADD13C,0.120000*%
G04 APERTURE END LIST*
D10*
X86860000Y-67310095D02*
X86907619Y-67214857D01*
X86907619Y-67072000D01*
X86860000Y-66929142D01*
X86764761Y-66833904D01*
X86669523Y-66786285D01*
X86479047Y-66738666D01*
X86336190Y-66738666D01*
X86145714Y-66786285D01*
X86050476Y-66833904D01*
X85955238Y-66929142D01*
X85907619Y-67072000D01*
X85907619Y-67167238D01*
X85955238Y-67310095D01*
X86002857Y-67357714D01*
X86336190Y-67357714D01*
X86336190Y-67167238D01*
X85907619Y-67786285D02*
X86907619Y-67786285D01*
X85907619Y-68357714D01*
X86907619Y-68357714D01*
X85907619Y-68833904D02*
X86907619Y-68833904D01*
X86907619Y-69072000D01*
X86860000Y-69214857D01*
X86764761Y-69310095D01*
X86669523Y-69357714D01*
X86479047Y-69405333D01*
X86336190Y-69405333D01*
X86145714Y-69357714D01*
X86050476Y-69310095D01*
X85955238Y-69214857D01*
X85907619Y-69072000D01*
X85907619Y-68833904D01*
D11*
X97003238Y-70427904D02*
X97460380Y-70427904D01*
X97231809Y-71227904D02*
X97231809Y-70427904D01*
X98184190Y-71151714D02*
X98146095Y-71189809D01*
X98031809Y-71227904D01*
X97955619Y-71227904D01*
X97841333Y-71189809D01*
X97765142Y-71113619D01*
X97727047Y-71037428D01*
X97688952Y-70885047D01*
X97688952Y-70770761D01*
X97727047Y-70618380D01*
X97765142Y-70542190D01*
X97841333Y-70466000D01*
X97955619Y-70427904D01*
X98031809Y-70427904D01*
X98146095Y-70466000D01*
X98184190Y-70504095D01*
X98527047Y-71227904D02*
X98527047Y-70427904D01*
X98984190Y-71227904D02*
X98641333Y-70770761D01*
X98984190Y-70427904D02*
X98527047Y-70885047D01*
X99822285Y-70427904D02*
X100279428Y-70427904D01*
X100050857Y-71227904D02*
X100050857Y-70427904D01*
X100546095Y-71227904D02*
X100546095Y-70427904D01*
X100736571Y-70427904D01*
X100850857Y-70466000D01*
X100927047Y-70542190D01*
X100965142Y-70618380D01*
X101003238Y-70770761D01*
X101003238Y-70885047D01*
X100965142Y-71037428D01*
X100927047Y-71113619D01*
X100850857Y-71189809D01*
X100736571Y-71227904D01*
X100546095Y-71227904D01*
X101346095Y-71227904D02*
X101346095Y-70427904D01*
X102222285Y-70427904D02*
X102679428Y-70427904D01*
X102450857Y-71227904D02*
X102450857Y-70427904D01*
X102946095Y-71227904D02*
X102946095Y-70427904D01*
X103136571Y-70427904D01*
X103250857Y-70466000D01*
X103327047Y-70542190D01*
X103365142Y-70618380D01*
X103403238Y-70770761D01*
X103403238Y-70885047D01*
X103365142Y-71037428D01*
X103327047Y-71113619D01*
X103250857Y-71189809D01*
X103136571Y-71227904D01*
X102946095Y-71227904D01*
X103898476Y-70427904D02*
X104050857Y-70427904D01*
X104127047Y-70466000D01*
X104203238Y-70542190D01*
X104241333Y-70694571D01*
X104241333Y-70961238D01*
X104203238Y-71113619D01*
X104127047Y-71189809D01*
X104050857Y-71227904D01*
X103898476Y-71227904D01*
X103822285Y-71189809D01*
X103746095Y-71113619D01*
X103708000Y-70961238D01*
X103708000Y-70694571D01*
X103746095Y-70542190D01*
X103822285Y-70466000D01*
X103898476Y-70427904D01*
X105079428Y-70427904D02*
X105536571Y-70427904D01*
X105308000Y-71227904D02*
X105308000Y-70427904D01*
X105803238Y-71227904D02*
X105803238Y-70427904D01*
X106069904Y-70999333D01*
X106336571Y-70427904D01*
X106336571Y-71227904D01*
X106679428Y-71189809D02*
X106793714Y-71227904D01*
X106984190Y-71227904D01*
X107060380Y-71189809D01*
X107098476Y-71151714D01*
X107136571Y-71075523D01*
X107136571Y-70999333D01*
X107098476Y-70923142D01*
X107060380Y-70885047D01*
X106984190Y-70846952D01*
X106831809Y-70808857D01*
X106755619Y-70770761D01*
X106717523Y-70732666D01*
X106679428Y-70656476D01*
X106679428Y-70580285D01*
X106717523Y-70504095D01*
X106755619Y-70466000D01*
X106831809Y-70427904D01*
X107022285Y-70427904D01*
X107136571Y-70466000D01*
D10*
X112680761Y-58872380D02*
X112347428Y-58396190D01*
X112109333Y-58872380D02*
X112109333Y-57872380D01*
X112490285Y-57872380D01*
X112585523Y-57920000D01*
X112633142Y-57967619D01*
X112680761Y-58062857D01*
X112680761Y-58205714D01*
X112633142Y-58300952D01*
X112585523Y-58348571D01*
X112490285Y-58396190D01*
X112109333Y-58396190D01*
X113014095Y-58872380D02*
X113537904Y-58205714D01*
X113014095Y-58205714D02*
X113537904Y-58872380D01*
X112085523Y-64984380D02*
X112656952Y-64984380D01*
X112371238Y-65984380D02*
X112371238Y-64984380D01*
X112895047Y-65984380D02*
X113418857Y-65317714D01*
X112895047Y-65317714D02*
X113418857Y-65984380D01*
D12*
X115062000Y-75692000D02*
X81280000Y-75692000D01*
X115062000Y-44958000D02*
X115062000Y-75692000D01*
X81280000Y-44958000D02*
X115062000Y-44958000D01*
X81280000Y-75692000D02*
X81280000Y-44958000D01*
D13*
X85404000Y-72958000D02*
X84074000Y-72958000D01*
X85404000Y-71628000D02*
X85404000Y-72958000D01*
X85404000Y-70358000D02*
X82744000Y-70358000D01*
X82744000Y-70358000D02*
X82744000Y-67758000D01*
X85404000Y-70358000D02*
X85404000Y-67758000D01*
X85404000Y-67758000D02*
X82744000Y-67758000D01*
X83724000Y-54874000D02*
X96324000Y-54874000D01*
X83724000Y-49774000D02*
X83724000Y-54874000D01*
X96324000Y-49774000D02*
X83724000Y-49774000D01*
X96490000Y-56800000D02*
X95150000Y-56800000D01*
X96490000Y-55850000D02*
X96490000Y-56800000D01*
X97440000Y-55850000D02*
X96490000Y-55850000D01*
X106710000Y-55850000D02*
X106710000Y-56800000D01*
X105760000Y-55850000D02*
X106710000Y-55850000D01*
X96490000Y-66070000D02*
X96490000Y-65120000D01*
X97440000Y-66070000D02*
X96490000Y-66070000D01*
X106710000Y-66070000D02*
X106710000Y-65120000D01*
X105760000Y-66070000D02*
X106710000Y-66070000D01*
X94836000Y-66868000D02*
X94836000Y-72878000D01*
X88016000Y-69118000D02*
X88016000Y-72878000D01*
X94836000Y-72878000D02*
X93576000Y-72878000D01*
X88016000Y-72878000D02*
X89276000Y-72878000D01*
X103886000Y-46716000D02*
X100436000Y-46716000D01*
X103886000Y-46716000D02*
X105836000Y-46716000D01*
X103886000Y-51836000D02*
X101936000Y-51836000D01*
X103886000Y-51836000D02*
X105836000Y-51836000D01*
X114106000Y-64576000D02*
X112776000Y-64576000D01*
X114106000Y-63246000D02*
X114106000Y-64576000D01*
X114106000Y-61976000D02*
X111446000Y-61976000D01*
X111446000Y-61976000D02*
X111446000Y-59376000D01*
X114106000Y-61976000D02*
X114106000Y-59376000D01*
X114106000Y-59376000D02*
X111446000Y-59376000D01*
X96968000Y-74228000D02*
X96968000Y-72898000D01*
X98298000Y-74228000D02*
X96968000Y-74228000D01*
X99568000Y-74228000D02*
X99568000Y-71568000D01*
X99568000Y-71568000D02*
X107248000Y-71568000D01*
X99568000Y-74228000D02*
X107248000Y-74228000D01*
X107248000Y-74228000D02*
X107248000Y-71568000D01*
X92238000Y-56210000D02*
X92238000Y-57710000D01*
X92238000Y-56210000D02*
X84978000Y-56210000D01*
X92238000Y-65710000D02*
X84978000Y-65710000D01*
X92238000Y-64210000D02*
X92238000Y-65710000D01*
X108980500Y-52268000D02*
X111665500Y-52268000D01*
X108980500Y-50348000D02*
X108980500Y-52268000D01*
X111665500Y-50348000D02*
X108980500Y-50348000D01*
X109059000Y-49728000D02*
X111744000Y-49728000D01*
X109059000Y-47808000D02*
X109059000Y-49728000D01*
X111744000Y-47808000D02*
X109059000Y-47808000D01*
X107867500Y-54554000D02*
X110552500Y-54554000D01*
X107867500Y-52634000D02*
X107867500Y-54554000D01*
X110552500Y-52634000D02*
X107867500Y-52634000D01*
D10*
X89947809Y-48750190D02*
X89947809Y-49226380D01*
X89614476Y-48226380D02*
X89947809Y-48750190D01*
X90281142Y-48226380D01*
X91138285Y-49226380D02*
X90566857Y-49226380D01*
X90852571Y-49226380D02*
X90852571Y-48226380D01*
X90757333Y-48369238D01*
X90662095Y-48464476D01*
X90566857Y-48512095D01*
X100838095Y-53012380D02*
X100838095Y-53821904D01*
X100885714Y-53917142D01*
X100933333Y-53964761D01*
X101028571Y-54012380D01*
X101219047Y-54012380D01*
X101314285Y-53964761D01*
X101361904Y-53917142D01*
X101409523Y-53821904D01*
X101409523Y-53012380D01*
X102314285Y-53345714D02*
X102314285Y-54012380D01*
X102076190Y-52964761D02*
X101838095Y-53679047D01*
X102457142Y-53679047D01*
X95378380Y-71729904D02*
X96187904Y-71729904D01*
X96283142Y-71682285D01*
X96330761Y-71634666D01*
X96378380Y-71539428D01*
X96378380Y-71348952D01*
X96330761Y-71253714D01*
X96283142Y-71206095D01*
X96187904Y-71158476D01*
X95378380Y-71158476D01*
X95378380Y-70777523D02*
X95378380Y-70158476D01*
X95759333Y-70491809D01*
X95759333Y-70348952D01*
X95806952Y-70253714D01*
X95854571Y-70206095D01*
X95949809Y-70158476D01*
X96187904Y-70158476D01*
X96283142Y-70206095D01*
X96330761Y-70253714D01*
X96378380Y-70348952D01*
X96378380Y-70634666D01*
X96330761Y-70729904D01*
X96283142Y-70777523D01*
X103124095Y-45328380D02*
X103124095Y-46137904D01*
X103171714Y-46233142D01*
X103219333Y-46280761D01*
X103314571Y-46328380D01*
X103505047Y-46328380D01*
X103600285Y-46280761D01*
X103647904Y-46233142D01*
X103695523Y-46137904D01*
X103695523Y-45328380D01*
X104124095Y-45423619D02*
X104171714Y-45376000D01*
X104266952Y-45328380D01*
X104505047Y-45328380D01*
X104600285Y-45376000D01*
X104647904Y-45423619D01*
X104695523Y-45518857D01*
X104695523Y-45614095D01*
X104647904Y-45756952D01*
X104076476Y-46328380D01*
X104695523Y-46328380D01*
X95420380Y-73231333D02*
X96134666Y-73231333D01*
X96277523Y-73278952D01*
X96372761Y-73374190D01*
X96420380Y-73517047D01*
X96420380Y-73612285D01*
X95515619Y-72802761D02*
X95468000Y-72755142D01*
X95420380Y-72659904D01*
X95420380Y-72421809D01*
X95468000Y-72326571D01*
X95515619Y-72278952D01*
X95610857Y-72231333D01*
X95706095Y-72231333D01*
X95848952Y-72278952D01*
X96420380Y-72850380D01*
X96420380Y-72231333D01*
X92680380Y-61293333D02*
X93394666Y-61293333D01*
X93537523Y-61340952D01*
X93632761Y-61436190D01*
X93680380Y-61579047D01*
X93680380Y-61674285D01*
X93680380Y-60293333D02*
X93680380Y-60864761D01*
X93680380Y-60579047D02*
X92680380Y-60579047D01*
X92823238Y-60674285D01*
X92918476Y-60769523D01*
X92966095Y-60864761D01*
X109927404Y-50110380D02*
X109927404Y-49110380D01*
X110165500Y-49110380D01*
X110308357Y-49158000D01*
X110403595Y-49253238D01*
X110451214Y-49348476D01*
X110498833Y-49538952D01*
X110498833Y-49681809D01*
X110451214Y-49872285D01*
X110403595Y-49967523D01*
X110308357Y-50062761D01*
X110165500Y-50110380D01*
X109927404Y-50110380D01*
X110832166Y-49110380D02*
X111451214Y-49110380D01*
X111117880Y-49491333D01*
X111260738Y-49491333D01*
X111355976Y-49538952D01*
X111403595Y-49586571D01*
X111451214Y-49681809D01*
X111451214Y-49919904D01*
X111403595Y-50015142D01*
X111355976Y-50062761D01*
X111260738Y-50110380D01*
X110975023Y-50110380D01*
X110879785Y-50062761D01*
X110832166Y-50015142D01*
X110005904Y-47570380D02*
X110005904Y-46570380D01*
X110244000Y-46570380D01*
X110386857Y-46618000D01*
X110482095Y-46713238D01*
X110529714Y-46808476D01*
X110577333Y-46998952D01*
X110577333Y-47141809D01*
X110529714Y-47332285D01*
X110482095Y-47427523D01*
X110386857Y-47522761D01*
X110244000Y-47570380D01*
X110005904Y-47570380D01*
X110958285Y-46665619D02*
X111005904Y-46618000D01*
X111101142Y-46570380D01*
X111339238Y-46570380D01*
X111434476Y-46618000D01*
X111482095Y-46665619D01*
X111529714Y-46760857D01*
X111529714Y-46856095D01*
X111482095Y-46998952D01*
X110910666Y-47570380D01*
X111529714Y-47570380D01*
X108814404Y-52396380D02*
X108814404Y-51396380D01*
X109052500Y-51396380D01*
X109195357Y-51444000D01*
X109290595Y-51539238D01*
X109338214Y-51634476D01*
X109385833Y-51824952D01*
X109385833Y-51967809D01*
X109338214Y-52158285D01*
X109290595Y-52253523D01*
X109195357Y-52348761D01*
X109052500Y-52396380D01*
X108814404Y-52396380D01*
X110338214Y-52396380D02*
X109766785Y-52396380D01*
X110052500Y-52396380D02*
X110052500Y-51396380D01*
X109957261Y-51539238D01*
X109862023Y-51634476D01*
X109766785Y-51682095D01*
M02*
