G04 #@! TF.GenerationSoftware,KiCad,Pcbnew,5.1.5-52549c5~84~ubuntu18.04.1*
G04 #@! TF.CreationDate,2020-01-11T02:19:33-08:00*
G04 #@! TF.ProjectId,Programmer,50726f67-7261-46d6-9d65-722e6b696361,rev?*
G04 #@! TF.SameCoordinates,Original*
G04 #@! TF.FileFunction,Legend,Bot*
G04 #@! TF.FilePolarity,Positive*
%FSLAX46Y46*%
G04 Gerber Fmt 4.6, Leading zero omitted, Abs format (unit mm)*
G04 Created by KiCad (PCBNEW 5.1.5-52549c5~84~ubuntu18.04.1) date 2020-01-11 02:19:33*
%MOMM*%
%LPD*%
G04 APERTURE LIST*
%ADD10C,0.200000*%
%ADD11C,0.150000*%
%ADD12C,0.050000*%
%ADD13C,0.120000*%
G04 APERTURE END LIST*
D10*
X95634285Y-47181857D02*
X95420000Y-47253285D01*
X95348571Y-47324714D01*
X95277142Y-47467571D01*
X95277142Y-47681857D01*
X95348571Y-47824714D01*
X95420000Y-47896142D01*
X95562857Y-47967571D01*
X96134285Y-47967571D01*
X96134285Y-46467571D01*
X95634285Y-46467571D01*
X95491428Y-46539000D01*
X95420000Y-46610428D01*
X95348571Y-46753285D01*
X95348571Y-46896142D01*
X95420000Y-47039000D01*
X95491428Y-47110428D01*
X95634285Y-47181857D01*
X96134285Y-47181857D01*
X94634285Y-47967571D02*
X94634285Y-46967571D01*
X94634285Y-47253285D02*
X94562857Y-47110428D01*
X94491428Y-47039000D01*
X94348571Y-46967571D01*
X94205714Y-46967571D01*
X93705714Y-47967571D02*
X93705714Y-46967571D01*
X93705714Y-46467571D02*
X93777142Y-46539000D01*
X93705714Y-46610428D01*
X93634285Y-46539000D01*
X93705714Y-46467571D01*
X93705714Y-46610428D01*
X92348571Y-47967571D02*
X92348571Y-47181857D01*
X92420000Y-47039000D01*
X92562857Y-46967571D01*
X92848571Y-46967571D01*
X92991428Y-47039000D01*
X92348571Y-47896142D02*
X92491428Y-47967571D01*
X92848571Y-47967571D01*
X92991428Y-47896142D01*
X93062857Y-47753285D01*
X93062857Y-47610428D01*
X92991428Y-47467571D01*
X92848571Y-47396142D01*
X92491428Y-47396142D01*
X92348571Y-47324714D01*
X91634285Y-46967571D02*
X91634285Y-47967571D01*
X91634285Y-47110428D02*
X91562857Y-47039000D01*
X91420000Y-46967571D01*
X91205714Y-46967571D01*
X91062857Y-47039000D01*
X90991428Y-47181857D01*
X90991428Y-47967571D01*
X89134285Y-47967571D02*
X89134285Y-46467571D01*
X89134285Y-47181857D02*
X88277142Y-47181857D01*
X88277142Y-47967571D02*
X88277142Y-46467571D01*
X87348571Y-47967571D02*
X87491428Y-47896142D01*
X87562857Y-47824714D01*
X87634285Y-47681857D01*
X87634285Y-47253285D01*
X87562857Y-47110428D01*
X87491428Y-47039000D01*
X87348571Y-46967571D01*
X87134285Y-46967571D01*
X86991428Y-47039000D01*
X86920000Y-47110428D01*
X86848571Y-47253285D01*
X86848571Y-47681857D01*
X86920000Y-47824714D01*
X86991428Y-47896142D01*
X87134285Y-47967571D01*
X87348571Y-47967571D01*
X86205714Y-46967571D02*
X86205714Y-47967571D01*
X86205714Y-47110428D02*
X86134285Y-47039000D01*
X85991428Y-46967571D01*
X85777142Y-46967571D01*
X85634285Y-47039000D01*
X85562857Y-47181857D01*
X85562857Y-47967571D01*
X84205714Y-46967571D02*
X84205714Y-48181857D01*
X84277142Y-48324714D01*
X84348571Y-48396142D01*
X84491428Y-48467571D01*
X84705714Y-48467571D01*
X84848571Y-48396142D01*
X84205714Y-47896142D02*
X84348571Y-47967571D01*
X84634285Y-47967571D01*
X84777142Y-47896142D01*
X84848571Y-47824714D01*
X84920000Y-47681857D01*
X84920000Y-47253285D01*
X84848571Y-47110428D01*
X84777142Y-47039000D01*
X84634285Y-46967571D01*
X84348571Y-46967571D01*
X84205714Y-47039000D01*
X96562857Y-49703285D02*
X96634285Y-49631857D01*
X96777142Y-49560428D01*
X96920000Y-49560428D01*
X97062857Y-49631857D01*
X97134285Y-49703285D01*
X97205714Y-49846142D01*
X97205714Y-49989000D01*
X97134285Y-50131857D01*
X97062857Y-50203285D01*
X96920000Y-50274714D01*
X96777142Y-50274714D01*
X96634285Y-50203285D01*
X96562857Y-50131857D01*
X96562857Y-49560428D02*
X96562857Y-50131857D01*
X96491428Y-50203285D01*
X96420000Y-50203285D01*
X96277142Y-50131857D01*
X96205714Y-49989000D01*
X96205714Y-49631857D01*
X96348571Y-49417571D01*
X96562857Y-49274714D01*
X96848571Y-49203285D01*
X97134285Y-49274714D01*
X97348571Y-49417571D01*
X97491428Y-49631857D01*
X97562857Y-49917571D01*
X97491428Y-50203285D01*
X97348571Y-50417571D01*
X97134285Y-50560428D01*
X96848571Y-50631857D01*
X96562857Y-50560428D01*
X96348571Y-50417571D01*
X95562857Y-50417571D02*
X95562857Y-49417571D01*
X95562857Y-48917571D02*
X95634285Y-48989000D01*
X95562857Y-49060428D01*
X95491428Y-48989000D01*
X95562857Y-48917571D01*
X95562857Y-49060428D01*
X94848571Y-50417571D02*
X94848571Y-49417571D01*
X94848571Y-49560428D02*
X94777142Y-49489000D01*
X94634285Y-49417571D01*
X94420000Y-49417571D01*
X94277142Y-49489000D01*
X94205714Y-49631857D01*
X94205714Y-50417571D01*
X94205714Y-49631857D02*
X94134285Y-49489000D01*
X93991428Y-49417571D01*
X93777142Y-49417571D01*
X93634285Y-49489000D01*
X93562857Y-49631857D01*
X93562857Y-50417571D01*
X93205714Y-50560428D02*
X92062857Y-50560428D01*
X91134285Y-50346142D02*
X91277142Y-50417571D01*
X91562857Y-50417571D01*
X91705714Y-50346142D01*
X91777142Y-50203285D01*
X91777142Y-49631857D01*
X91705714Y-49489000D01*
X91562857Y-49417571D01*
X91277142Y-49417571D01*
X91134285Y-49489000D01*
X91062857Y-49631857D01*
X91062857Y-49774714D01*
X91777142Y-49917571D01*
X90420000Y-49417571D02*
X90420000Y-50417571D01*
X90420000Y-49560428D02*
X90348571Y-49489000D01*
X90205714Y-49417571D01*
X89991428Y-49417571D01*
X89848571Y-49489000D01*
X89777142Y-49631857D01*
X89777142Y-50417571D01*
X89062857Y-50417571D02*
X89062857Y-49417571D01*
X89062857Y-48917571D02*
X89134285Y-48989000D01*
X89062857Y-49060428D01*
X88991428Y-48989000D01*
X89062857Y-48917571D01*
X89062857Y-49060428D01*
X88348571Y-49417571D02*
X88348571Y-50417571D01*
X88348571Y-49560428D02*
X88277142Y-49489000D01*
X88134285Y-49417571D01*
X87920000Y-49417571D01*
X87777142Y-49489000D01*
X87705714Y-49631857D01*
X87705714Y-50417571D01*
X86348571Y-49417571D02*
X86348571Y-50631857D01*
X86420000Y-50774714D01*
X86491428Y-50846142D01*
X86634285Y-50917571D01*
X86848571Y-50917571D01*
X86991428Y-50846142D01*
X86348571Y-50346142D02*
X86491428Y-50417571D01*
X86777142Y-50417571D01*
X86920000Y-50346142D01*
X86991428Y-50274714D01*
X87062857Y-50131857D01*
X87062857Y-49703285D01*
X86991428Y-49560428D01*
X86920000Y-49489000D01*
X86777142Y-49417571D01*
X86491428Y-49417571D01*
X86348571Y-49489000D01*
X85062857Y-50346142D02*
X85205714Y-50417571D01*
X85491428Y-50417571D01*
X85634285Y-50346142D01*
X85705714Y-50203285D01*
X85705714Y-49631857D01*
X85634285Y-49489000D01*
X85491428Y-49417571D01*
X85205714Y-49417571D01*
X85062857Y-49489000D01*
X84991428Y-49631857D01*
X84991428Y-49774714D01*
X85705714Y-49917571D01*
X83777142Y-50346142D02*
X83920000Y-50417571D01*
X84205714Y-50417571D01*
X84348571Y-50346142D01*
X84420000Y-50203285D01*
X84420000Y-49631857D01*
X84348571Y-49489000D01*
X84205714Y-49417571D01*
X83920000Y-49417571D01*
X83777142Y-49489000D01*
X83705714Y-49631857D01*
X83705714Y-49774714D01*
X84420000Y-49917571D01*
X83062857Y-50417571D02*
X83062857Y-49417571D01*
X83062857Y-49703285D02*
X82991428Y-49560428D01*
X82920000Y-49489000D01*
X82777142Y-49417571D01*
X82634285Y-49417571D01*
D11*
X112672666Y-69938380D02*
X112672666Y-70652666D01*
X112720285Y-70795523D01*
X112815523Y-70890761D01*
X112958380Y-70938380D01*
X113053619Y-70938380D01*
X112339333Y-69938380D02*
X111767904Y-69938380D01*
X112053619Y-70938380D02*
X112053619Y-69938380D01*
X111482190Y-70652666D02*
X111006000Y-70652666D01*
X111577428Y-70938380D02*
X111244095Y-69938380D01*
X110910761Y-70938380D01*
X110053619Y-69986000D02*
X110148857Y-69938380D01*
X110291714Y-69938380D01*
X110434571Y-69986000D01*
X110529809Y-70081238D01*
X110577428Y-70176476D01*
X110625047Y-70366952D01*
X110625047Y-70509809D01*
X110577428Y-70700285D01*
X110529809Y-70795523D01*
X110434571Y-70890761D01*
X110291714Y-70938380D01*
X110196476Y-70938380D01*
X110053619Y-70890761D01*
X110006000Y-70843142D01*
X110006000Y-70509809D01*
X110196476Y-70509809D01*
X111886952Y-72207428D02*
X111125047Y-72207428D01*
X111506000Y-72588380D02*
X111506000Y-71826476D01*
X113101238Y-74238380D02*
X113434571Y-73762190D01*
X113672666Y-74238380D02*
X113672666Y-73238380D01*
X113291714Y-73238380D01*
X113196476Y-73286000D01*
X113148857Y-73333619D01*
X113101238Y-73428857D01*
X113101238Y-73571714D01*
X113148857Y-73666952D01*
X113196476Y-73714571D01*
X113291714Y-73762190D01*
X113672666Y-73762190D01*
X112720285Y-74190761D02*
X112577428Y-74238380D01*
X112339333Y-74238380D01*
X112244095Y-74190761D01*
X112196476Y-74143142D01*
X112148857Y-74047904D01*
X112148857Y-73952666D01*
X112196476Y-73857428D01*
X112244095Y-73809809D01*
X112339333Y-73762190D01*
X112529809Y-73714571D01*
X112625047Y-73666952D01*
X112672666Y-73619333D01*
X112720285Y-73524095D01*
X112720285Y-73428857D01*
X112672666Y-73333619D01*
X112625047Y-73286000D01*
X112529809Y-73238380D01*
X112291714Y-73238380D01*
X112148857Y-73286000D01*
X111767904Y-73333619D02*
X111720285Y-73286000D01*
X111625047Y-73238380D01*
X111386952Y-73238380D01*
X111291714Y-73286000D01*
X111244095Y-73333619D01*
X111196476Y-73428857D01*
X111196476Y-73524095D01*
X111244095Y-73666952D01*
X111815523Y-74238380D01*
X111196476Y-74238380D01*
X110863142Y-73238380D02*
X110244095Y-73238380D01*
X110577428Y-73619333D01*
X110434571Y-73619333D01*
X110339333Y-73666952D01*
X110291714Y-73714571D01*
X110244095Y-73809809D01*
X110244095Y-74047904D01*
X110291714Y-74143142D01*
X110339333Y-74190761D01*
X110434571Y-74238380D01*
X110720285Y-74238380D01*
X110815523Y-74190761D01*
X110863142Y-74143142D01*
X109863142Y-73333619D02*
X109815523Y-73286000D01*
X109720285Y-73238380D01*
X109482190Y-73238380D01*
X109386952Y-73286000D01*
X109339333Y-73333619D01*
X109291714Y-73428857D01*
X109291714Y-73524095D01*
X109339333Y-73666952D01*
X109910761Y-74238380D01*
X109291714Y-74238380D01*
D12*
X115062000Y-75692000D02*
X81280000Y-75692000D01*
X115062000Y-44958000D02*
X115062000Y-75692000D01*
X81280000Y-44958000D02*
X115062000Y-44958000D01*
X81280000Y-75692000D02*
X81280000Y-44958000D01*
D13*
X110606721Y-50290000D02*
X110932279Y-50290000D01*
X110606721Y-51310000D02*
X110932279Y-51310000D01*
X110606721Y-48258000D02*
X110932279Y-48258000D01*
X110606721Y-49278000D02*
X110932279Y-49278000D01*
X110932279Y-53342000D02*
X110606721Y-53342000D01*
X110932279Y-52322000D02*
X110606721Y-52322000D01*
X86022922Y-58726000D02*
X86540078Y-58726000D01*
X86022922Y-60146000D02*
X86540078Y-60146000D01*
X86022922Y-61520000D02*
X86540078Y-61520000D01*
X86022922Y-62940000D02*
X86540078Y-62940000D01*
X100636000Y-63934078D02*
X100636000Y-63416922D01*
X102056000Y-63934078D02*
X102056000Y-63416922D01*
X98604000Y-63837078D02*
X98604000Y-63319922D01*
X100024000Y-63837078D02*
X100024000Y-63319922D01*
X104531279Y-63248000D02*
X104205721Y-63248000D01*
X104531279Y-62228000D02*
X104205721Y-62228000D01*
D11*
X111412357Y-52682380D02*
X111745690Y-52206190D01*
X111983785Y-52682380D02*
X111983785Y-51682380D01*
X111602833Y-51682380D01*
X111507595Y-51730000D01*
X111459976Y-51777619D01*
X111412357Y-51872857D01*
X111412357Y-52015714D01*
X111459976Y-52110952D01*
X111507595Y-52158571D01*
X111602833Y-52206190D01*
X111983785Y-52206190D01*
X110459976Y-52682380D02*
X111031404Y-52682380D01*
X110745690Y-52682380D02*
X110745690Y-51682380D01*
X110840928Y-51825238D01*
X110936166Y-51920476D01*
X111031404Y-51968095D01*
X109507595Y-52682380D02*
X110079023Y-52682380D01*
X109793309Y-52682380D02*
X109793309Y-51682380D01*
X109888547Y-51825238D01*
X109983785Y-51920476D01*
X110079023Y-51968095D01*
X111412357Y-50650380D02*
X111745690Y-50174190D01*
X111983785Y-50650380D02*
X111983785Y-49650380D01*
X111602833Y-49650380D01*
X111507595Y-49698000D01*
X111459976Y-49745619D01*
X111412357Y-49840857D01*
X111412357Y-49983714D01*
X111459976Y-50078952D01*
X111507595Y-50126571D01*
X111602833Y-50174190D01*
X111983785Y-50174190D01*
X110459976Y-50650380D02*
X111031404Y-50650380D01*
X110745690Y-50650380D02*
X110745690Y-49650380D01*
X110840928Y-49793238D01*
X110936166Y-49888476D01*
X111031404Y-49936095D01*
X109840928Y-49650380D02*
X109745690Y-49650380D01*
X109650452Y-49698000D01*
X109602833Y-49745619D01*
X109555214Y-49840857D01*
X109507595Y-50031333D01*
X109507595Y-50269428D01*
X109555214Y-50459904D01*
X109602833Y-50555142D01*
X109650452Y-50602761D01*
X109745690Y-50650380D01*
X109840928Y-50650380D01*
X109936166Y-50602761D01*
X109983785Y-50555142D01*
X110031404Y-50459904D01*
X110079023Y-50269428D01*
X110079023Y-50031333D01*
X110031404Y-49840857D01*
X109983785Y-49745619D01*
X109936166Y-49698000D01*
X109840928Y-49650380D01*
X110936166Y-51854380D02*
X111269500Y-51378190D01*
X111507595Y-51854380D02*
X111507595Y-50854380D01*
X111126642Y-50854380D01*
X111031404Y-50902000D01*
X110983785Y-50949619D01*
X110936166Y-51044857D01*
X110936166Y-51187714D01*
X110983785Y-51282952D01*
X111031404Y-51330571D01*
X111126642Y-51378190D01*
X111507595Y-51378190D01*
X110459976Y-51854380D02*
X110269500Y-51854380D01*
X110174261Y-51806761D01*
X110126642Y-51759142D01*
X110031404Y-51616285D01*
X109983785Y-51425809D01*
X109983785Y-51044857D01*
X110031404Y-50949619D01*
X110079023Y-50902000D01*
X110174261Y-50854380D01*
X110364738Y-50854380D01*
X110459976Y-50902000D01*
X110507595Y-50949619D01*
X110555214Y-51044857D01*
X110555214Y-51282952D01*
X110507595Y-51378190D01*
X110459976Y-51425809D01*
X110364738Y-51473428D01*
X110174261Y-51473428D01*
X110079023Y-51425809D01*
X110031404Y-51378190D01*
X109983785Y-51282952D01*
X99158380Y-63056333D02*
X98682190Y-62723000D01*
X99158380Y-62484904D02*
X98158380Y-62484904D01*
X98158380Y-62865857D01*
X98206000Y-62961095D01*
X98253619Y-63008714D01*
X98348857Y-63056333D01*
X98491714Y-63056333D01*
X98586952Y-63008714D01*
X98634571Y-62961095D01*
X98682190Y-62865857D01*
X98682190Y-62484904D01*
X98586952Y-63627761D02*
X98539333Y-63532523D01*
X98491714Y-63484904D01*
X98396476Y-63437285D01*
X98348857Y-63437285D01*
X98253619Y-63484904D01*
X98206000Y-63532523D01*
X98158380Y-63627761D01*
X98158380Y-63818238D01*
X98206000Y-63913476D01*
X98253619Y-63961095D01*
X98348857Y-64008714D01*
X98396476Y-64008714D01*
X98491714Y-63961095D01*
X98539333Y-63913476D01*
X98586952Y-63818238D01*
X98586952Y-63627761D01*
X98634571Y-63532523D01*
X98682190Y-63484904D01*
X98777428Y-63437285D01*
X98967904Y-63437285D01*
X99063142Y-63484904D01*
X99110761Y-63532523D01*
X99158380Y-63627761D01*
X99158380Y-63818238D01*
X99110761Y-63913476D01*
X99063142Y-63961095D01*
X98967904Y-64008714D01*
X98777428Y-64008714D01*
X98682190Y-63961095D01*
X98634571Y-63913476D01*
X98586952Y-63818238D01*
X100519666Y-61566380D02*
X100853000Y-61090190D01*
X101091095Y-61566380D02*
X101091095Y-60566380D01*
X100710142Y-60566380D01*
X100614904Y-60614000D01*
X100567285Y-60661619D01*
X100519666Y-60756857D01*
X100519666Y-60899714D01*
X100567285Y-60994952D01*
X100614904Y-61042571D01*
X100710142Y-61090190D01*
X101091095Y-61090190D01*
X100186333Y-60566380D02*
X99519666Y-60566380D01*
X99948238Y-61566380D01*
X102505666Y-51406380D02*
X102839000Y-50930190D01*
X103077095Y-51406380D02*
X103077095Y-50406380D01*
X102696142Y-50406380D01*
X102600904Y-50454000D01*
X102553285Y-50501619D01*
X102505666Y-50596857D01*
X102505666Y-50739714D01*
X102553285Y-50834952D01*
X102600904Y-50882571D01*
X102696142Y-50930190D01*
X103077095Y-50930190D01*
X101648523Y-50406380D02*
X101839000Y-50406380D01*
X101934238Y-50454000D01*
X101981857Y-50501619D01*
X102077095Y-50644476D01*
X102124714Y-50834952D01*
X102124714Y-51215904D01*
X102077095Y-51311142D01*
X102029476Y-51358761D01*
X101934238Y-51406380D01*
X101743761Y-51406380D01*
X101648523Y-51358761D01*
X101600904Y-51311142D01*
X101553285Y-51215904D01*
X101553285Y-50977809D01*
X101600904Y-50882571D01*
X101648523Y-50834952D01*
X101743761Y-50787333D01*
X101934238Y-50787333D01*
X102029476Y-50834952D01*
X102077095Y-50882571D01*
X102124714Y-50977809D01*
X100120380Y-50402333D02*
X99644190Y-50069000D01*
X100120380Y-49830904D02*
X99120380Y-49830904D01*
X99120380Y-50211857D01*
X99168000Y-50307095D01*
X99215619Y-50354714D01*
X99310857Y-50402333D01*
X99453714Y-50402333D01*
X99548952Y-50354714D01*
X99596571Y-50307095D01*
X99644190Y-50211857D01*
X99644190Y-49830904D01*
X99120380Y-51307095D02*
X99120380Y-50830904D01*
X99596571Y-50783285D01*
X99548952Y-50830904D01*
X99501333Y-50926142D01*
X99501333Y-51164238D01*
X99548952Y-51259476D01*
X99596571Y-51307095D01*
X99691809Y-51354714D01*
X99929904Y-51354714D01*
X100025142Y-51307095D01*
X100072761Y-51259476D01*
X100120380Y-51164238D01*
X100120380Y-50926142D01*
X100072761Y-50830904D01*
X100025142Y-50783285D01*
X86448166Y-61538380D02*
X86781500Y-61062190D01*
X87019595Y-61538380D02*
X87019595Y-60538380D01*
X86638642Y-60538380D01*
X86543404Y-60586000D01*
X86495785Y-60633619D01*
X86448166Y-60728857D01*
X86448166Y-60871714D01*
X86495785Y-60966952D01*
X86543404Y-61014571D01*
X86638642Y-61062190D01*
X87019595Y-61062190D01*
X85591023Y-60871714D02*
X85591023Y-61538380D01*
X85829119Y-60490761D02*
X86067214Y-61205047D01*
X85448166Y-61205047D01*
X86448166Y-64332380D02*
X86781500Y-63856190D01*
X87019595Y-64332380D02*
X87019595Y-63332380D01*
X86638642Y-63332380D01*
X86543404Y-63380000D01*
X86495785Y-63427619D01*
X86448166Y-63522857D01*
X86448166Y-63665714D01*
X86495785Y-63760952D01*
X86543404Y-63808571D01*
X86638642Y-63856190D01*
X87019595Y-63856190D01*
X86114833Y-63332380D02*
X85495785Y-63332380D01*
X85829119Y-63713333D01*
X85686261Y-63713333D01*
X85591023Y-63760952D01*
X85543404Y-63808571D01*
X85495785Y-63903809D01*
X85495785Y-64141904D01*
X85543404Y-64237142D01*
X85591023Y-64284761D01*
X85686261Y-64332380D01*
X85971976Y-64332380D01*
X86067214Y-64284761D01*
X86114833Y-64237142D01*
X102551666Y-50136380D02*
X102885000Y-49660190D01*
X103123095Y-50136380D02*
X103123095Y-49136380D01*
X102742142Y-49136380D01*
X102646904Y-49184000D01*
X102599285Y-49231619D01*
X102551666Y-49326857D01*
X102551666Y-49469714D01*
X102599285Y-49564952D01*
X102646904Y-49612571D01*
X102742142Y-49660190D01*
X103123095Y-49660190D01*
X102170714Y-49231619D02*
X102123095Y-49184000D01*
X102027857Y-49136380D01*
X101789761Y-49136380D01*
X101694523Y-49184000D01*
X101646904Y-49231619D01*
X101599285Y-49326857D01*
X101599285Y-49422095D01*
X101646904Y-49564952D01*
X102218333Y-50136380D01*
X101599285Y-50136380D01*
X102551666Y-48866380D02*
X102885000Y-48390190D01*
X103123095Y-48866380D02*
X103123095Y-47866380D01*
X102742142Y-47866380D01*
X102646904Y-47914000D01*
X102599285Y-47961619D01*
X102551666Y-48056857D01*
X102551666Y-48199714D01*
X102599285Y-48294952D01*
X102646904Y-48342571D01*
X102742142Y-48390190D01*
X103123095Y-48390190D01*
X101599285Y-48866380D02*
X102170714Y-48866380D01*
X101885000Y-48866380D02*
X101885000Y-47866380D01*
X101980238Y-48009238D01*
X102075476Y-48104476D01*
X102170714Y-48152095D01*
X92913142Y-70200142D02*
X92960761Y-70152523D01*
X93008380Y-70009666D01*
X93008380Y-69914428D01*
X92960761Y-69771571D01*
X92865523Y-69676333D01*
X92770285Y-69628714D01*
X92579809Y-69581095D01*
X92436952Y-69581095D01*
X92246476Y-69628714D01*
X92151238Y-69676333D01*
X92056000Y-69771571D01*
X92008380Y-69914428D01*
X92008380Y-70009666D01*
X92056000Y-70152523D01*
X92103619Y-70200142D01*
X93008380Y-71152523D02*
X93008380Y-70581095D01*
X93008380Y-70866809D02*
X92008380Y-70866809D01*
X92151238Y-70771571D01*
X92246476Y-70676333D01*
X92294095Y-70581095D01*
X92008380Y-71485857D02*
X92008380Y-72152523D01*
X93008380Y-71723952D01*
X108715142Y-54498142D02*
X108762761Y-54450523D01*
X108810380Y-54307666D01*
X108810380Y-54212428D01*
X108762761Y-54069571D01*
X108667523Y-53974333D01*
X108572285Y-53926714D01*
X108381809Y-53879095D01*
X108238952Y-53879095D01*
X108048476Y-53926714D01*
X107953238Y-53974333D01*
X107858000Y-54069571D01*
X107810380Y-54212428D01*
X107810380Y-54307666D01*
X107858000Y-54450523D01*
X107905619Y-54498142D01*
X108810380Y-55450523D02*
X108810380Y-54879095D01*
X108810380Y-55164809D02*
X107810380Y-55164809D01*
X107953238Y-55069571D01*
X108048476Y-54974333D01*
X108096095Y-54879095D01*
X107810380Y-56307666D02*
X107810380Y-56117190D01*
X107858000Y-56021952D01*
X107905619Y-55974333D01*
X108048476Y-55879095D01*
X108238952Y-55831476D01*
X108619904Y-55831476D01*
X108715142Y-55879095D01*
X108762761Y-55926714D01*
X108810380Y-56021952D01*
X108810380Y-56212428D01*
X108762761Y-56307666D01*
X108715142Y-56355285D01*
X108619904Y-56402904D01*
X108381809Y-56402904D01*
X108286571Y-56355285D01*
X108238952Y-56307666D01*
X108191333Y-56212428D01*
X108191333Y-56021952D01*
X108238952Y-55926714D01*
X108286571Y-55879095D01*
X108381809Y-55831476D01*
X91389142Y-70200142D02*
X91436761Y-70152523D01*
X91484380Y-70009666D01*
X91484380Y-69914428D01*
X91436761Y-69771571D01*
X91341523Y-69676333D01*
X91246285Y-69628714D01*
X91055809Y-69581095D01*
X90912952Y-69581095D01*
X90722476Y-69628714D01*
X90627238Y-69676333D01*
X90532000Y-69771571D01*
X90484380Y-69914428D01*
X90484380Y-70009666D01*
X90532000Y-70152523D01*
X90579619Y-70200142D01*
X91484380Y-71152523D02*
X91484380Y-70581095D01*
X91484380Y-70866809D02*
X90484380Y-70866809D01*
X90627238Y-70771571D01*
X90722476Y-70676333D01*
X90770095Y-70581095D01*
X90484380Y-72057285D02*
X90484380Y-71581095D01*
X90960571Y-71533476D01*
X90912952Y-71581095D01*
X90865333Y-71676333D01*
X90865333Y-71914428D01*
X90912952Y-72009666D01*
X90960571Y-72057285D01*
X91055809Y-72104904D01*
X91293904Y-72104904D01*
X91389142Y-72057285D01*
X91436761Y-72009666D01*
X91484380Y-71914428D01*
X91484380Y-71676333D01*
X91436761Y-71581095D01*
X91389142Y-71533476D01*
X110239142Y-54452142D02*
X110286761Y-54404523D01*
X110334380Y-54261666D01*
X110334380Y-54166428D01*
X110286761Y-54023571D01*
X110191523Y-53928333D01*
X110096285Y-53880714D01*
X109905809Y-53833095D01*
X109762952Y-53833095D01*
X109572476Y-53880714D01*
X109477238Y-53928333D01*
X109382000Y-54023571D01*
X109334380Y-54166428D01*
X109334380Y-54261666D01*
X109382000Y-54404523D01*
X109429619Y-54452142D01*
X110334380Y-55404523D02*
X110334380Y-54833095D01*
X110334380Y-55118809D02*
X109334380Y-55118809D01*
X109477238Y-55023571D01*
X109572476Y-54928333D01*
X109620095Y-54833095D01*
X109667714Y-56261666D02*
X110334380Y-56261666D01*
X109286761Y-56023571D02*
X110001047Y-55785476D01*
X110001047Y-56404523D01*
X89865142Y-70246142D02*
X89912761Y-70198523D01*
X89960380Y-70055666D01*
X89960380Y-69960428D01*
X89912761Y-69817571D01*
X89817523Y-69722333D01*
X89722285Y-69674714D01*
X89531809Y-69627095D01*
X89388952Y-69627095D01*
X89198476Y-69674714D01*
X89103238Y-69722333D01*
X89008000Y-69817571D01*
X88960380Y-69960428D01*
X88960380Y-70055666D01*
X89008000Y-70198523D01*
X89055619Y-70246142D01*
X89960380Y-71198523D02*
X89960380Y-70627095D01*
X89960380Y-70912809D02*
X88960380Y-70912809D01*
X89103238Y-70817571D01*
X89198476Y-70722333D01*
X89246095Y-70627095D01*
X88960380Y-71531857D02*
X88960380Y-72150904D01*
X89341333Y-71817571D01*
X89341333Y-71960428D01*
X89388952Y-72055666D01*
X89436571Y-72103285D01*
X89531809Y-72150904D01*
X89769904Y-72150904D01*
X89865142Y-72103285D01*
X89912761Y-72055666D01*
X89960380Y-71960428D01*
X89960380Y-71674714D01*
X89912761Y-71579476D01*
X89865142Y-71531857D01*
X111763142Y-54498142D02*
X111810761Y-54450523D01*
X111858380Y-54307666D01*
X111858380Y-54212428D01*
X111810761Y-54069571D01*
X111715523Y-53974333D01*
X111620285Y-53926714D01*
X111429809Y-53879095D01*
X111286952Y-53879095D01*
X111096476Y-53926714D01*
X111001238Y-53974333D01*
X110906000Y-54069571D01*
X110858380Y-54212428D01*
X110858380Y-54307666D01*
X110906000Y-54450523D01*
X110953619Y-54498142D01*
X111858380Y-55450523D02*
X111858380Y-54879095D01*
X111858380Y-55164809D02*
X110858380Y-55164809D01*
X111001238Y-55069571D01*
X111096476Y-54974333D01*
X111144095Y-54879095D01*
X110953619Y-55831476D02*
X110906000Y-55879095D01*
X110858380Y-55974333D01*
X110858380Y-56212428D01*
X110906000Y-56307666D01*
X110953619Y-56355285D01*
X111048857Y-56402904D01*
X111144095Y-56402904D01*
X111286952Y-56355285D01*
X111858380Y-55783857D01*
X111858380Y-56402904D01*
X88341142Y-70200142D02*
X88388761Y-70152523D01*
X88436380Y-70009666D01*
X88436380Y-69914428D01*
X88388761Y-69771571D01*
X88293523Y-69676333D01*
X88198285Y-69628714D01*
X88007809Y-69581095D01*
X87864952Y-69581095D01*
X87674476Y-69628714D01*
X87579238Y-69676333D01*
X87484000Y-69771571D01*
X87436380Y-69914428D01*
X87436380Y-70009666D01*
X87484000Y-70152523D01*
X87531619Y-70200142D01*
X88436380Y-71152523D02*
X88436380Y-70581095D01*
X88436380Y-70866809D02*
X87436380Y-70866809D01*
X87579238Y-70771571D01*
X87674476Y-70676333D01*
X87722095Y-70581095D01*
X88436380Y-72104904D02*
X88436380Y-71533476D01*
X88436380Y-71819190D02*
X87436380Y-71819190D01*
X87579238Y-71723952D01*
X87674476Y-71628714D01*
X87722095Y-71533476D01*
X113287142Y-54498142D02*
X113334761Y-54450523D01*
X113382380Y-54307666D01*
X113382380Y-54212428D01*
X113334761Y-54069571D01*
X113239523Y-53974333D01*
X113144285Y-53926714D01*
X112953809Y-53879095D01*
X112810952Y-53879095D01*
X112620476Y-53926714D01*
X112525238Y-53974333D01*
X112430000Y-54069571D01*
X112382380Y-54212428D01*
X112382380Y-54307666D01*
X112430000Y-54450523D01*
X112477619Y-54498142D01*
X113382380Y-55450523D02*
X113382380Y-54879095D01*
X113382380Y-55164809D02*
X112382380Y-55164809D01*
X112525238Y-55069571D01*
X112620476Y-54974333D01*
X112668095Y-54879095D01*
X112382380Y-56069571D02*
X112382380Y-56164809D01*
X112430000Y-56260047D01*
X112477619Y-56307666D01*
X112572857Y-56355285D01*
X112763333Y-56402904D01*
X113001428Y-56402904D01*
X113191904Y-56355285D01*
X113287142Y-56307666D01*
X113334761Y-56260047D01*
X113382380Y-56164809D01*
X113382380Y-56069571D01*
X113334761Y-55974333D01*
X113287142Y-55926714D01*
X113191904Y-55879095D01*
X113001428Y-55831476D01*
X112763333Y-55831476D01*
X112572857Y-55879095D01*
X112477619Y-55926714D01*
X112430000Y-55974333D01*
X112382380Y-56069571D01*
X103353142Y-63508833D02*
X103400761Y-63461214D01*
X103448380Y-63318357D01*
X103448380Y-63223119D01*
X103400761Y-63080261D01*
X103305523Y-62985023D01*
X103210285Y-62937404D01*
X103019809Y-62889785D01*
X102876952Y-62889785D01*
X102686476Y-62937404D01*
X102591238Y-62985023D01*
X102496000Y-63080261D01*
X102448380Y-63223119D01*
X102448380Y-63318357D01*
X102496000Y-63461214D01*
X102543619Y-63508833D01*
X103448380Y-63985023D02*
X103448380Y-64175500D01*
X103400761Y-64270738D01*
X103353142Y-64318357D01*
X103210285Y-64413595D01*
X103019809Y-64461214D01*
X102638857Y-64461214D01*
X102543619Y-64413595D01*
X102496000Y-64365976D01*
X102448380Y-64270738D01*
X102448380Y-64080261D01*
X102496000Y-63985023D01*
X102543619Y-63937404D01*
X102638857Y-63889785D01*
X102876952Y-63889785D01*
X102972190Y-63937404D01*
X103019809Y-63985023D01*
X103067428Y-64080261D01*
X103067428Y-64270738D01*
X103019809Y-64365976D01*
X102972190Y-64413595D01*
X102876952Y-64461214D01*
X101321142Y-63411833D02*
X101368761Y-63364214D01*
X101416380Y-63221357D01*
X101416380Y-63126119D01*
X101368761Y-62983261D01*
X101273523Y-62888023D01*
X101178285Y-62840404D01*
X100987809Y-62792785D01*
X100844952Y-62792785D01*
X100654476Y-62840404D01*
X100559238Y-62888023D01*
X100464000Y-62983261D01*
X100416380Y-63126119D01*
X100416380Y-63221357D01*
X100464000Y-63364214D01*
X100511619Y-63411833D01*
X100844952Y-63983261D02*
X100797333Y-63888023D01*
X100749714Y-63840404D01*
X100654476Y-63792785D01*
X100606857Y-63792785D01*
X100511619Y-63840404D01*
X100464000Y-63888023D01*
X100416380Y-63983261D01*
X100416380Y-64173738D01*
X100464000Y-64268976D01*
X100511619Y-64316595D01*
X100606857Y-64364214D01*
X100654476Y-64364214D01*
X100749714Y-64316595D01*
X100797333Y-64268976D01*
X100844952Y-64173738D01*
X100844952Y-63983261D01*
X100892571Y-63888023D01*
X100940190Y-63840404D01*
X101035428Y-63792785D01*
X101225904Y-63792785D01*
X101321142Y-63840404D01*
X101368761Y-63888023D01*
X101416380Y-63983261D01*
X101416380Y-64173738D01*
X101368761Y-64268976D01*
X101321142Y-64316595D01*
X101225904Y-64364214D01*
X101035428Y-64364214D01*
X100940190Y-64316595D01*
X100892571Y-64268976D01*
X100844952Y-64173738D01*
X105091666Y-59385142D02*
X105139285Y-59432761D01*
X105282142Y-59480380D01*
X105377380Y-59480380D01*
X105520238Y-59432761D01*
X105615476Y-59337523D01*
X105663095Y-59242285D01*
X105710714Y-59051809D01*
X105710714Y-58908952D01*
X105663095Y-58718476D01*
X105615476Y-58623238D01*
X105520238Y-58528000D01*
X105377380Y-58480380D01*
X105282142Y-58480380D01*
X105139285Y-58528000D01*
X105091666Y-58575619D01*
X104758333Y-58480380D02*
X104091666Y-58480380D01*
X104520238Y-59480380D01*
X101041142Y-57468333D02*
X101088761Y-57420714D01*
X101136380Y-57277857D01*
X101136380Y-57182619D01*
X101088761Y-57039761D01*
X100993523Y-56944523D01*
X100898285Y-56896904D01*
X100707809Y-56849285D01*
X100564952Y-56849285D01*
X100374476Y-56896904D01*
X100279238Y-56944523D01*
X100184000Y-57039761D01*
X100136380Y-57182619D01*
X100136380Y-57277857D01*
X100184000Y-57420714D01*
X100231619Y-57468333D01*
X100136380Y-58325476D02*
X100136380Y-58135000D01*
X100184000Y-58039761D01*
X100231619Y-57992142D01*
X100374476Y-57896904D01*
X100564952Y-57849285D01*
X100945904Y-57849285D01*
X101041142Y-57896904D01*
X101088761Y-57944523D01*
X101136380Y-58039761D01*
X101136380Y-58230238D01*
X101088761Y-58325476D01*
X101041142Y-58373095D01*
X100945904Y-58420714D01*
X100707809Y-58420714D01*
X100612571Y-58373095D01*
X100564952Y-58325476D01*
X100517333Y-58230238D01*
X100517333Y-58039761D01*
X100564952Y-57944523D01*
X100612571Y-57896904D01*
X100707809Y-57849285D01*
X98487666Y-62741142D02*
X98535285Y-62788761D01*
X98678142Y-62836380D01*
X98773380Y-62836380D01*
X98916238Y-62788761D01*
X99011476Y-62693523D01*
X99059095Y-62598285D01*
X99106714Y-62407809D01*
X99106714Y-62264952D01*
X99059095Y-62074476D01*
X99011476Y-61979238D01*
X98916238Y-61884000D01*
X98773380Y-61836380D01*
X98678142Y-61836380D01*
X98535285Y-61884000D01*
X98487666Y-61931619D01*
X97582904Y-61836380D02*
X98059095Y-61836380D01*
X98106714Y-62312571D01*
X98059095Y-62264952D01*
X97963857Y-62217333D01*
X97725761Y-62217333D01*
X97630523Y-62264952D01*
X97582904Y-62312571D01*
X97535285Y-62407809D01*
X97535285Y-62645904D01*
X97582904Y-62741142D01*
X97630523Y-62788761D01*
X97725761Y-62836380D01*
X97963857Y-62836380D01*
X98059095Y-62788761D01*
X98106714Y-62741142D01*
X98441666Y-60201142D02*
X98489285Y-60248761D01*
X98632142Y-60296380D01*
X98727380Y-60296380D01*
X98870238Y-60248761D01*
X98965476Y-60153523D01*
X99013095Y-60058285D01*
X99060714Y-59867809D01*
X99060714Y-59724952D01*
X99013095Y-59534476D01*
X98965476Y-59439238D01*
X98870238Y-59344000D01*
X98727380Y-59296380D01*
X98632142Y-59296380D01*
X98489285Y-59344000D01*
X98441666Y-59391619D01*
X97584523Y-59629714D02*
X97584523Y-60296380D01*
X97822619Y-59248761D02*
X98060714Y-59963047D01*
X97441666Y-59963047D01*
X104535166Y-61665142D02*
X104582785Y-61712761D01*
X104725642Y-61760380D01*
X104820880Y-61760380D01*
X104963738Y-61712761D01*
X105058976Y-61617523D01*
X105106595Y-61522285D01*
X105154214Y-61331809D01*
X105154214Y-61188952D01*
X105106595Y-60998476D01*
X105058976Y-60903238D01*
X104963738Y-60808000D01*
X104820880Y-60760380D01*
X104725642Y-60760380D01*
X104582785Y-60808000D01*
X104535166Y-60855619D01*
X104201833Y-60760380D02*
X103582785Y-60760380D01*
X103916119Y-61141333D01*
X103773261Y-61141333D01*
X103678023Y-61188952D01*
X103630404Y-61236571D01*
X103582785Y-61331809D01*
X103582785Y-61569904D01*
X103630404Y-61665142D01*
X103678023Y-61712761D01*
X103773261Y-61760380D01*
X104058976Y-61760380D01*
X104154214Y-61712761D01*
X104201833Y-61665142D01*
X88812666Y-54459142D02*
X88860285Y-54506761D01*
X89003142Y-54554380D01*
X89098380Y-54554380D01*
X89241238Y-54506761D01*
X89336476Y-54411523D01*
X89384095Y-54316285D01*
X89431714Y-54125809D01*
X89431714Y-53982952D01*
X89384095Y-53792476D01*
X89336476Y-53697238D01*
X89241238Y-53602000D01*
X89098380Y-53554380D01*
X89003142Y-53554380D01*
X88860285Y-53602000D01*
X88812666Y-53649619D01*
X88431714Y-53649619D02*
X88384095Y-53602000D01*
X88288857Y-53554380D01*
X88050761Y-53554380D01*
X87955523Y-53602000D01*
X87907904Y-53649619D01*
X87860285Y-53744857D01*
X87860285Y-53840095D01*
X87907904Y-53982952D01*
X88479333Y-54554380D01*
X87860285Y-54554380D01*
X92114666Y-54459142D02*
X92162285Y-54506761D01*
X92305142Y-54554380D01*
X92400380Y-54554380D01*
X92543238Y-54506761D01*
X92638476Y-54411523D01*
X92686095Y-54316285D01*
X92733714Y-54125809D01*
X92733714Y-53982952D01*
X92686095Y-53792476D01*
X92638476Y-53697238D01*
X92543238Y-53602000D01*
X92400380Y-53554380D01*
X92305142Y-53554380D01*
X92162285Y-53602000D01*
X92114666Y-53649619D01*
X91162285Y-54554380D02*
X91733714Y-54554380D01*
X91448000Y-54554380D02*
X91448000Y-53554380D01*
X91543238Y-53697238D01*
X91638476Y-53792476D01*
X91733714Y-53840095D01*
M02*
