M48
; DRILL file {KiCad 5.1.5-52549c5~84~ubuntu18.04.1} date Sat 11 Jan 2020 02:19:56 AM PST
; FORMAT={-:-/ absolute / inch / decimal}
; #@! TF.CreationDate,2020-01-11T02:19:56-08:00
; #@! TF.GenerationSoftware,Kicad,Pcbnew,5.1.5-52549c5~84~ubuntu18.04.1
; #@! TF.FileFunction,Plated,1,2,PTH
FMAT,2
INCH
T1C0.0118
T2C0.0157
T3C0.0197
T4C0.0394
%
G90
G05
T1
X3.27Y-2.06
X3.51Y-2.38
X3.5203Y-2.4197
X3.64Y-2.14
X3.65Y-2.36
X3.65Y-2.42
X3.7Y-2.3685
X3.71Y-2.34
X3.71Y-2.42
X3.71Y-2.51
X3.75Y-2.2
X3.83Y-2.28
X3.8481Y-2.3807
X3.85Y-2.06
X3.85Y-2.12
X3.85Y-2.3393
X3.9124Y-2.68
X3.92Y-1.86
X3.92Y-1.91
X3.92Y-1.96
X3.93Y-2.42
X3.9321Y-2.01
X3.96Y-2.12
X4.01Y-2.11
X4.0311Y-2.1206
X4.07Y-1.81
X4.07Y-2.12
X4.12Y-2.55
X4.13Y-2.26
X4.18Y-2.18
X4.28Y-2.37
X4.28Y-2.47
X4.39Y-2.12
X4.45Y-1.92
X4.45Y-2.02
T2
X3.42Y-2.88
X3.78Y-2.88
T4
X3.31Y-2.72
X3.31Y-2.82
X3.87Y-2.87
X3.97Y-2.87
X4.07Y-2.87
X4.17Y-2.87
X4.44Y-2.39
X4.44Y-2.49
T3
G00X3.32Y-2.2232
M15
G01X3.2964Y-2.2232
M16
G05
G00X3.32Y-2.5768
M15
G01X3.2964Y-2.5768
M16
G05
G00X3.5543Y-2.2374
M15
G01X3.5306Y-2.2374
M16
G05
G00X3.5543Y-2.5626
M15
G01X3.5306Y-2.5626
M16
G05
T0
M30
