G04 #@! TF.GenerationSoftware,KiCad,Pcbnew,5.1.5-52549c5~84~ubuntu18.04.1*
G04 #@! TF.CreationDate,2020-01-11T02:19:33-08:00*
G04 #@! TF.ProjectId,Programmer,50726f67-7261-46d6-9d65-722e6b696361,rev?*
G04 #@! TF.SameCoordinates,Original*
G04 #@! TF.FileFunction,Soldermask,Top*
G04 #@! TF.FilePolarity,Negative*
%FSLAX46Y46*%
G04 Gerber Fmt 4.6, Leading zero omitted, Abs format (unit mm)*
G04 Created by KiCad (PCBNEW 5.1.5-52549c5~84~ubuntu18.04.1) date 2020-01-11 02:19:33*
%MOMM*%
%LPD*%
G04 APERTURE LIST*
%ADD10C,0.050000*%
%ADD11C,0.100000*%
G04 APERTURE END LIST*
D10*
X115062000Y-75692000D02*
X81280000Y-75692000D01*
X115062000Y-44958000D02*
X115062000Y-75692000D01*
X81280000Y-44958000D02*
X115062000Y-44958000D01*
X81280000Y-75692000D02*
X81280000Y-44958000D01*
D11*
G36*
X93377000Y-75169000D02*
G01*
X89475000Y-75169000D01*
X89475000Y-73067000D01*
X93377000Y-73067000D01*
X93377000Y-75169000D01*
G37*
G36*
X106031512Y-72001927D02*
G01*
X106180812Y-72031624D01*
X106344784Y-72099544D01*
X106492354Y-72198147D01*
X106617853Y-72323646D01*
X106716456Y-72471216D01*
X106784376Y-72635188D01*
X106819000Y-72809259D01*
X106819000Y-72986741D01*
X106784376Y-73160812D01*
X106716456Y-73324784D01*
X106617853Y-73472354D01*
X106492354Y-73597853D01*
X106344784Y-73696456D01*
X106180812Y-73764376D01*
X106031512Y-73794073D01*
X106006742Y-73799000D01*
X105829258Y-73799000D01*
X105804488Y-73794073D01*
X105655188Y-73764376D01*
X105491216Y-73696456D01*
X105343646Y-73597853D01*
X105218147Y-73472354D01*
X105119544Y-73324784D01*
X105051624Y-73160812D01*
X105017000Y-72986741D01*
X105017000Y-72809259D01*
X105051624Y-72635188D01*
X105119544Y-72471216D01*
X105218147Y-72323646D01*
X105343646Y-72198147D01*
X105491216Y-72099544D01*
X105655188Y-72031624D01*
X105804488Y-72001927D01*
X105829258Y-71997000D01*
X106006742Y-71997000D01*
X106031512Y-72001927D01*
G37*
G36*
X103491512Y-72001927D02*
G01*
X103640812Y-72031624D01*
X103804784Y-72099544D01*
X103952354Y-72198147D01*
X104077853Y-72323646D01*
X104176456Y-72471216D01*
X104244376Y-72635188D01*
X104279000Y-72809259D01*
X104279000Y-72986741D01*
X104244376Y-73160812D01*
X104176456Y-73324784D01*
X104077853Y-73472354D01*
X103952354Y-73597853D01*
X103804784Y-73696456D01*
X103640812Y-73764376D01*
X103491512Y-73794073D01*
X103466742Y-73799000D01*
X103289258Y-73799000D01*
X103264488Y-73794073D01*
X103115188Y-73764376D01*
X102951216Y-73696456D01*
X102803646Y-73597853D01*
X102678147Y-73472354D01*
X102579544Y-73324784D01*
X102511624Y-73160812D01*
X102477000Y-72986741D01*
X102477000Y-72809259D01*
X102511624Y-72635188D01*
X102579544Y-72471216D01*
X102678147Y-72323646D01*
X102803646Y-72198147D01*
X102951216Y-72099544D01*
X103115188Y-72031624D01*
X103264488Y-72001927D01*
X103289258Y-71997000D01*
X103466742Y-71997000D01*
X103491512Y-72001927D01*
G37*
G36*
X99199000Y-73799000D02*
G01*
X97397000Y-73799000D01*
X97397000Y-71997000D01*
X99199000Y-71997000D01*
X99199000Y-73799000D01*
G37*
G36*
X100951512Y-72001927D02*
G01*
X101100812Y-72031624D01*
X101264784Y-72099544D01*
X101412354Y-72198147D01*
X101537853Y-72323646D01*
X101636456Y-72471216D01*
X101704376Y-72635188D01*
X101739000Y-72809259D01*
X101739000Y-72986741D01*
X101704376Y-73160812D01*
X101636456Y-73324784D01*
X101537853Y-73472354D01*
X101412354Y-73597853D01*
X101264784Y-73696456D01*
X101100812Y-73764376D01*
X100951512Y-73794073D01*
X100926742Y-73799000D01*
X100749258Y-73799000D01*
X100724488Y-73794073D01*
X100575188Y-73764376D01*
X100411216Y-73696456D01*
X100263646Y-73597853D01*
X100138147Y-73472354D01*
X100039544Y-73324784D01*
X99971624Y-73160812D01*
X99937000Y-72986741D01*
X99937000Y-72809259D01*
X99971624Y-72635188D01*
X100039544Y-72471216D01*
X100138147Y-72323646D01*
X100263646Y-72198147D01*
X100411216Y-72099544D01*
X100575188Y-72031624D01*
X100724488Y-72001927D01*
X100749258Y-71997000D01*
X100926742Y-71997000D01*
X100951512Y-72001927D01*
G37*
G36*
X84975000Y-72529000D02*
G01*
X83173000Y-72529000D01*
X83173000Y-70727000D01*
X84975000Y-70727000D01*
X84975000Y-72529000D01*
G37*
G36*
X84187512Y-68191927D02*
G01*
X84336812Y-68221624D01*
X84500784Y-68289544D01*
X84648354Y-68388147D01*
X84773853Y-68513646D01*
X84872456Y-68661216D01*
X84940376Y-68825188D01*
X84975000Y-68999259D01*
X84975000Y-69176741D01*
X84940376Y-69350812D01*
X84872456Y-69514784D01*
X84773853Y-69662354D01*
X84648354Y-69787853D01*
X84500784Y-69886456D01*
X84336812Y-69954376D01*
X84187512Y-69984073D01*
X84162742Y-69989000D01*
X83985258Y-69989000D01*
X83960488Y-69984073D01*
X83811188Y-69954376D01*
X83647216Y-69886456D01*
X83499646Y-69787853D01*
X83374147Y-69662354D01*
X83275544Y-69514784D01*
X83207624Y-69350812D01*
X83173000Y-69176741D01*
X83173000Y-68999259D01*
X83207624Y-68825188D01*
X83275544Y-68661216D01*
X83374147Y-68513646D01*
X83499646Y-68388147D01*
X83647216Y-68289544D01*
X83811188Y-68221624D01*
X83960488Y-68191927D01*
X83985258Y-68187000D01*
X84162742Y-68187000D01*
X84187512Y-68191927D01*
G37*
G36*
X92227000Y-68869000D02*
G01*
X90625000Y-68869000D01*
X90625000Y-66767000D01*
X92227000Y-66767000D01*
X92227000Y-68869000D01*
G37*
G36*
X89927000Y-68869000D02*
G01*
X88325000Y-68869000D01*
X88325000Y-66767000D01*
X89927000Y-66767000D01*
X89927000Y-68869000D01*
G37*
G36*
X94527000Y-68869000D02*
G01*
X92925000Y-68869000D01*
X92925000Y-66767000D01*
X94527000Y-66767000D01*
X94527000Y-68869000D01*
G37*
G36*
X98020295Y-65810323D02*
G01*
X98027309Y-65812451D01*
X98041077Y-65819810D01*
X98063716Y-65829187D01*
X98087749Y-65833967D01*
X98112253Y-65833967D01*
X98136286Y-65829186D01*
X98158923Y-65819810D01*
X98172691Y-65812451D01*
X98179705Y-65810323D01*
X98193140Y-65809000D01*
X98506860Y-65809000D01*
X98520295Y-65810323D01*
X98527309Y-65812451D01*
X98541077Y-65819810D01*
X98563716Y-65829187D01*
X98587749Y-65833967D01*
X98612253Y-65833967D01*
X98636286Y-65829186D01*
X98658923Y-65819810D01*
X98672691Y-65812451D01*
X98679705Y-65810323D01*
X98693140Y-65809000D01*
X99006860Y-65809000D01*
X99020295Y-65810323D01*
X99027309Y-65812451D01*
X99041077Y-65819810D01*
X99063716Y-65829187D01*
X99087749Y-65833967D01*
X99112253Y-65833967D01*
X99136286Y-65829186D01*
X99158923Y-65819810D01*
X99172691Y-65812451D01*
X99179705Y-65810323D01*
X99193140Y-65809000D01*
X99506860Y-65809000D01*
X99520295Y-65810323D01*
X99527309Y-65812451D01*
X99541077Y-65819810D01*
X99563716Y-65829187D01*
X99587749Y-65833967D01*
X99612253Y-65833967D01*
X99636286Y-65829186D01*
X99658923Y-65819810D01*
X99672691Y-65812451D01*
X99679705Y-65810323D01*
X99693140Y-65809000D01*
X100006860Y-65809000D01*
X100020295Y-65810323D01*
X100027309Y-65812451D01*
X100041077Y-65819810D01*
X100063716Y-65829187D01*
X100087749Y-65833967D01*
X100112253Y-65833967D01*
X100136286Y-65829186D01*
X100158923Y-65819810D01*
X100172691Y-65812451D01*
X100179705Y-65810323D01*
X100193140Y-65809000D01*
X100506860Y-65809000D01*
X100520295Y-65810323D01*
X100527309Y-65812451D01*
X100541077Y-65819810D01*
X100563716Y-65829187D01*
X100587749Y-65833967D01*
X100612253Y-65833967D01*
X100636286Y-65829186D01*
X100658923Y-65819810D01*
X100672691Y-65812451D01*
X100679705Y-65810323D01*
X100693140Y-65809000D01*
X101006860Y-65809000D01*
X101020295Y-65810323D01*
X101027309Y-65812451D01*
X101041077Y-65819810D01*
X101063716Y-65829187D01*
X101087749Y-65833967D01*
X101112253Y-65833967D01*
X101136286Y-65829186D01*
X101158923Y-65819810D01*
X101172691Y-65812451D01*
X101179705Y-65810323D01*
X101193140Y-65809000D01*
X101506860Y-65809000D01*
X101520295Y-65810323D01*
X101527309Y-65812451D01*
X101541077Y-65819810D01*
X101563716Y-65829187D01*
X101587749Y-65833967D01*
X101612253Y-65833967D01*
X101636286Y-65829186D01*
X101658923Y-65819810D01*
X101672691Y-65812451D01*
X101679705Y-65810323D01*
X101693140Y-65809000D01*
X102006860Y-65809000D01*
X102020295Y-65810323D01*
X102027309Y-65812451D01*
X102041077Y-65819810D01*
X102063716Y-65829187D01*
X102087749Y-65833967D01*
X102112253Y-65833967D01*
X102136286Y-65829186D01*
X102158923Y-65819810D01*
X102172691Y-65812451D01*
X102179705Y-65810323D01*
X102193140Y-65809000D01*
X102506860Y-65809000D01*
X102520295Y-65810323D01*
X102527309Y-65812451D01*
X102541077Y-65819810D01*
X102563716Y-65829187D01*
X102587749Y-65833967D01*
X102612253Y-65833967D01*
X102636286Y-65829186D01*
X102658923Y-65819810D01*
X102672691Y-65812451D01*
X102679705Y-65810323D01*
X102693140Y-65809000D01*
X103006860Y-65809000D01*
X103020295Y-65810323D01*
X103027309Y-65812451D01*
X103041077Y-65819810D01*
X103063716Y-65829187D01*
X103087749Y-65833967D01*
X103112253Y-65833967D01*
X103136286Y-65829186D01*
X103158923Y-65819810D01*
X103172691Y-65812451D01*
X103179705Y-65810323D01*
X103193140Y-65809000D01*
X103506860Y-65809000D01*
X103520295Y-65810323D01*
X103527309Y-65812451D01*
X103541077Y-65819810D01*
X103563716Y-65829187D01*
X103587749Y-65833967D01*
X103612253Y-65833967D01*
X103636286Y-65829186D01*
X103658923Y-65819810D01*
X103672691Y-65812451D01*
X103679705Y-65810323D01*
X103693140Y-65809000D01*
X104006860Y-65809000D01*
X104020295Y-65810323D01*
X104027309Y-65812451D01*
X104041077Y-65819810D01*
X104063716Y-65829187D01*
X104087749Y-65833967D01*
X104112253Y-65833967D01*
X104136286Y-65829186D01*
X104158923Y-65819810D01*
X104172691Y-65812451D01*
X104179705Y-65810323D01*
X104193140Y-65809000D01*
X104506860Y-65809000D01*
X104520295Y-65810323D01*
X104527309Y-65812451D01*
X104541077Y-65819810D01*
X104563716Y-65829187D01*
X104587749Y-65833967D01*
X104612253Y-65833967D01*
X104636286Y-65829186D01*
X104658923Y-65819810D01*
X104672691Y-65812451D01*
X104679705Y-65810323D01*
X104693140Y-65809000D01*
X105006860Y-65809000D01*
X105020295Y-65810323D01*
X105027309Y-65812451D01*
X105041077Y-65819810D01*
X105063716Y-65829187D01*
X105087749Y-65833967D01*
X105112253Y-65833967D01*
X105136286Y-65829186D01*
X105158923Y-65819810D01*
X105172691Y-65812451D01*
X105179705Y-65810323D01*
X105193140Y-65809000D01*
X105506860Y-65809000D01*
X105520295Y-65810323D01*
X105527310Y-65812451D01*
X105533776Y-65815908D01*
X105539442Y-65820558D01*
X105544092Y-65826224D01*
X105547549Y-65832690D01*
X105549677Y-65839705D01*
X105551000Y-65853140D01*
X105551000Y-67416860D01*
X105549677Y-67430295D01*
X105547549Y-67437310D01*
X105544092Y-67443776D01*
X105539442Y-67449442D01*
X105533776Y-67454092D01*
X105527310Y-67457549D01*
X105520295Y-67459677D01*
X105506860Y-67461000D01*
X105193140Y-67461000D01*
X105179705Y-67459677D01*
X105172691Y-67457549D01*
X105158923Y-67450190D01*
X105136284Y-67440813D01*
X105112251Y-67436033D01*
X105087747Y-67436033D01*
X105063714Y-67440814D01*
X105041077Y-67450190D01*
X105027309Y-67457549D01*
X105020295Y-67459677D01*
X105006860Y-67461000D01*
X104693140Y-67461000D01*
X104679705Y-67459677D01*
X104672691Y-67457549D01*
X104658923Y-67450190D01*
X104636284Y-67440813D01*
X104612251Y-67436033D01*
X104587747Y-67436033D01*
X104563714Y-67440814D01*
X104541077Y-67450190D01*
X104527309Y-67457549D01*
X104520295Y-67459677D01*
X104506860Y-67461000D01*
X104193140Y-67461000D01*
X104179705Y-67459677D01*
X104172691Y-67457549D01*
X104158923Y-67450190D01*
X104136284Y-67440813D01*
X104112251Y-67436033D01*
X104087747Y-67436033D01*
X104063714Y-67440814D01*
X104041077Y-67450190D01*
X104027309Y-67457549D01*
X104020295Y-67459677D01*
X104006860Y-67461000D01*
X103693140Y-67461000D01*
X103679705Y-67459677D01*
X103672691Y-67457549D01*
X103658923Y-67450190D01*
X103636284Y-67440813D01*
X103612251Y-67436033D01*
X103587747Y-67436033D01*
X103563714Y-67440814D01*
X103541077Y-67450190D01*
X103527309Y-67457549D01*
X103520295Y-67459677D01*
X103506860Y-67461000D01*
X103193140Y-67461000D01*
X103179705Y-67459677D01*
X103172691Y-67457549D01*
X103158923Y-67450190D01*
X103136284Y-67440813D01*
X103112251Y-67436033D01*
X103087747Y-67436033D01*
X103063714Y-67440814D01*
X103041077Y-67450190D01*
X103027309Y-67457549D01*
X103020295Y-67459677D01*
X103006860Y-67461000D01*
X102693140Y-67461000D01*
X102679705Y-67459677D01*
X102672691Y-67457549D01*
X102658923Y-67450190D01*
X102636284Y-67440813D01*
X102612251Y-67436033D01*
X102587747Y-67436033D01*
X102563714Y-67440814D01*
X102541077Y-67450190D01*
X102527309Y-67457549D01*
X102520295Y-67459677D01*
X102506860Y-67461000D01*
X102193140Y-67461000D01*
X102179705Y-67459677D01*
X102172691Y-67457549D01*
X102158923Y-67450190D01*
X102136284Y-67440813D01*
X102112251Y-67436033D01*
X102087747Y-67436033D01*
X102063714Y-67440814D01*
X102041077Y-67450190D01*
X102027309Y-67457549D01*
X102020295Y-67459677D01*
X102006860Y-67461000D01*
X101693140Y-67461000D01*
X101679705Y-67459677D01*
X101672691Y-67457549D01*
X101658923Y-67450190D01*
X101636284Y-67440813D01*
X101612251Y-67436033D01*
X101587747Y-67436033D01*
X101563714Y-67440814D01*
X101541077Y-67450190D01*
X101527309Y-67457549D01*
X101520295Y-67459677D01*
X101506860Y-67461000D01*
X101193140Y-67461000D01*
X101179705Y-67459677D01*
X101172691Y-67457549D01*
X101158923Y-67450190D01*
X101136284Y-67440813D01*
X101112251Y-67436033D01*
X101087747Y-67436033D01*
X101063714Y-67440814D01*
X101041077Y-67450190D01*
X101027309Y-67457549D01*
X101020295Y-67459677D01*
X101006860Y-67461000D01*
X100693140Y-67461000D01*
X100679705Y-67459677D01*
X100672691Y-67457549D01*
X100658923Y-67450190D01*
X100636284Y-67440813D01*
X100612251Y-67436033D01*
X100587747Y-67436033D01*
X100563714Y-67440814D01*
X100541077Y-67450190D01*
X100527309Y-67457549D01*
X100520295Y-67459677D01*
X100506860Y-67461000D01*
X100193140Y-67461000D01*
X100179705Y-67459677D01*
X100172691Y-67457549D01*
X100158923Y-67450190D01*
X100136284Y-67440813D01*
X100112251Y-67436033D01*
X100087747Y-67436033D01*
X100063714Y-67440814D01*
X100041077Y-67450190D01*
X100027309Y-67457549D01*
X100020295Y-67459677D01*
X100006860Y-67461000D01*
X99693140Y-67461000D01*
X99679705Y-67459677D01*
X99672691Y-67457549D01*
X99658923Y-67450190D01*
X99636284Y-67440813D01*
X99612251Y-67436033D01*
X99587747Y-67436033D01*
X99563714Y-67440814D01*
X99541077Y-67450190D01*
X99527309Y-67457549D01*
X99520295Y-67459677D01*
X99506860Y-67461000D01*
X99193140Y-67461000D01*
X99179705Y-67459677D01*
X99172691Y-67457549D01*
X99158923Y-67450190D01*
X99136284Y-67440813D01*
X99112251Y-67436033D01*
X99087747Y-67436033D01*
X99063714Y-67440814D01*
X99041077Y-67450190D01*
X99027309Y-67457549D01*
X99020295Y-67459677D01*
X99006860Y-67461000D01*
X98693140Y-67461000D01*
X98679705Y-67459677D01*
X98672691Y-67457549D01*
X98658923Y-67450190D01*
X98636284Y-67440813D01*
X98612251Y-67436033D01*
X98587747Y-67436033D01*
X98563714Y-67440814D01*
X98541077Y-67450190D01*
X98527309Y-67457549D01*
X98520295Y-67459677D01*
X98506860Y-67461000D01*
X98193140Y-67461000D01*
X98179705Y-67459677D01*
X98172691Y-67457549D01*
X98158923Y-67450190D01*
X98136284Y-67440813D01*
X98112251Y-67436033D01*
X98087747Y-67436033D01*
X98063714Y-67440814D01*
X98041077Y-67450190D01*
X98027309Y-67457549D01*
X98020295Y-67459677D01*
X98006860Y-67461000D01*
X97693140Y-67461000D01*
X97679705Y-67459677D01*
X97672690Y-67457549D01*
X97666224Y-67454092D01*
X97660558Y-67449442D01*
X97655908Y-67443776D01*
X97652451Y-67437310D01*
X97650323Y-67430295D01*
X97649000Y-67416860D01*
X97649000Y-65853140D01*
X97650323Y-65839705D01*
X97652451Y-65832690D01*
X97655908Y-65826224D01*
X97660558Y-65820558D01*
X97666224Y-65815908D01*
X97672690Y-65812451D01*
X97679705Y-65810323D01*
X97693140Y-65809000D01*
X98006860Y-65809000D01*
X98020295Y-65810323D01*
G37*
G36*
X84416410Y-65005525D02*
G01*
X84501426Y-65031314D01*
X84579775Y-65073193D01*
X84648449Y-65129551D01*
X84704807Y-65198225D01*
X84746686Y-65276574D01*
X84772475Y-65361590D01*
X84781182Y-65450000D01*
X84772475Y-65538410D01*
X84746686Y-65623426D01*
X84704807Y-65701775D01*
X84648449Y-65770449D01*
X84579775Y-65826807D01*
X84501426Y-65868686D01*
X84416410Y-65894475D01*
X84350158Y-65901000D01*
X83705842Y-65901000D01*
X83639590Y-65894475D01*
X83554574Y-65868686D01*
X83476225Y-65826807D01*
X83407551Y-65770449D01*
X83351193Y-65701775D01*
X83309314Y-65623426D01*
X83283525Y-65538410D01*
X83274818Y-65450000D01*
X83283525Y-65361590D01*
X83309314Y-65276574D01*
X83351193Y-65198225D01*
X83407551Y-65129551D01*
X83476225Y-65073193D01*
X83554574Y-65031314D01*
X83639590Y-65005525D01*
X83705842Y-64999000D01*
X84350158Y-64999000D01*
X84416410Y-65005525D01*
G37*
G36*
X91437009Y-64035999D02*
G01*
X91439411Y-64060385D01*
X91446524Y-64083834D01*
X91458075Y-64105445D01*
X91473620Y-64124387D01*
X91482710Y-64132625D01*
X91495159Y-64142841D01*
X91542146Y-64200096D01*
X91577058Y-64265411D01*
X91598560Y-64336294D01*
X91604000Y-64391529D01*
X91604000Y-64728472D01*
X91598560Y-64783710D01*
X91577060Y-64854585D01*
X91542146Y-64919904D01*
X91495159Y-64977159D01*
X91437906Y-65024145D01*
X91372583Y-65059060D01*
X91301709Y-65080560D01*
X91228000Y-65087819D01*
X91154290Y-65080560D01*
X91083415Y-65059060D01*
X91018096Y-65024146D01*
X90960842Y-64977159D01*
X90948645Y-64962297D01*
X90931318Y-64944970D01*
X90910944Y-64931356D01*
X90888305Y-64921979D01*
X90864272Y-64917198D01*
X90839768Y-64917198D01*
X90815735Y-64921978D01*
X90793096Y-64931355D01*
X90772721Y-64944969D01*
X90755394Y-64962296D01*
X90741780Y-64982670D01*
X90732403Y-65005309D01*
X90727622Y-65029342D01*
X90727622Y-65053846D01*
X90731182Y-65089999D01*
X90722475Y-65178410D01*
X90696686Y-65263426D01*
X90654807Y-65341775D01*
X90598449Y-65410449D01*
X90529775Y-65466807D01*
X90451426Y-65508686D01*
X90366410Y-65534475D01*
X90300158Y-65541000D01*
X89655842Y-65541000D01*
X89589590Y-65534475D01*
X89504574Y-65508686D01*
X89426225Y-65466807D01*
X89357551Y-65410449D01*
X89301193Y-65341775D01*
X89259314Y-65263426D01*
X89233525Y-65178410D01*
X89224818Y-65090000D01*
X89233525Y-65001590D01*
X89259314Y-64916574D01*
X89301193Y-64838225D01*
X89357551Y-64769551D01*
X89426225Y-64713193D01*
X89504574Y-64671314D01*
X89589590Y-64645525D01*
X89655842Y-64639000D01*
X90300158Y-64639000D01*
X90366410Y-64645525D01*
X90451426Y-64671314D01*
X90529775Y-64713193D01*
X90598449Y-64769552D01*
X90630375Y-64808454D01*
X90647702Y-64825781D01*
X90668077Y-64839395D01*
X90690715Y-64848772D01*
X90714749Y-64853553D01*
X90739253Y-64853553D01*
X90763286Y-64848773D01*
X90785925Y-64839395D01*
X90806299Y-64825782D01*
X90823626Y-64808455D01*
X90837240Y-64788080D01*
X90846617Y-64765442D01*
X90851398Y-64741408D01*
X90852000Y-64729156D01*
X90852000Y-64391528D01*
X90857440Y-64336292D01*
X90868191Y-64300853D01*
X90878941Y-64265415D01*
X90913856Y-64200095D01*
X90960842Y-64142841D01*
X91018097Y-64095854D01*
X91083416Y-64060940D01*
X91154291Y-64039440D01*
X91228000Y-64032181D01*
X91301707Y-64039440D01*
X91325716Y-64046723D01*
X91349750Y-64051503D01*
X91374254Y-64051503D01*
X91398287Y-64046722D01*
X91420926Y-64037345D01*
X91438000Y-64025936D01*
X91437009Y-64035999D01*
G37*
G36*
X108070295Y-57010323D02*
G01*
X108077310Y-57012451D01*
X108083776Y-57015908D01*
X108089442Y-57020558D01*
X108094092Y-57026224D01*
X108097549Y-57032690D01*
X108099677Y-57039705D01*
X108101000Y-57053140D01*
X108101000Y-57366860D01*
X108099677Y-57380295D01*
X108097549Y-57387309D01*
X108090190Y-57401077D01*
X108080813Y-57423716D01*
X108076033Y-57447749D01*
X108076033Y-57472253D01*
X108080814Y-57496286D01*
X108090190Y-57518923D01*
X108097549Y-57532691D01*
X108099677Y-57539705D01*
X108101000Y-57553140D01*
X108101000Y-57866860D01*
X108099677Y-57880295D01*
X108097549Y-57887309D01*
X108090190Y-57901077D01*
X108080813Y-57923716D01*
X108076033Y-57947749D01*
X108076033Y-57972253D01*
X108080814Y-57996286D01*
X108090190Y-58018923D01*
X108097549Y-58032691D01*
X108099677Y-58039705D01*
X108101000Y-58053140D01*
X108101000Y-58366860D01*
X108099677Y-58380295D01*
X108097549Y-58387309D01*
X108090190Y-58401077D01*
X108080813Y-58423716D01*
X108076033Y-58447749D01*
X108076033Y-58472253D01*
X108080814Y-58496286D01*
X108090190Y-58518923D01*
X108097549Y-58532691D01*
X108099677Y-58539705D01*
X108101000Y-58553140D01*
X108101000Y-58866860D01*
X108099677Y-58880295D01*
X108097549Y-58887309D01*
X108090190Y-58901077D01*
X108080813Y-58923716D01*
X108076033Y-58947749D01*
X108076033Y-58972253D01*
X108080814Y-58996286D01*
X108090190Y-59018923D01*
X108097549Y-59032691D01*
X108099677Y-59039705D01*
X108101000Y-59053140D01*
X108101000Y-59366860D01*
X108099677Y-59380295D01*
X108097549Y-59387309D01*
X108090190Y-59401077D01*
X108080813Y-59423716D01*
X108076033Y-59447749D01*
X108076033Y-59472253D01*
X108080814Y-59496286D01*
X108090190Y-59518923D01*
X108097549Y-59532691D01*
X108099677Y-59539705D01*
X108101000Y-59553140D01*
X108101000Y-59866860D01*
X108099677Y-59880295D01*
X108097549Y-59887309D01*
X108090190Y-59901077D01*
X108080813Y-59923716D01*
X108076033Y-59947749D01*
X108076033Y-59972253D01*
X108080814Y-59996286D01*
X108090190Y-60018923D01*
X108097549Y-60032691D01*
X108099677Y-60039705D01*
X108101000Y-60053140D01*
X108101000Y-60366860D01*
X108099677Y-60380295D01*
X108097549Y-60387309D01*
X108090190Y-60401077D01*
X108080813Y-60423716D01*
X108076033Y-60447749D01*
X108076033Y-60472253D01*
X108080814Y-60496286D01*
X108090190Y-60518923D01*
X108097549Y-60532691D01*
X108099677Y-60539705D01*
X108101000Y-60553140D01*
X108101000Y-60866860D01*
X108099677Y-60880295D01*
X108097549Y-60887309D01*
X108090190Y-60901077D01*
X108080813Y-60923716D01*
X108076033Y-60947749D01*
X108076033Y-60972253D01*
X108080814Y-60996286D01*
X108090190Y-61018923D01*
X108097549Y-61032691D01*
X108099677Y-61039705D01*
X108101000Y-61053140D01*
X108101000Y-61366860D01*
X108099677Y-61380295D01*
X108097549Y-61387309D01*
X108090190Y-61401077D01*
X108080813Y-61423716D01*
X108076033Y-61447749D01*
X108076033Y-61472253D01*
X108080814Y-61496286D01*
X108090190Y-61518923D01*
X108097549Y-61532691D01*
X108099677Y-61539705D01*
X108101000Y-61553140D01*
X108101000Y-61866860D01*
X108099677Y-61880295D01*
X108097549Y-61887309D01*
X108090190Y-61901077D01*
X108080813Y-61923716D01*
X108076033Y-61947749D01*
X108076033Y-61972253D01*
X108080814Y-61996286D01*
X108090190Y-62018923D01*
X108097549Y-62032691D01*
X108099677Y-62039705D01*
X108101000Y-62053140D01*
X108101000Y-62366860D01*
X108099677Y-62380295D01*
X108097549Y-62387309D01*
X108090190Y-62401077D01*
X108080813Y-62423716D01*
X108076033Y-62447749D01*
X108076033Y-62472253D01*
X108080814Y-62496286D01*
X108090190Y-62518923D01*
X108097549Y-62532691D01*
X108099677Y-62539705D01*
X108101000Y-62553140D01*
X108101000Y-62866860D01*
X108099677Y-62880295D01*
X108097549Y-62887309D01*
X108090190Y-62901077D01*
X108080813Y-62923716D01*
X108076033Y-62947749D01*
X108076033Y-62972253D01*
X108080814Y-62996286D01*
X108090190Y-63018923D01*
X108097549Y-63032691D01*
X108099677Y-63039705D01*
X108101000Y-63053140D01*
X108101000Y-63366860D01*
X108099677Y-63380295D01*
X108097549Y-63387309D01*
X108090190Y-63401077D01*
X108080813Y-63423716D01*
X108076033Y-63447749D01*
X108076033Y-63472253D01*
X108080814Y-63496286D01*
X108090190Y-63518923D01*
X108097549Y-63532691D01*
X108099677Y-63539705D01*
X108101000Y-63553140D01*
X108101000Y-63866860D01*
X108099677Y-63880295D01*
X108097549Y-63887309D01*
X108090190Y-63901077D01*
X108080813Y-63923716D01*
X108076033Y-63947749D01*
X108076033Y-63972253D01*
X108080814Y-63996286D01*
X108090190Y-64018923D01*
X108097549Y-64032691D01*
X108099677Y-64039705D01*
X108101000Y-64053140D01*
X108101000Y-64366860D01*
X108099677Y-64380295D01*
X108097549Y-64387309D01*
X108090190Y-64401077D01*
X108080813Y-64423716D01*
X108076033Y-64447749D01*
X108076033Y-64472253D01*
X108080814Y-64496286D01*
X108090190Y-64518923D01*
X108097549Y-64532691D01*
X108099677Y-64539705D01*
X108101000Y-64553140D01*
X108101000Y-64866860D01*
X108099677Y-64880295D01*
X108097549Y-64887310D01*
X108094092Y-64893776D01*
X108089442Y-64899442D01*
X108083776Y-64904092D01*
X108077310Y-64907549D01*
X108070295Y-64909677D01*
X108056860Y-64911000D01*
X106493140Y-64911000D01*
X106479705Y-64909677D01*
X106472690Y-64907549D01*
X106466224Y-64904092D01*
X106460558Y-64899442D01*
X106455908Y-64893776D01*
X106452451Y-64887310D01*
X106450323Y-64880295D01*
X106449000Y-64866860D01*
X106449000Y-64553140D01*
X106450323Y-64539705D01*
X106452451Y-64532691D01*
X106459810Y-64518923D01*
X106469187Y-64496284D01*
X106473967Y-64472251D01*
X106473967Y-64447747D01*
X106469186Y-64423714D01*
X106459810Y-64401077D01*
X106452451Y-64387309D01*
X106450323Y-64380295D01*
X106449000Y-64366860D01*
X106449000Y-64053140D01*
X106450323Y-64039705D01*
X106452451Y-64032691D01*
X106459810Y-64018923D01*
X106469187Y-63996284D01*
X106473967Y-63972251D01*
X106473967Y-63947747D01*
X106469186Y-63923714D01*
X106459810Y-63901077D01*
X106452451Y-63887309D01*
X106450323Y-63880295D01*
X106449000Y-63866860D01*
X106449000Y-63553140D01*
X106450323Y-63539705D01*
X106452451Y-63532691D01*
X106459810Y-63518923D01*
X106469187Y-63496284D01*
X106473967Y-63472251D01*
X106473967Y-63447747D01*
X106469186Y-63423714D01*
X106459810Y-63401077D01*
X106452451Y-63387309D01*
X106450323Y-63380295D01*
X106449000Y-63366860D01*
X106449000Y-63053140D01*
X106450323Y-63039705D01*
X106452451Y-63032691D01*
X106459810Y-63018923D01*
X106469187Y-62996284D01*
X106473967Y-62972251D01*
X106473967Y-62947747D01*
X106469186Y-62923714D01*
X106459810Y-62901077D01*
X106452451Y-62887309D01*
X106450323Y-62880295D01*
X106449000Y-62866860D01*
X106449000Y-62553140D01*
X106450323Y-62539705D01*
X106452451Y-62532691D01*
X106459810Y-62518923D01*
X106469187Y-62496284D01*
X106473967Y-62472251D01*
X106473967Y-62447747D01*
X106469186Y-62423714D01*
X106459810Y-62401077D01*
X106452451Y-62387309D01*
X106450323Y-62380295D01*
X106449000Y-62366860D01*
X106449000Y-62053140D01*
X106450323Y-62039705D01*
X106452451Y-62032691D01*
X106459810Y-62018923D01*
X106469187Y-61996284D01*
X106473967Y-61972251D01*
X106473967Y-61947747D01*
X106469186Y-61923714D01*
X106459810Y-61901077D01*
X106452451Y-61887309D01*
X106450323Y-61880295D01*
X106449000Y-61866860D01*
X106449000Y-61553140D01*
X106450323Y-61539705D01*
X106452451Y-61532691D01*
X106459810Y-61518923D01*
X106469187Y-61496284D01*
X106473967Y-61472251D01*
X106473967Y-61447747D01*
X106469186Y-61423714D01*
X106459810Y-61401077D01*
X106452451Y-61387309D01*
X106450323Y-61380295D01*
X106449000Y-61366860D01*
X106449000Y-61053140D01*
X106450323Y-61039705D01*
X106452451Y-61032691D01*
X106459810Y-61018923D01*
X106469187Y-60996284D01*
X106473967Y-60972251D01*
X106473967Y-60947747D01*
X106469186Y-60923714D01*
X106459810Y-60901077D01*
X106452451Y-60887309D01*
X106450323Y-60880295D01*
X106449000Y-60866860D01*
X106449000Y-60553140D01*
X106450323Y-60539705D01*
X106452451Y-60532691D01*
X106459810Y-60518923D01*
X106469187Y-60496284D01*
X106473967Y-60472251D01*
X106473967Y-60447747D01*
X106469186Y-60423714D01*
X106459810Y-60401077D01*
X106452451Y-60387309D01*
X106450323Y-60380295D01*
X106449000Y-60366860D01*
X106449000Y-60053140D01*
X106450323Y-60039705D01*
X106452451Y-60032691D01*
X106459810Y-60018923D01*
X106469187Y-59996284D01*
X106473967Y-59972251D01*
X106473967Y-59947747D01*
X106469186Y-59923714D01*
X106459810Y-59901077D01*
X106452451Y-59887309D01*
X106450323Y-59880295D01*
X106449000Y-59866860D01*
X106449000Y-59553140D01*
X106450323Y-59539705D01*
X106452451Y-59532691D01*
X106459810Y-59518923D01*
X106469187Y-59496284D01*
X106473967Y-59472251D01*
X106473967Y-59447747D01*
X106469186Y-59423714D01*
X106459810Y-59401077D01*
X106452451Y-59387309D01*
X106450323Y-59380295D01*
X106449000Y-59366860D01*
X106449000Y-59053140D01*
X106450323Y-59039705D01*
X106452451Y-59032691D01*
X106459810Y-59018923D01*
X106469187Y-58996284D01*
X106473967Y-58972251D01*
X106473967Y-58947747D01*
X106469186Y-58923714D01*
X106459810Y-58901077D01*
X106452451Y-58887309D01*
X106450323Y-58880295D01*
X106449000Y-58866860D01*
X106449000Y-58553140D01*
X106450323Y-58539705D01*
X106452451Y-58532691D01*
X106459810Y-58518923D01*
X106469187Y-58496284D01*
X106473967Y-58472251D01*
X106473967Y-58447747D01*
X106469186Y-58423714D01*
X106459810Y-58401077D01*
X106452451Y-58387309D01*
X106450323Y-58380295D01*
X106449000Y-58366860D01*
X106449000Y-58053140D01*
X106450323Y-58039705D01*
X106452451Y-58032691D01*
X106459810Y-58018923D01*
X106469187Y-57996284D01*
X106473967Y-57972251D01*
X106473967Y-57947747D01*
X106469186Y-57923714D01*
X106459810Y-57901077D01*
X106452451Y-57887309D01*
X106450323Y-57880295D01*
X106449000Y-57866860D01*
X106449000Y-57553140D01*
X106450323Y-57539705D01*
X106452451Y-57532691D01*
X106459810Y-57518923D01*
X106469187Y-57496284D01*
X106473967Y-57472251D01*
X106473967Y-57447747D01*
X106469186Y-57423714D01*
X106459810Y-57401077D01*
X106452451Y-57387309D01*
X106450323Y-57380295D01*
X106449000Y-57366860D01*
X106449000Y-57053140D01*
X106450323Y-57039705D01*
X106452451Y-57032690D01*
X106455908Y-57026224D01*
X106460558Y-57020558D01*
X106466224Y-57015908D01*
X106472690Y-57012451D01*
X106479705Y-57010323D01*
X106493140Y-57009000D01*
X108056860Y-57009000D01*
X108070295Y-57010323D01*
G37*
G36*
X96720295Y-57010323D02*
G01*
X96727310Y-57012451D01*
X96733776Y-57015908D01*
X96739442Y-57020558D01*
X96744092Y-57026224D01*
X96747549Y-57032690D01*
X96749677Y-57039705D01*
X96751000Y-57053140D01*
X96751000Y-57366860D01*
X96749677Y-57380295D01*
X96747549Y-57387309D01*
X96740190Y-57401077D01*
X96730813Y-57423716D01*
X96726033Y-57447749D01*
X96726033Y-57472253D01*
X96730814Y-57496286D01*
X96740190Y-57518923D01*
X96747549Y-57532691D01*
X96749677Y-57539705D01*
X96751000Y-57553140D01*
X96751000Y-57866860D01*
X96749677Y-57880295D01*
X96747549Y-57887309D01*
X96740190Y-57901077D01*
X96730813Y-57923716D01*
X96726033Y-57947749D01*
X96726033Y-57972253D01*
X96730814Y-57996286D01*
X96740190Y-58018923D01*
X96747549Y-58032691D01*
X96749677Y-58039705D01*
X96751000Y-58053140D01*
X96751000Y-58366860D01*
X96749677Y-58380295D01*
X96747549Y-58387309D01*
X96740190Y-58401077D01*
X96730813Y-58423716D01*
X96726033Y-58447749D01*
X96726033Y-58472253D01*
X96730814Y-58496286D01*
X96740190Y-58518923D01*
X96747549Y-58532691D01*
X96749677Y-58539705D01*
X96751000Y-58553140D01*
X96751000Y-58866860D01*
X96749677Y-58880295D01*
X96747549Y-58887309D01*
X96740190Y-58901077D01*
X96730813Y-58923716D01*
X96726033Y-58947749D01*
X96726033Y-58972253D01*
X96730814Y-58996286D01*
X96740190Y-59018923D01*
X96747549Y-59032691D01*
X96749677Y-59039705D01*
X96751000Y-59053140D01*
X96751000Y-59366860D01*
X96749677Y-59380295D01*
X96747549Y-59387309D01*
X96740190Y-59401077D01*
X96730813Y-59423716D01*
X96726033Y-59447749D01*
X96726033Y-59472253D01*
X96730814Y-59496286D01*
X96740190Y-59518923D01*
X96747549Y-59532691D01*
X96749677Y-59539705D01*
X96751000Y-59553140D01*
X96751000Y-59866860D01*
X96749677Y-59880295D01*
X96747549Y-59887309D01*
X96740190Y-59901077D01*
X96730813Y-59923716D01*
X96726033Y-59947749D01*
X96726033Y-59972253D01*
X96730814Y-59996286D01*
X96740190Y-60018923D01*
X96747549Y-60032691D01*
X96749677Y-60039705D01*
X96751000Y-60053140D01*
X96751000Y-60366860D01*
X96749677Y-60380295D01*
X96747549Y-60387309D01*
X96740190Y-60401077D01*
X96730813Y-60423716D01*
X96726033Y-60447749D01*
X96726033Y-60472253D01*
X96730814Y-60496286D01*
X96740190Y-60518923D01*
X96747549Y-60532691D01*
X96749677Y-60539705D01*
X96751000Y-60553140D01*
X96751000Y-60866860D01*
X96749677Y-60880295D01*
X96747549Y-60887309D01*
X96740190Y-60901077D01*
X96730813Y-60923716D01*
X96726033Y-60947749D01*
X96726033Y-60972253D01*
X96730814Y-60996286D01*
X96740190Y-61018923D01*
X96747549Y-61032691D01*
X96749677Y-61039705D01*
X96751000Y-61053140D01*
X96751000Y-61366860D01*
X96749677Y-61380295D01*
X96747549Y-61387309D01*
X96740190Y-61401077D01*
X96730813Y-61423716D01*
X96726033Y-61447749D01*
X96726033Y-61472253D01*
X96730814Y-61496286D01*
X96740190Y-61518923D01*
X96747549Y-61532691D01*
X96749677Y-61539705D01*
X96751000Y-61553140D01*
X96751000Y-61866860D01*
X96749677Y-61880295D01*
X96747549Y-61887309D01*
X96740190Y-61901077D01*
X96730813Y-61923716D01*
X96726033Y-61947749D01*
X96726033Y-61972253D01*
X96730814Y-61996286D01*
X96740190Y-62018923D01*
X96747549Y-62032691D01*
X96749677Y-62039705D01*
X96751000Y-62053140D01*
X96751000Y-62366860D01*
X96749677Y-62380295D01*
X96747549Y-62387309D01*
X96740190Y-62401077D01*
X96730813Y-62423716D01*
X96726033Y-62447749D01*
X96726033Y-62472253D01*
X96730814Y-62496286D01*
X96740190Y-62518923D01*
X96747549Y-62532691D01*
X96749677Y-62539705D01*
X96751000Y-62553140D01*
X96751000Y-62866860D01*
X96749677Y-62880295D01*
X96747549Y-62887309D01*
X96740190Y-62901077D01*
X96730813Y-62923716D01*
X96726033Y-62947749D01*
X96726033Y-62972253D01*
X96730814Y-62996286D01*
X96740190Y-63018923D01*
X96747549Y-63032691D01*
X96749677Y-63039705D01*
X96751000Y-63053140D01*
X96751000Y-63366860D01*
X96749677Y-63380295D01*
X96747549Y-63387309D01*
X96740190Y-63401077D01*
X96730813Y-63423716D01*
X96726033Y-63447749D01*
X96726033Y-63472253D01*
X96730814Y-63496286D01*
X96740190Y-63518923D01*
X96747549Y-63532691D01*
X96749677Y-63539705D01*
X96751000Y-63553140D01*
X96751000Y-63866860D01*
X96749677Y-63880295D01*
X96747549Y-63887309D01*
X96740190Y-63901077D01*
X96730813Y-63923716D01*
X96726033Y-63947749D01*
X96726033Y-63972253D01*
X96730814Y-63996286D01*
X96740190Y-64018923D01*
X96747549Y-64032691D01*
X96749677Y-64039705D01*
X96751000Y-64053140D01*
X96751000Y-64366860D01*
X96749677Y-64380295D01*
X96747549Y-64387309D01*
X96740190Y-64401077D01*
X96730813Y-64423716D01*
X96726033Y-64447749D01*
X96726033Y-64472253D01*
X96730814Y-64496286D01*
X96740190Y-64518923D01*
X96747549Y-64532691D01*
X96749677Y-64539705D01*
X96751000Y-64553140D01*
X96751000Y-64866860D01*
X96749677Y-64880295D01*
X96747549Y-64887310D01*
X96744092Y-64893776D01*
X96739442Y-64899442D01*
X96733776Y-64904092D01*
X96727310Y-64907549D01*
X96720295Y-64909677D01*
X96706860Y-64911000D01*
X95143140Y-64911000D01*
X95129705Y-64909677D01*
X95122690Y-64907549D01*
X95116224Y-64904092D01*
X95110558Y-64899442D01*
X95105908Y-64893776D01*
X95102451Y-64887310D01*
X95100323Y-64880295D01*
X95099000Y-64866860D01*
X95099000Y-64553140D01*
X95100323Y-64539705D01*
X95102451Y-64532691D01*
X95109810Y-64518923D01*
X95119187Y-64496284D01*
X95123967Y-64472251D01*
X95123967Y-64447747D01*
X95119186Y-64423714D01*
X95109810Y-64401077D01*
X95102451Y-64387309D01*
X95100323Y-64380295D01*
X95099000Y-64366860D01*
X95099000Y-64053140D01*
X95100323Y-64039705D01*
X95102451Y-64032691D01*
X95109810Y-64018923D01*
X95119187Y-63996284D01*
X95123967Y-63972251D01*
X95123967Y-63947747D01*
X95119186Y-63923714D01*
X95109810Y-63901077D01*
X95102451Y-63887309D01*
X95100323Y-63880295D01*
X95099000Y-63866860D01*
X95099000Y-63553140D01*
X95100323Y-63539705D01*
X95102451Y-63532691D01*
X95109810Y-63518923D01*
X95119187Y-63496284D01*
X95123967Y-63472251D01*
X95123967Y-63447747D01*
X95119186Y-63423714D01*
X95109810Y-63401077D01*
X95102451Y-63387309D01*
X95100323Y-63380295D01*
X95099000Y-63366860D01*
X95099000Y-63053140D01*
X95100323Y-63039705D01*
X95102451Y-63032691D01*
X95109810Y-63018923D01*
X95119187Y-62996284D01*
X95123967Y-62972251D01*
X95123967Y-62947747D01*
X95119186Y-62923714D01*
X95109810Y-62901077D01*
X95102451Y-62887309D01*
X95100323Y-62880295D01*
X95099000Y-62866860D01*
X95099000Y-62553140D01*
X95100323Y-62539705D01*
X95102451Y-62532691D01*
X95109810Y-62518923D01*
X95119187Y-62496284D01*
X95123967Y-62472251D01*
X95123967Y-62447747D01*
X95119186Y-62423714D01*
X95109810Y-62401077D01*
X95102451Y-62387309D01*
X95100323Y-62380295D01*
X95099000Y-62366860D01*
X95099000Y-62053140D01*
X95100323Y-62039705D01*
X95102451Y-62032691D01*
X95109810Y-62018923D01*
X95119187Y-61996284D01*
X95123967Y-61972251D01*
X95123967Y-61947747D01*
X95119186Y-61923714D01*
X95109810Y-61901077D01*
X95102451Y-61887309D01*
X95100323Y-61880295D01*
X95099000Y-61866860D01*
X95099000Y-61553140D01*
X95100323Y-61539705D01*
X95102451Y-61532691D01*
X95109810Y-61518923D01*
X95119187Y-61496284D01*
X95123967Y-61472251D01*
X95123967Y-61447747D01*
X95119186Y-61423714D01*
X95109810Y-61401077D01*
X95102451Y-61387309D01*
X95100323Y-61380295D01*
X95099000Y-61366860D01*
X95099000Y-61053140D01*
X95100323Y-61039705D01*
X95102451Y-61032691D01*
X95109810Y-61018923D01*
X95119187Y-60996284D01*
X95123967Y-60972251D01*
X95123967Y-60947747D01*
X95119186Y-60923714D01*
X95109810Y-60901077D01*
X95102451Y-60887309D01*
X95100323Y-60880295D01*
X95099000Y-60866860D01*
X95099000Y-60553140D01*
X95100323Y-60539705D01*
X95102451Y-60532691D01*
X95109810Y-60518923D01*
X95119187Y-60496284D01*
X95123967Y-60472251D01*
X95123967Y-60447747D01*
X95119186Y-60423714D01*
X95109810Y-60401077D01*
X95102451Y-60387309D01*
X95100323Y-60380295D01*
X95099000Y-60366860D01*
X95099000Y-60053140D01*
X95100323Y-60039705D01*
X95102451Y-60032691D01*
X95109810Y-60018923D01*
X95119187Y-59996284D01*
X95123967Y-59972251D01*
X95123967Y-59947747D01*
X95119186Y-59923714D01*
X95109810Y-59901077D01*
X95102451Y-59887309D01*
X95100323Y-59880295D01*
X95099000Y-59866860D01*
X95099000Y-59553140D01*
X95100323Y-59539705D01*
X95102451Y-59532691D01*
X95109810Y-59518923D01*
X95119187Y-59496284D01*
X95123967Y-59472251D01*
X95123967Y-59447747D01*
X95119186Y-59423714D01*
X95109810Y-59401077D01*
X95102451Y-59387309D01*
X95100323Y-59380295D01*
X95099000Y-59366860D01*
X95099000Y-59053140D01*
X95100323Y-59039705D01*
X95102451Y-59032691D01*
X95109810Y-59018923D01*
X95119187Y-58996284D01*
X95123967Y-58972251D01*
X95123967Y-58947747D01*
X95119186Y-58923714D01*
X95109810Y-58901077D01*
X95102451Y-58887309D01*
X95100323Y-58880295D01*
X95099000Y-58866860D01*
X95099000Y-58553140D01*
X95100323Y-58539705D01*
X95102451Y-58532691D01*
X95109810Y-58518923D01*
X95119187Y-58496284D01*
X95123967Y-58472251D01*
X95123967Y-58447747D01*
X95119186Y-58423714D01*
X95109810Y-58401077D01*
X95102451Y-58387309D01*
X95100323Y-58380295D01*
X95099000Y-58366860D01*
X95099000Y-58053140D01*
X95100323Y-58039705D01*
X95102451Y-58032691D01*
X95109810Y-58018923D01*
X95119187Y-57996284D01*
X95123967Y-57972251D01*
X95123967Y-57947747D01*
X95119186Y-57923714D01*
X95109810Y-57901077D01*
X95102451Y-57887309D01*
X95100323Y-57880295D01*
X95099000Y-57866860D01*
X95099000Y-57553140D01*
X95100323Y-57539705D01*
X95102451Y-57532691D01*
X95109810Y-57518923D01*
X95119187Y-57496284D01*
X95123967Y-57472251D01*
X95123967Y-57447747D01*
X95119186Y-57423714D01*
X95109810Y-57401077D01*
X95102451Y-57387309D01*
X95100323Y-57380295D01*
X95099000Y-57366860D01*
X95099000Y-57053140D01*
X95100323Y-57039705D01*
X95102451Y-57032690D01*
X95105908Y-57026224D01*
X95110558Y-57020558D01*
X95116224Y-57015908D01*
X95122690Y-57012451D01*
X95129705Y-57010323D01*
X95143140Y-57009000D01*
X96706860Y-57009000D01*
X96720295Y-57010323D01*
G37*
G36*
X113677000Y-64147000D02*
G01*
X111875000Y-64147000D01*
X111875000Y-62345000D01*
X113677000Y-62345000D01*
X113677000Y-64147000D01*
G37*
G36*
X92289000Y-63911000D02*
G01*
X91562008Y-63911000D01*
X91537622Y-63913402D01*
X91514173Y-63920515D01*
X91492562Y-63932066D01*
X91485391Y-63937951D01*
X91487000Y-63927106D01*
X91487000Y-58009000D01*
X92289000Y-58009000D01*
X92289000Y-63911000D01*
G37*
G36*
X90589000Y-63661000D02*
G01*
X89787000Y-63661000D01*
X89787000Y-57759000D01*
X90589000Y-57759000D01*
X90589000Y-63661000D01*
G37*
G36*
X112889512Y-59809927D02*
G01*
X113038812Y-59839624D01*
X113202784Y-59907544D01*
X113350354Y-60006147D01*
X113475853Y-60131646D01*
X113574456Y-60279216D01*
X113642376Y-60443188D01*
X113677000Y-60617259D01*
X113677000Y-60794741D01*
X113642376Y-60968812D01*
X113574456Y-61132784D01*
X113475853Y-61280354D01*
X113350354Y-61405853D01*
X113202784Y-61504456D01*
X113038812Y-61572376D01*
X112889512Y-61602073D01*
X112864742Y-61607000D01*
X112687258Y-61607000D01*
X112662488Y-61602073D01*
X112513188Y-61572376D01*
X112349216Y-61504456D01*
X112201646Y-61405853D01*
X112076147Y-61280354D01*
X111977544Y-61132784D01*
X111909624Y-60968812D01*
X111875000Y-60794741D01*
X111875000Y-60617259D01*
X111909624Y-60443188D01*
X111977544Y-60279216D01*
X112076147Y-60131646D01*
X112201646Y-60006147D01*
X112349216Y-59907544D01*
X112513188Y-59839624D01*
X112662488Y-59809927D01*
X112687258Y-59805000D01*
X112864742Y-59805000D01*
X112889512Y-59809927D01*
G37*
G36*
X91337672Y-56998449D02*
G01*
X91337674Y-56998450D01*
X91337675Y-56998450D01*
X91406103Y-57026793D01*
X91467686Y-57067942D01*
X91520058Y-57120314D01*
X91561207Y-57181897D01*
X91588871Y-57248686D01*
X91589551Y-57250328D01*
X91604000Y-57322966D01*
X91604000Y-57397034D01*
X91602744Y-57403350D01*
X91589550Y-57469675D01*
X91561207Y-57538103D01*
X91520058Y-57599686D01*
X91467686Y-57652058D01*
X91406103Y-57693207D01*
X91337675Y-57721550D01*
X91337674Y-57721550D01*
X91337672Y-57721551D01*
X91265034Y-57736000D01*
X91190966Y-57736000D01*
X91118328Y-57721551D01*
X91118326Y-57721550D01*
X91118325Y-57721550D01*
X91049897Y-57693207D01*
X90988314Y-57652058D01*
X90935942Y-57599686D01*
X90894793Y-57538103D01*
X90866450Y-57469675D01*
X90853257Y-57403350D01*
X90852000Y-57397034D01*
X90852000Y-57322966D01*
X90866449Y-57250328D01*
X90867129Y-57248686D01*
X90894793Y-57181897D01*
X90935942Y-57120314D01*
X90988314Y-57067942D01*
X91049897Y-57026793D01*
X91118325Y-56998450D01*
X91118326Y-56998450D01*
X91118328Y-56998449D01*
X91190966Y-56984000D01*
X91265034Y-56984000D01*
X91337672Y-56998449D01*
G37*
G36*
X90366410Y-56385525D02*
G01*
X90451426Y-56411314D01*
X90529775Y-56453193D01*
X90598449Y-56509551D01*
X90654807Y-56578225D01*
X90696686Y-56656574D01*
X90722475Y-56741590D01*
X90731182Y-56830000D01*
X90722475Y-56918410D01*
X90696686Y-57003426D01*
X90654807Y-57081775D01*
X90598449Y-57150449D01*
X90529775Y-57206807D01*
X90451426Y-57248686D01*
X90366410Y-57274475D01*
X90300158Y-57281000D01*
X89655842Y-57281000D01*
X89589590Y-57274475D01*
X89504574Y-57248686D01*
X89426225Y-57206807D01*
X89357551Y-57150449D01*
X89301193Y-57081775D01*
X89259314Y-57003426D01*
X89233525Y-56918410D01*
X89224818Y-56830000D01*
X89233525Y-56741590D01*
X89259314Y-56656574D01*
X89301193Y-56578225D01*
X89357551Y-56509551D01*
X89426225Y-56453193D01*
X89504574Y-56411314D01*
X89589590Y-56385525D01*
X89655842Y-56379000D01*
X90300158Y-56379000D01*
X90366410Y-56385525D01*
G37*
G36*
X84416410Y-56025525D02*
G01*
X84501426Y-56051314D01*
X84579775Y-56093193D01*
X84648449Y-56149551D01*
X84704807Y-56218225D01*
X84746686Y-56296574D01*
X84772475Y-56381590D01*
X84781182Y-56470000D01*
X84772475Y-56558410D01*
X84746686Y-56643426D01*
X84704807Y-56721775D01*
X84648449Y-56790449D01*
X84579775Y-56846807D01*
X84501426Y-56888686D01*
X84416410Y-56914475D01*
X84350158Y-56921000D01*
X83705842Y-56921000D01*
X83639590Y-56914475D01*
X83554574Y-56888686D01*
X83476225Y-56846807D01*
X83407551Y-56790449D01*
X83351193Y-56721775D01*
X83309314Y-56643426D01*
X83283525Y-56558410D01*
X83274818Y-56470000D01*
X83283525Y-56381590D01*
X83309314Y-56296574D01*
X83351193Y-56218225D01*
X83407551Y-56149551D01*
X83476225Y-56093193D01*
X83554574Y-56051314D01*
X83639590Y-56025525D01*
X83705842Y-56019000D01*
X84350158Y-56019000D01*
X84416410Y-56025525D01*
G37*
G36*
X98020295Y-54460323D02*
G01*
X98027309Y-54462451D01*
X98041077Y-54469810D01*
X98063716Y-54479187D01*
X98087749Y-54483967D01*
X98112253Y-54483967D01*
X98136286Y-54479186D01*
X98158923Y-54469810D01*
X98172691Y-54462451D01*
X98179705Y-54460323D01*
X98193140Y-54459000D01*
X98506860Y-54459000D01*
X98520295Y-54460323D01*
X98527309Y-54462451D01*
X98541077Y-54469810D01*
X98563716Y-54479187D01*
X98587749Y-54483967D01*
X98612253Y-54483967D01*
X98636286Y-54479186D01*
X98658923Y-54469810D01*
X98672691Y-54462451D01*
X98679705Y-54460323D01*
X98693140Y-54459000D01*
X99006860Y-54459000D01*
X99020295Y-54460323D01*
X99027309Y-54462451D01*
X99041077Y-54469810D01*
X99063716Y-54479187D01*
X99087749Y-54483967D01*
X99112253Y-54483967D01*
X99136286Y-54479186D01*
X99158923Y-54469810D01*
X99172691Y-54462451D01*
X99179705Y-54460323D01*
X99193140Y-54459000D01*
X99506860Y-54459000D01*
X99520295Y-54460323D01*
X99527309Y-54462451D01*
X99541077Y-54469810D01*
X99563716Y-54479187D01*
X99587749Y-54483967D01*
X99612253Y-54483967D01*
X99636286Y-54479186D01*
X99658923Y-54469810D01*
X99672691Y-54462451D01*
X99679705Y-54460323D01*
X99693140Y-54459000D01*
X100006860Y-54459000D01*
X100020295Y-54460323D01*
X100027309Y-54462451D01*
X100041077Y-54469810D01*
X100063716Y-54479187D01*
X100087749Y-54483967D01*
X100112253Y-54483967D01*
X100136286Y-54479186D01*
X100158923Y-54469810D01*
X100172691Y-54462451D01*
X100179705Y-54460323D01*
X100193140Y-54459000D01*
X100506860Y-54459000D01*
X100520295Y-54460323D01*
X100527309Y-54462451D01*
X100541077Y-54469810D01*
X100563716Y-54479187D01*
X100587749Y-54483967D01*
X100612253Y-54483967D01*
X100636286Y-54479186D01*
X100658923Y-54469810D01*
X100672691Y-54462451D01*
X100679705Y-54460323D01*
X100693140Y-54459000D01*
X101006860Y-54459000D01*
X101020295Y-54460323D01*
X101027309Y-54462451D01*
X101041077Y-54469810D01*
X101063716Y-54479187D01*
X101087749Y-54483967D01*
X101112253Y-54483967D01*
X101136286Y-54479186D01*
X101158923Y-54469810D01*
X101172691Y-54462451D01*
X101179705Y-54460323D01*
X101193140Y-54459000D01*
X101506860Y-54459000D01*
X101520295Y-54460323D01*
X101527309Y-54462451D01*
X101541077Y-54469810D01*
X101563716Y-54479187D01*
X101587749Y-54483967D01*
X101612253Y-54483967D01*
X101636286Y-54479186D01*
X101658923Y-54469810D01*
X101672691Y-54462451D01*
X101679705Y-54460323D01*
X101693140Y-54459000D01*
X102006860Y-54459000D01*
X102020295Y-54460323D01*
X102027309Y-54462451D01*
X102041077Y-54469810D01*
X102063716Y-54479187D01*
X102087749Y-54483967D01*
X102112253Y-54483967D01*
X102136286Y-54479186D01*
X102158923Y-54469810D01*
X102172691Y-54462451D01*
X102179705Y-54460323D01*
X102193140Y-54459000D01*
X102506860Y-54459000D01*
X102520295Y-54460323D01*
X102527309Y-54462451D01*
X102541077Y-54469810D01*
X102563716Y-54479187D01*
X102587749Y-54483967D01*
X102612253Y-54483967D01*
X102636286Y-54479186D01*
X102658923Y-54469810D01*
X102672691Y-54462451D01*
X102679705Y-54460323D01*
X102693140Y-54459000D01*
X103006860Y-54459000D01*
X103020295Y-54460323D01*
X103027309Y-54462451D01*
X103041077Y-54469810D01*
X103063716Y-54479187D01*
X103087749Y-54483967D01*
X103112253Y-54483967D01*
X103136286Y-54479186D01*
X103158923Y-54469810D01*
X103172691Y-54462451D01*
X103179705Y-54460323D01*
X103193140Y-54459000D01*
X103506860Y-54459000D01*
X103520295Y-54460323D01*
X103527309Y-54462451D01*
X103541077Y-54469810D01*
X103563716Y-54479187D01*
X103587749Y-54483967D01*
X103612253Y-54483967D01*
X103636286Y-54479186D01*
X103658923Y-54469810D01*
X103672691Y-54462451D01*
X103679705Y-54460323D01*
X103693140Y-54459000D01*
X104006860Y-54459000D01*
X104020295Y-54460323D01*
X104027309Y-54462451D01*
X104041077Y-54469810D01*
X104063716Y-54479187D01*
X104087749Y-54483967D01*
X104112253Y-54483967D01*
X104136286Y-54479186D01*
X104158923Y-54469810D01*
X104172691Y-54462451D01*
X104179705Y-54460323D01*
X104193140Y-54459000D01*
X104506860Y-54459000D01*
X104520295Y-54460323D01*
X104527309Y-54462451D01*
X104541077Y-54469810D01*
X104563716Y-54479187D01*
X104587749Y-54483967D01*
X104612253Y-54483967D01*
X104636286Y-54479186D01*
X104658923Y-54469810D01*
X104672691Y-54462451D01*
X104679705Y-54460323D01*
X104693140Y-54459000D01*
X105006860Y-54459000D01*
X105020295Y-54460323D01*
X105027309Y-54462451D01*
X105041077Y-54469810D01*
X105063716Y-54479187D01*
X105087749Y-54483967D01*
X105112253Y-54483967D01*
X105136286Y-54479186D01*
X105158923Y-54469810D01*
X105172691Y-54462451D01*
X105179705Y-54460323D01*
X105193140Y-54459000D01*
X105506860Y-54459000D01*
X105520295Y-54460323D01*
X105527310Y-54462451D01*
X105533776Y-54465908D01*
X105539442Y-54470558D01*
X105544092Y-54476224D01*
X105547549Y-54482690D01*
X105549677Y-54489705D01*
X105551000Y-54503140D01*
X105551000Y-56066860D01*
X105549677Y-56080295D01*
X105547549Y-56087310D01*
X105544092Y-56093776D01*
X105539442Y-56099442D01*
X105533776Y-56104092D01*
X105527310Y-56107549D01*
X105520295Y-56109677D01*
X105506860Y-56111000D01*
X105193140Y-56111000D01*
X105179705Y-56109677D01*
X105172691Y-56107549D01*
X105158923Y-56100190D01*
X105136284Y-56090813D01*
X105112251Y-56086033D01*
X105087747Y-56086033D01*
X105063714Y-56090814D01*
X105041077Y-56100190D01*
X105027309Y-56107549D01*
X105020295Y-56109677D01*
X105006860Y-56111000D01*
X104693140Y-56111000D01*
X104679705Y-56109677D01*
X104672691Y-56107549D01*
X104658923Y-56100190D01*
X104636284Y-56090813D01*
X104612251Y-56086033D01*
X104587747Y-56086033D01*
X104563714Y-56090814D01*
X104541077Y-56100190D01*
X104527309Y-56107549D01*
X104520295Y-56109677D01*
X104506860Y-56111000D01*
X104193140Y-56111000D01*
X104179705Y-56109677D01*
X104172691Y-56107549D01*
X104158923Y-56100190D01*
X104136284Y-56090813D01*
X104112251Y-56086033D01*
X104087747Y-56086033D01*
X104063714Y-56090814D01*
X104041077Y-56100190D01*
X104027309Y-56107549D01*
X104020295Y-56109677D01*
X104006860Y-56111000D01*
X103693140Y-56111000D01*
X103679705Y-56109677D01*
X103672691Y-56107549D01*
X103658923Y-56100190D01*
X103636284Y-56090813D01*
X103612251Y-56086033D01*
X103587747Y-56086033D01*
X103563714Y-56090814D01*
X103541077Y-56100190D01*
X103527309Y-56107549D01*
X103520295Y-56109677D01*
X103506860Y-56111000D01*
X103193140Y-56111000D01*
X103179705Y-56109677D01*
X103172691Y-56107549D01*
X103158923Y-56100190D01*
X103136284Y-56090813D01*
X103112251Y-56086033D01*
X103087747Y-56086033D01*
X103063714Y-56090814D01*
X103041077Y-56100190D01*
X103027309Y-56107549D01*
X103020295Y-56109677D01*
X103006860Y-56111000D01*
X102693140Y-56111000D01*
X102679705Y-56109677D01*
X102672691Y-56107549D01*
X102658923Y-56100190D01*
X102636284Y-56090813D01*
X102612251Y-56086033D01*
X102587747Y-56086033D01*
X102563714Y-56090814D01*
X102541077Y-56100190D01*
X102527309Y-56107549D01*
X102520295Y-56109677D01*
X102506860Y-56111000D01*
X102193140Y-56111000D01*
X102179705Y-56109677D01*
X102172691Y-56107549D01*
X102158923Y-56100190D01*
X102136284Y-56090813D01*
X102112251Y-56086033D01*
X102087747Y-56086033D01*
X102063714Y-56090814D01*
X102041077Y-56100190D01*
X102027309Y-56107549D01*
X102020295Y-56109677D01*
X102006860Y-56111000D01*
X101693140Y-56111000D01*
X101679705Y-56109677D01*
X101672691Y-56107549D01*
X101658923Y-56100190D01*
X101636284Y-56090813D01*
X101612251Y-56086033D01*
X101587747Y-56086033D01*
X101563714Y-56090814D01*
X101541077Y-56100190D01*
X101527309Y-56107549D01*
X101520295Y-56109677D01*
X101506860Y-56111000D01*
X101193140Y-56111000D01*
X101179705Y-56109677D01*
X101172691Y-56107549D01*
X101158923Y-56100190D01*
X101136284Y-56090813D01*
X101112251Y-56086033D01*
X101087747Y-56086033D01*
X101063714Y-56090814D01*
X101041077Y-56100190D01*
X101027309Y-56107549D01*
X101020295Y-56109677D01*
X101006860Y-56111000D01*
X100693140Y-56111000D01*
X100679705Y-56109677D01*
X100672691Y-56107549D01*
X100658923Y-56100190D01*
X100636284Y-56090813D01*
X100612251Y-56086033D01*
X100587747Y-56086033D01*
X100563714Y-56090814D01*
X100541077Y-56100190D01*
X100527309Y-56107549D01*
X100520295Y-56109677D01*
X100506860Y-56111000D01*
X100193140Y-56111000D01*
X100179705Y-56109677D01*
X100172691Y-56107549D01*
X100158923Y-56100190D01*
X100136284Y-56090813D01*
X100112251Y-56086033D01*
X100087747Y-56086033D01*
X100063714Y-56090814D01*
X100041077Y-56100190D01*
X100027309Y-56107549D01*
X100020295Y-56109677D01*
X100006860Y-56111000D01*
X99693140Y-56111000D01*
X99679705Y-56109677D01*
X99672691Y-56107549D01*
X99658923Y-56100190D01*
X99636284Y-56090813D01*
X99612251Y-56086033D01*
X99587747Y-56086033D01*
X99563714Y-56090814D01*
X99541077Y-56100190D01*
X99527309Y-56107549D01*
X99520295Y-56109677D01*
X99506860Y-56111000D01*
X99193140Y-56111000D01*
X99179705Y-56109677D01*
X99172691Y-56107549D01*
X99158923Y-56100190D01*
X99136284Y-56090813D01*
X99112251Y-56086033D01*
X99087747Y-56086033D01*
X99063714Y-56090814D01*
X99041077Y-56100190D01*
X99027309Y-56107549D01*
X99020295Y-56109677D01*
X99006860Y-56111000D01*
X98693140Y-56111000D01*
X98679705Y-56109677D01*
X98672691Y-56107549D01*
X98658923Y-56100190D01*
X98636284Y-56090813D01*
X98612251Y-56086033D01*
X98587747Y-56086033D01*
X98563714Y-56090814D01*
X98541077Y-56100190D01*
X98527309Y-56107549D01*
X98520295Y-56109677D01*
X98506860Y-56111000D01*
X98193140Y-56111000D01*
X98179705Y-56109677D01*
X98172691Y-56107549D01*
X98158923Y-56100190D01*
X98136284Y-56090813D01*
X98112251Y-56086033D01*
X98087747Y-56086033D01*
X98063714Y-56090814D01*
X98041077Y-56100190D01*
X98027309Y-56107549D01*
X98020295Y-56109677D01*
X98006860Y-56111000D01*
X97693140Y-56111000D01*
X97679705Y-56109677D01*
X97672690Y-56107549D01*
X97666224Y-56104092D01*
X97660558Y-56099442D01*
X97655908Y-56093776D01*
X97652451Y-56087310D01*
X97650323Y-56080295D01*
X97649000Y-56066860D01*
X97649000Y-54503140D01*
X97650323Y-54489705D01*
X97652451Y-54482690D01*
X97655908Y-54476224D01*
X97660558Y-54470558D01*
X97666224Y-54465908D01*
X97672690Y-54462451D01*
X97679705Y-54460323D01*
X97693140Y-54459000D01*
X98006860Y-54459000D01*
X98020295Y-54460323D01*
G37*
G36*
X110861968Y-52847565D02*
G01*
X110900638Y-52859296D01*
X110936277Y-52878346D01*
X110967517Y-52903983D01*
X110993154Y-52935223D01*
X111012204Y-52970862D01*
X111023935Y-53009532D01*
X111028500Y-53055888D01*
X111028500Y-54132112D01*
X111023935Y-54178468D01*
X111012204Y-54217138D01*
X110993154Y-54252777D01*
X110967517Y-54284017D01*
X110936277Y-54309654D01*
X110900638Y-54328704D01*
X110861968Y-54340435D01*
X110815612Y-54345000D01*
X110164388Y-54345000D01*
X110118032Y-54340435D01*
X110079362Y-54328704D01*
X110043723Y-54309654D01*
X110012483Y-54284017D01*
X109986846Y-54252777D01*
X109967796Y-54217138D01*
X109956065Y-54178468D01*
X109951500Y-54132112D01*
X109951500Y-53055888D01*
X109956065Y-53009532D01*
X109967796Y-52970862D01*
X109986846Y-52935223D01*
X110012483Y-52903983D01*
X110043723Y-52878346D01*
X110079362Y-52859296D01*
X110118032Y-52847565D01*
X110164388Y-52843000D01*
X110815612Y-52843000D01*
X110861968Y-52847565D01*
G37*
G36*
X108986968Y-52847565D02*
G01*
X109025638Y-52859296D01*
X109061277Y-52878346D01*
X109092517Y-52903983D01*
X109118154Y-52935223D01*
X109137204Y-52970862D01*
X109148935Y-53009532D01*
X109153500Y-53055888D01*
X109153500Y-54132112D01*
X109148935Y-54178468D01*
X109137204Y-54217138D01*
X109118154Y-54252777D01*
X109092517Y-54284017D01*
X109061277Y-54309654D01*
X109025638Y-54328704D01*
X108986968Y-54340435D01*
X108940612Y-54345000D01*
X108289388Y-54345000D01*
X108243032Y-54340435D01*
X108204362Y-54328704D01*
X108168723Y-54309654D01*
X108137483Y-54284017D01*
X108111846Y-54252777D01*
X108092796Y-54217138D01*
X108081065Y-54178468D01*
X108076500Y-54132112D01*
X108076500Y-53055888D01*
X108081065Y-53009532D01*
X108092796Y-52970862D01*
X108111846Y-52935223D01*
X108137483Y-52903983D01*
X108168723Y-52878346D01*
X108204362Y-52859296D01*
X108243032Y-52847565D01*
X108289388Y-52843000D01*
X108940612Y-52843000D01*
X108986968Y-52847565D01*
G37*
G36*
X88475000Y-53375000D02*
G01*
X83873000Y-53375000D01*
X83873000Y-51273000D01*
X88475000Y-51273000D01*
X88475000Y-53375000D01*
G37*
G36*
X96975000Y-53375000D02*
G01*
X92373000Y-53375000D01*
X92373000Y-51273000D01*
X96975000Y-51273000D01*
X96975000Y-53375000D01*
G37*
G36*
X110099968Y-50561565D02*
G01*
X110138638Y-50573296D01*
X110174277Y-50592346D01*
X110205517Y-50617983D01*
X110231154Y-50649223D01*
X110250204Y-50684862D01*
X110261935Y-50723532D01*
X110266500Y-50769888D01*
X110266500Y-51846112D01*
X110261935Y-51892468D01*
X110250204Y-51931138D01*
X110231154Y-51966777D01*
X110205517Y-51998017D01*
X110174277Y-52023654D01*
X110138638Y-52042704D01*
X110099968Y-52054435D01*
X110053612Y-52059000D01*
X109402388Y-52059000D01*
X109356032Y-52054435D01*
X109317362Y-52042704D01*
X109281723Y-52023654D01*
X109250483Y-51998017D01*
X109224846Y-51966777D01*
X109205796Y-51931138D01*
X109194065Y-51892468D01*
X109189500Y-51846112D01*
X109189500Y-50769888D01*
X109194065Y-50723532D01*
X109205796Y-50684862D01*
X109224846Y-50649223D01*
X109250483Y-50617983D01*
X109281723Y-50592346D01*
X109317362Y-50573296D01*
X109356032Y-50561565D01*
X109402388Y-50557000D01*
X110053612Y-50557000D01*
X110099968Y-50561565D01*
G37*
G36*
X111974968Y-50561565D02*
G01*
X112013638Y-50573296D01*
X112049277Y-50592346D01*
X112080517Y-50617983D01*
X112106154Y-50649223D01*
X112125204Y-50684862D01*
X112136935Y-50723532D01*
X112141500Y-50769888D01*
X112141500Y-51846112D01*
X112136935Y-51892468D01*
X112125204Y-51931138D01*
X112106154Y-51966777D01*
X112080517Y-51998017D01*
X112049277Y-52023654D01*
X112013638Y-52042704D01*
X111974968Y-52054435D01*
X111928612Y-52059000D01*
X111277388Y-52059000D01*
X111231032Y-52054435D01*
X111192362Y-52042704D01*
X111156723Y-52023654D01*
X111125483Y-51998017D01*
X111099846Y-51966777D01*
X111080796Y-51931138D01*
X111069065Y-51892468D01*
X111064500Y-51846112D01*
X111064500Y-50769888D01*
X111069065Y-50723532D01*
X111080796Y-50684862D01*
X111099846Y-50649223D01*
X111125483Y-50617983D01*
X111156723Y-50592346D01*
X111192362Y-50573296D01*
X111231032Y-50561565D01*
X111277388Y-50557000D01*
X111928612Y-50557000D01*
X111974968Y-50561565D01*
G37*
G36*
X102345928Y-50832764D02*
G01*
X102367009Y-50839160D01*
X102386445Y-50849548D01*
X102403476Y-50863524D01*
X102417452Y-50880555D01*
X102427840Y-50899991D01*
X102434236Y-50921072D01*
X102437000Y-50949140D01*
X102437000Y-51412860D01*
X102434236Y-51440928D01*
X102427840Y-51462009D01*
X102417452Y-51481445D01*
X102403476Y-51498476D01*
X102386445Y-51512452D01*
X102367009Y-51522840D01*
X102345928Y-51529236D01*
X102317860Y-51532000D01*
X100504140Y-51532000D01*
X100476072Y-51529236D01*
X100454991Y-51522840D01*
X100435555Y-51512452D01*
X100418524Y-51498476D01*
X100404548Y-51481445D01*
X100394160Y-51462009D01*
X100387764Y-51440928D01*
X100385000Y-51412860D01*
X100385000Y-50949140D01*
X100387764Y-50921072D01*
X100394160Y-50899991D01*
X100404548Y-50880555D01*
X100418524Y-50863524D01*
X100435555Y-50849548D01*
X100454991Y-50839160D01*
X100476072Y-50832764D01*
X100504140Y-50830000D01*
X102317860Y-50830000D01*
X102345928Y-50832764D01*
G37*
G36*
X107295928Y-50832764D02*
G01*
X107317009Y-50839160D01*
X107336445Y-50849548D01*
X107353476Y-50863524D01*
X107367452Y-50880555D01*
X107377840Y-50899991D01*
X107384236Y-50921072D01*
X107387000Y-50949140D01*
X107387000Y-51412860D01*
X107384236Y-51440928D01*
X107377840Y-51462009D01*
X107367452Y-51481445D01*
X107353476Y-51498476D01*
X107336445Y-51512452D01*
X107317009Y-51522840D01*
X107295928Y-51529236D01*
X107267860Y-51532000D01*
X105454140Y-51532000D01*
X105426072Y-51529236D01*
X105404991Y-51522840D01*
X105385555Y-51512452D01*
X105368524Y-51498476D01*
X105354548Y-51481445D01*
X105344160Y-51462009D01*
X105337764Y-51440928D01*
X105335000Y-51412860D01*
X105335000Y-50949140D01*
X105337764Y-50921072D01*
X105344160Y-50899991D01*
X105354548Y-50880555D01*
X105368524Y-50863524D01*
X105385555Y-50849548D01*
X105404991Y-50839160D01*
X105426072Y-50832764D01*
X105454140Y-50830000D01*
X107267860Y-50830000D01*
X107295928Y-50832764D01*
G37*
G36*
X102345928Y-49562764D02*
G01*
X102367009Y-49569160D01*
X102386445Y-49579548D01*
X102403476Y-49593524D01*
X102417452Y-49610555D01*
X102427840Y-49629991D01*
X102434236Y-49651072D01*
X102437000Y-49679140D01*
X102437000Y-50142860D01*
X102434236Y-50170928D01*
X102427840Y-50192009D01*
X102417452Y-50211445D01*
X102403476Y-50228476D01*
X102386445Y-50242452D01*
X102367009Y-50252840D01*
X102345928Y-50259236D01*
X102317860Y-50262000D01*
X100504140Y-50262000D01*
X100476072Y-50259236D01*
X100454991Y-50252840D01*
X100435555Y-50242452D01*
X100418524Y-50228476D01*
X100404548Y-50211445D01*
X100394160Y-50192009D01*
X100387764Y-50170928D01*
X100385000Y-50142860D01*
X100385000Y-49679140D01*
X100387764Y-49651072D01*
X100394160Y-49629991D01*
X100404548Y-49610555D01*
X100418524Y-49593524D01*
X100435555Y-49579548D01*
X100454991Y-49569160D01*
X100476072Y-49562764D01*
X100504140Y-49560000D01*
X102317860Y-49560000D01*
X102345928Y-49562764D01*
G37*
G36*
X107295928Y-49562764D02*
G01*
X107317009Y-49569160D01*
X107336445Y-49579548D01*
X107353476Y-49593524D01*
X107367452Y-49610555D01*
X107377840Y-49629991D01*
X107384236Y-49651072D01*
X107387000Y-49679140D01*
X107387000Y-50142860D01*
X107384236Y-50170928D01*
X107377840Y-50192009D01*
X107367452Y-50211445D01*
X107353476Y-50228476D01*
X107336445Y-50242452D01*
X107317009Y-50252840D01*
X107295928Y-50259236D01*
X107267860Y-50262000D01*
X105454140Y-50262000D01*
X105426072Y-50259236D01*
X105404991Y-50252840D01*
X105385555Y-50242452D01*
X105368524Y-50228476D01*
X105354548Y-50211445D01*
X105344160Y-50192009D01*
X105337764Y-50170928D01*
X105335000Y-50142860D01*
X105335000Y-49679140D01*
X105337764Y-49651072D01*
X105344160Y-49629991D01*
X105354548Y-49610555D01*
X105368524Y-49593524D01*
X105385555Y-49579548D01*
X105404991Y-49569160D01*
X105426072Y-49562764D01*
X105454140Y-49560000D01*
X107267860Y-49560000D01*
X107295928Y-49562764D01*
G37*
G36*
X112053468Y-48021565D02*
G01*
X112092138Y-48033296D01*
X112127777Y-48052346D01*
X112159017Y-48077983D01*
X112184654Y-48109223D01*
X112203704Y-48144862D01*
X112215435Y-48183532D01*
X112220000Y-48229888D01*
X112220000Y-49306112D01*
X112215435Y-49352468D01*
X112203704Y-49391138D01*
X112184654Y-49426777D01*
X112159017Y-49458017D01*
X112127777Y-49483654D01*
X112092138Y-49502704D01*
X112053468Y-49514435D01*
X112007112Y-49519000D01*
X111355888Y-49519000D01*
X111309532Y-49514435D01*
X111270862Y-49502704D01*
X111235223Y-49483654D01*
X111203983Y-49458017D01*
X111178346Y-49426777D01*
X111159296Y-49391138D01*
X111147565Y-49352468D01*
X111143000Y-49306112D01*
X111143000Y-48229888D01*
X111147565Y-48183532D01*
X111159296Y-48144862D01*
X111178346Y-48109223D01*
X111203983Y-48077983D01*
X111235223Y-48052346D01*
X111270862Y-48033296D01*
X111309532Y-48021565D01*
X111355888Y-48017000D01*
X112007112Y-48017000D01*
X112053468Y-48021565D01*
G37*
G36*
X110178468Y-48021565D02*
G01*
X110217138Y-48033296D01*
X110252777Y-48052346D01*
X110284017Y-48077983D01*
X110309654Y-48109223D01*
X110328704Y-48144862D01*
X110340435Y-48183532D01*
X110345000Y-48229888D01*
X110345000Y-49306112D01*
X110340435Y-49352468D01*
X110328704Y-49391138D01*
X110309654Y-49426777D01*
X110284017Y-49458017D01*
X110252777Y-49483654D01*
X110217138Y-49502704D01*
X110178468Y-49514435D01*
X110132112Y-49519000D01*
X109480888Y-49519000D01*
X109434532Y-49514435D01*
X109395862Y-49502704D01*
X109360223Y-49483654D01*
X109328983Y-49458017D01*
X109303346Y-49426777D01*
X109284296Y-49391138D01*
X109272565Y-49352468D01*
X109268000Y-49306112D01*
X109268000Y-48229888D01*
X109272565Y-48183532D01*
X109284296Y-48144862D01*
X109303346Y-48109223D01*
X109328983Y-48077983D01*
X109360223Y-48052346D01*
X109395862Y-48033296D01*
X109434532Y-48021565D01*
X109480888Y-48017000D01*
X110132112Y-48017000D01*
X110178468Y-48021565D01*
G37*
G36*
X107295928Y-48292764D02*
G01*
X107317009Y-48299160D01*
X107336445Y-48309548D01*
X107353476Y-48323524D01*
X107367452Y-48340555D01*
X107377840Y-48359991D01*
X107384236Y-48381072D01*
X107387000Y-48409140D01*
X107387000Y-48872860D01*
X107384236Y-48900928D01*
X107377840Y-48922009D01*
X107367452Y-48941445D01*
X107353476Y-48958476D01*
X107336445Y-48972452D01*
X107317009Y-48982840D01*
X107295928Y-48989236D01*
X107267860Y-48992000D01*
X105454140Y-48992000D01*
X105426072Y-48989236D01*
X105404991Y-48982840D01*
X105385555Y-48972452D01*
X105368524Y-48958476D01*
X105354548Y-48941445D01*
X105344160Y-48922009D01*
X105337764Y-48900928D01*
X105335000Y-48872860D01*
X105335000Y-48409140D01*
X105337764Y-48381072D01*
X105344160Y-48359991D01*
X105354548Y-48340555D01*
X105368524Y-48323524D01*
X105385555Y-48309548D01*
X105404991Y-48299160D01*
X105426072Y-48292764D01*
X105454140Y-48290000D01*
X107267860Y-48290000D01*
X107295928Y-48292764D01*
G37*
G36*
X102345928Y-48292764D02*
G01*
X102367009Y-48299160D01*
X102386445Y-48309548D01*
X102403476Y-48323524D01*
X102417452Y-48340555D01*
X102427840Y-48359991D01*
X102434236Y-48381072D01*
X102437000Y-48409140D01*
X102437000Y-48872860D01*
X102434236Y-48900928D01*
X102427840Y-48922009D01*
X102417452Y-48941445D01*
X102403476Y-48958476D01*
X102386445Y-48972452D01*
X102367009Y-48982840D01*
X102345928Y-48989236D01*
X102317860Y-48992000D01*
X100504140Y-48992000D01*
X100476072Y-48989236D01*
X100454991Y-48982840D01*
X100435555Y-48972452D01*
X100418524Y-48958476D01*
X100404548Y-48941445D01*
X100394160Y-48922009D01*
X100387764Y-48900928D01*
X100385000Y-48872860D01*
X100385000Y-48409140D01*
X100387764Y-48381072D01*
X100394160Y-48359991D01*
X100404548Y-48340555D01*
X100418524Y-48323524D01*
X100435555Y-48309548D01*
X100454991Y-48299160D01*
X100476072Y-48292764D01*
X100504140Y-48290000D01*
X102317860Y-48290000D01*
X102345928Y-48292764D01*
G37*
G36*
X107295928Y-47022764D02*
G01*
X107317009Y-47029160D01*
X107336445Y-47039548D01*
X107353476Y-47053524D01*
X107367452Y-47070555D01*
X107377840Y-47089991D01*
X107384236Y-47111072D01*
X107387000Y-47139140D01*
X107387000Y-47602860D01*
X107384236Y-47630928D01*
X107377840Y-47652009D01*
X107367452Y-47671445D01*
X107353476Y-47688476D01*
X107336445Y-47702452D01*
X107317009Y-47712840D01*
X107295928Y-47719236D01*
X107267860Y-47722000D01*
X105454140Y-47722000D01*
X105426072Y-47719236D01*
X105404991Y-47712840D01*
X105385555Y-47702452D01*
X105368524Y-47688476D01*
X105354548Y-47671445D01*
X105344160Y-47652009D01*
X105337764Y-47630928D01*
X105335000Y-47602860D01*
X105335000Y-47139140D01*
X105337764Y-47111072D01*
X105344160Y-47089991D01*
X105354548Y-47070555D01*
X105368524Y-47053524D01*
X105385555Y-47039548D01*
X105404991Y-47029160D01*
X105426072Y-47022764D01*
X105454140Y-47020000D01*
X107267860Y-47020000D01*
X107295928Y-47022764D01*
G37*
G36*
X102345928Y-47022764D02*
G01*
X102367009Y-47029160D01*
X102386445Y-47039548D01*
X102403476Y-47053524D01*
X102417452Y-47070555D01*
X102427840Y-47089991D01*
X102434236Y-47111072D01*
X102437000Y-47139140D01*
X102437000Y-47602860D01*
X102434236Y-47630928D01*
X102427840Y-47652009D01*
X102417452Y-47671445D01*
X102403476Y-47688476D01*
X102386445Y-47702452D01*
X102367009Y-47712840D01*
X102345928Y-47719236D01*
X102317860Y-47722000D01*
X100504140Y-47722000D01*
X100476072Y-47719236D01*
X100454991Y-47712840D01*
X100435555Y-47702452D01*
X100418524Y-47688476D01*
X100404548Y-47671445D01*
X100394160Y-47652009D01*
X100387764Y-47630928D01*
X100385000Y-47602860D01*
X100385000Y-47139140D01*
X100387764Y-47111072D01*
X100394160Y-47089991D01*
X100404548Y-47070555D01*
X100418524Y-47053524D01*
X100435555Y-47039548D01*
X100454991Y-47029160D01*
X100476072Y-47022764D01*
X100504140Y-47020000D01*
X102317860Y-47020000D01*
X102345928Y-47022764D01*
G37*
M02*
